G04 #@! TF.GenerationSoftware,KiCad,Pcbnew,5.1.2-1.fc30*
G04 #@! TF.CreationDate,2019-08-21T13:34:15+02:00*
G04 #@! TF.ProjectId,CarteScreening,43617274-6553-4637-9265-656e696e672e,rev?*
G04 #@! TF.SameCoordinates,Original*
G04 #@! TF.FileFunction,Copper,L2,Bot*
G04 #@! TF.FilePolarity,Positive*
%FSLAX46Y46*%
G04 Gerber Fmt 4.6, Leading zero omitted, Abs format (unit mm)*
G04 Created by KiCad (PCBNEW 5.1.2-1.fc30) date 2019-08-21 13:34:15*
%MOMM*%
%LPD*%
G04 APERTURE LIST*
%ADD10C,0.914400*%
%ADD11C,3.526000*%
%ADD12C,4.364000*%
%ADD13C,0.950000*%
%ADD14C,0.800000*%
%ADD15C,0.200000*%
%ADD16C,0.254000*%
G04 APERTURE END LIST*
D10*
X138722400Y-82758440D03*
X141262400Y-81257300D03*
X138722400Y-80756920D03*
X138722400Y-78755400D03*
X141262400Y-78255020D03*
X141262400Y-79255780D03*
X141262400Y-83258820D03*
X141262400Y-80256540D03*
X141262400Y-82258060D03*
X138722400Y-79756160D03*
X141262400Y-77254260D03*
X138722400Y-81757680D03*
X138722400Y-76753880D03*
X138722400Y-77754640D03*
X138722400Y-83759200D03*
X141262400Y-76253500D03*
X147241560Y-68722400D03*
X148742700Y-71262400D03*
X149243080Y-68722400D03*
X151244600Y-68722400D03*
X151744980Y-71262400D03*
X150744220Y-71262400D03*
X146741180Y-71262400D03*
X149743460Y-71262400D03*
X147741940Y-71262400D03*
X150243840Y-68722400D03*
X152745740Y-71262400D03*
X148242320Y-68722400D03*
X153246120Y-68722400D03*
X152245360Y-68722400D03*
X146240800Y-68722400D03*
X153746500Y-71262400D03*
X161277600Y-77241560D03*
X158737600Y-78742700D03*
X161277600Y-79243080D03*
X161277600Y-81244600D03*
X158737600Y-81744980D03*
X158737600Y-80744220D03*
X158737600Y-76741180D03*
X158737600Y-79743460D03*
X158737600Y-77741940D03*
X161277600Y-80243840D03*
X158737600Y-82745740D03*
X161277600Y-78242320D03*
X161277600Y-83246120D03*
X161277600Y-82245360D03*
X161277600Y-76240800D03*
X158737600Y-83746500D03*
X153759200Y-91277600D03*
X153258820Y-88737600D03*
X152758440Y-91277600D03*
X152258060Y-88737600D03*
X151757680Y-91277600D03*
X151257300Y-88737600D03*
X150756920Y-91277600D03*
X150256540Y-88737600D03*
X149756160Y-91277600D03*
X149255780Y-88737600D03*
X148755400Y-91277600D03*
X148255020Y-88737600D03*
X147754640Y-91277600D03*
X147254260Y-88737600D03*
X146753880Y-91277600D03*
X146253500Y-88737600D03*
X138570000Y-99812000D03*
X161430000Y-99812000D03*
X161430000Y-60188000D03*
X138570000Y-60188000D03*
D11*
X142745000Y-128090000D03*
D12*
X142745000Y-120330000D03*
D11*
X157245000Y-128090000D03*
D12*
X157245000Y-120330000D03*
D13*
X145495000Y-121290000D03*
X145995000Y-119790000D03*
X146495000Y-122790000D03*
X146995000Y-121290000D03*
X147495000Y-119790000D03*
X147995000Y-122790000D03*
X148495000Y-121290000D03*
X148995000Y-119790000D03*
X149495000Y-122790000D03*
X149995000Y-121290000D03*
X150495000Y-119790000D03*
X150995000Y-122790000D03*
X151495000Y-121290000D03*
X151995000Y-119790000D03*
X152495000Y-122790000D03*
X152995000Y-121290000D03*
X153495000Y-119790000D03*
X153995000Y-122790000D03*
X154495000Y-121290000D03*
D14*
X161000000Y-86800000D03*
X150900000Y-78000000D03*
X146200000Y-73800000D03*
X146200000Y-78000000D03*
X147400000Y-100500000D03*
X146812000Y-111252000D03*
X143022800Y-104881200D03*
X137668000Y-105664000D03*
X141478000Y-111252000D03*
D15*
X141262400Y-81257300D02*
X150744200Y-71775500D01*
X150744200Y-71775500D02*
X150744200Y-71262400D01*
X143022800Y-104881200D02*
X143022800Y-82570800D01*
X141709300Y-81257300D02*
X141262400Y-81257300D01*
X143022800Y-82570800D02*
X141709300Y-81257300D01*
X151244600Y-68722400D02*
X151244600Y-69655400D01*
X150744220Y-70155780D02*
X150744220Y-71262400D01*
X151244600Y-69655400D02*
X150744220Y-70155780D01*
X137668000Y-105664000D02*
X137668000Y-102870000D01*
X137668000Y-102870000D02*
X135128000Y-100330000D01*
X135128000Y-100330000D02*
X135128000Y-73914000D01*
X137779600Y-71262400D02*
X146741180Y-71262400D01*
X135128000Y-73914000D02*
X137779600Y-71262400D01*
X150269999Y-122236750D02*
X150269999Y-123796001D01*
X149995000Y-121290000D02*
X149995000Y-121961751D01*
X149995000Y-121961751D02*
X150269999Y-122236750D01*
X147400000Y-126666000D02*
X149783000Y-124283000D01*
X147400000Y-128600000D02*
X147400000Y-126666000D01*
X141300000Y-131400000D02*
X144600000Y-131400000D01*
X139954000Y-130054000D02*
X141300000Y-131400000D01*
X150269999Y-123796001D02*
X149783000Y-124283000D01*
X138722400Y-83759200D02*
X138722400Y-97066400D01*
X144600000Y-131400000D02*
X147400000Y-128600000D01*
X149783000Y-124283000D02*
X149606000Y-124460000D01*
X139954000Y-98298000D02*
X139954000Y-130054000D01*
X138722400Y-97066400D02*
X139954000Y-98298000D01*
X151995000Y-114149000D02*
X149098000Y-111252000D01*
X151995000Y-119790000D02*
X151995000Y-114149000D01*
X149098000Y-111252000D02*
X146812000Y-111252000D01*
X141478000Y-85090000D02*
X141478000Y-111252000D01*
X140408500Y-76253500D02*
X139954000Y-76708000D01*
X141262400Y-76253500D02*
X140408500Y-76253500D01*
X139954000Y-76708000D02*
X139954000Y-83566000D01*
X139954000Y-83566000D02*
X141478000Y-85090000D01*
X153495000Y-119790000D02*
X153495000Y-103965000D01*
X150756920Y-101226920D02*
X150756920Y-91277600D01*
X153495000Y-103965000D02*
X150756920Y-101226920D01*
X153995000Y-122790000D02*
X155157000Y-123952000D01*
X155157000Y-123952000D02*
X159512000Y-123952000D01*
X159512000Y-123952000D02*
X164592000Y-118872000D01*
X164592000Y-118872000D02*
X164592000Y-92710000D01*
X164592000Y-92710000D02*
X157480000Y-85598000D01*
X157480000Y-85598000D02*
X148082000Y-85598000D01*
X146253500Y-87426500D02*
X146253500Y-88737600D01*
X148082000Y-85598000D02*
X146253500Y-87426500D01*
X154495000Y-121290000D02*
X154495000Y-102679000D01*
X152758440Y-100942440D02*
X152758440Y-91277600D01*
X154495000Y-102679000D02*
X152758440Y-100942440D01*
X147495000Y-118552900D02*
X147495000Y-119790000D01*
X145492600Y-116550500D02*
X147495000Y-118552900D01*
X154022400Y-68722400D02*
X154454100Y-69154100D01*
X153246120Y-68722400D02*
X154022400Y-68722400D01*
X154454100Y-69154100D02*
X154454100Y-71619400D01*
X154454100Y-71619400D02*
X145492600Y-80580900D01*
X145492600Y-80580900D02*
X145492600Y-116550500D01*
X138570000Y-60188000D02*
X161430000Y-60188000D01*
D16*
G36*
X179340001Y-134340000D02*
G01*
X120660000Y-134340000D01*
X120660000Y-73914000D01*
X134389444Y-73914000D01*
X134393001Y-73950115D01*
X134393000Y-100293895D01*
X134389444Y-100330000D01*
X134403635Y-100474085D01*
X134413995Y-100508237D01*
X134445663Y-100612632D01*
X134513913Y-100740319D01*
X134605762Y-100852237D01*
X134633808Y-100875254D01*
X136933001Y-103174448D01*
X136933000Y-104935289D01*
X136864063Y-105004226D01*
X136750795Y-105173744D01*
X136672774Y-105362102D01*
X136633000Y-105562061D01*
X136633000Y-105765939D01*
X136672774Y-105965898D01*
X136750795Y-106154256D01*
X136864063Y-106323774D01*
X137008226Y-106467937D01*
X137177744Y-106581205D01*
X137366102Y-106659226D01*
X137566061Y-106699000D01*
X137769939Y-106699000D01*
X137969898Y-106659226D01*
X138158256Y-106581205D01*
X138327774Y-106467937D01*
X138471937Y-106323774D01*
X138585205Y-106154256D01*
X138663226Y-105965898D01*
X138703000Y-105765939D01*
X138703000Y-105562061D01*
X138663226Y-105362102D01*
X138585205Y-105173744D01*
X138471937Y-105004226D01*
X138403000Y-104935289D01*
X138403000Y-102906094D01*
X138406555Y-102869999D01*
X138403000Y-102833904D01*
X138403000Y-102833895D01*
X138392365Y-102725915D01*
X138350337Y-102587367D01*
X138282087Y-102459680D01*
X138190238Y-102347762D01*
X138162193Y-102324746D01*
X135863000Y-100025554D01*
X135863000Y-74218446D01*
X138084047Y-71997400D01*
X145931576Y-71997400D01*
X146044943Y-72110767D01*
X146223829Y-72230295D01*
X146422597Y-72312628D01*
X146633608Y-72354600D01*
X146848752Y-72354600D01*
X147059763Y-72312628D01*
X147241560Y-72237325D01*
X147423357Y-72312628D01*
X147634368Y-72354600D01*
X147849512Y-72354600D01*
X148060523Y-72312628D01*
X148242320Y-72237325D01*
X148424117Y-72312628D01*
X148635128Y-72354600D01*
X148850272Y-72354600D01*
X149061283Y-72312628D01*
X149242821Y-72237432D01*
X142350858Y-79129396D01*
X142312628Y-78937197D01*
X142237325Y-78755400D01*
X142312628Y-78573603D01*
X142354600Y-78362592D01*
X142354600Y-78147448D01*
X142312628Y-77936437D01*
X142237325Y-77754640D01*
X142312628Y-77572843D01*
X142354600Y-77361832D01*
X142354600Y-77146688D01*
X142312628Y-76935677D01*
X142237325Y-76753880D01*
X142312628Y-76572083D01*
X142354600Y-76361072D01*
X142354600Y-76145928D01*
X142312628Y-75934917D01*
X142230295Y-75736149D01*
X142110767Y-75557263D01*
X141958637Y-75405133D01*
X141779751Y-75285605D01*
X141580983Y-75203272D01*
X141369972Y-75161300D01*
X141154828Y-75161300D01*
X140943817Y-75203272D01*
X140745049Y-75285605D01*
X140566163Y-75405133D01*
X140452796Y-75518500D01*
X140444604Y-75518500D01*
X140408499Y-75514944D01*
X140264414Y-75529135D01*
X140222386Y-75541884D01*
X140125867Y-75571163D01*
X139998180Y-75639413D01*
X139886262Y-75731262D01*
X139863241Y-75759313D01*
X139567839Y-76054715D01*
X139418637Y-75905513D01*
X139239751Y-75785985D01*
X139040983Y-75703652D01*
X138829972Y-75661680D01*
X138614828Y-75661680D01*
X138403817Y-75703652D01*
X138205049Y-75785985D01*
X138026163Y-75905513D01*
X137874033Y-76057643D01*
X137754505Y-76236529D01*
X137672172Y-76435297D01*
X137630200Y-76646308D01*
X137630200Y-76861452D01*
X137672172Y-77072463D01*
X137747475Y-77254260D01*
X137672172Y-77436057D01*
X137630200Y-77647068D01*
X137630200Y-77862212D01*
X137672172Y-78073223D01*
X137747475Y-78255020D01*
X137672172Y-78436817D01*
X137630200Y-78647828D01*
X137630200Y-78862972D01*
X137672172Y-79073983D01*
X137747475Y-79255780D01*
X137672172Y-79437577D01*
X137630200Y-79648588D01*
X137630200Y-79863732D01*
X137672172Y-80074743D01*
X137747475Y-80256540D01*
X137672172Y-80438337D01*
X137630200Y-80649348D01*
X137630200Y-80864492D01*
X137672172Y-81075503D01*
X137747475Y-81257300D01*
X137672172Y-81439097D01*
X137630200Y-81650108D01*
X137630200Y-81865252D01*
X137672172Y-82076263D01*
X137747475Y-82258060D01*
X137672172Y-82439857D01*
X137630200Y-82650868D01*
X137630200Y-82866012D01*
X137672172Y-83077023D01*
X137747475Y-83258820D01*
X137672172Y-83440617D01*
X137630200Y-83651628D01*
X137630200Y-83866772D01*
X137672172Y-84077783D01*
X137754505Y-84276551D01*
X137874033Y-84455437D01*
X137987400Y-84568804D01*
X137987401Y-97030285D01*
X137983844Y-97066400D01*
X137998035Y-97210485D01*
X138040064Y-97349033D01*
X138108314Y-97476720D01*
X138200163Y-97588638D01*
X138228208Y-97611654D01*
X139219000Y-98602447D01*
X139219000Y-98932070D01*
X139087351Y-98844105D01*
X138888583Y-98761772D01*
X138677572Y-98719800D01*
X138462428Y-98719800D01*
X138251417Y-98761772D01*
X138052649Y-98844105D01*
X137873763Y-98963633D01*
X137721633Y-99115763D01*
X137602105Y-99294649D01*
X137519772Y-99493417D01*
X137477800Y-99704428D01*
X137477800Y-99919572D01*
X137519772Y-100130583D01*
X137602105Y-100329351D01*
X137721633Y-100508237D01*
X137873763Y-100660367D01*
X138052649Y-100779895D01*
X138251417Y-100862228D01*
X138462428Y-100904200D01*
X138677572Y-100904200D01*
X138888583Y-100862228D01*
X139087351Y-100779895D01*
X139219000Y-100691930D01*
X139219001Y-130017885D01*
X139215444Y-130054000D01*
X139229635Y-130198085D01*
X139261634Y-130303570D01*
X139271664Y-130336633D01*
X139339914Y-130464320D01*
X139431763Y-130576238D01*
X139459808Y-130599254D01*
X140754746Y-131894193D01*
X140777762Y-131922238D01*
X140889680Y-132014087D01*
X141017367Y-132082337D01*
X141155915Y-132124365D01*
X141263895Y-132135000D01*
X141263904Y-132135000D01*
X141299999Y-132138555D01*
X141336094Y-132135000D01*
X144563895Y-132135000D01*
X144600000Y-132138556D01*
X144636105Y-132135000D01*
X144744085Y-132124365D01*
X144882633Y-132082337D01*
X145010320Y-132014087D01*
X145122238Y-131922238D01*
X145145259Y-131894187D01*
X147894197Y-129145250D01*
X147922237Y-129122238D01*
X147945250Y-129094197D01*
X147945253Y-129094194D01*
X147970117Y-129063897D01*
X148014087Y-129010320D01*
X148082337Y-128882633D01*
X148124365Y-128744085D01*
X148135000Y-128636105D01*
X148135000Y-128636104D01*
X148138556Y-128600000D01*
X148135000Y-128563895D01*
X148135000Y-127853818D01*
X154847000Y-127853818D01*
X154847000Y-128326182D01*
X154939154Y-128789471D01*
X155119920Y-129225879D01*
X155382352Y-129618636D01*
X155716364Y-129952648D01*
X156109121Y-130215080D01*
X156545529Y-130395846D01*
X157008818Y-130488000D01*
X157481182Y-130488000D01*
X157944471Y-130395846D01*
X158380879Y-130215080D01*
X158773636Y-129952648D01*
X159107648Y-129618636D01*
X159370080Y-129225879D01*
X159550846Y-128789471D01*
X159643000Y-128326182D01*
X159643000Y-127853818D01*
X159550846Y-127390529D01*
X159370080Y-126954121D01*
X159107648Y-126561364D01*
X158773636Y-126227352D01*
X158380879Y-125964920D01*
X157944471Y-125784154D01*
X157481182Y-125692000D01*
X157008818Y-125692000D01*
X156545529Y-125784154D01*
X156109121Y-125964920D01*
X155716364Y-126227352D01*
X155382352Y-126561364D01*
X155119920Y-126954121D01*
X154939154Y-127390529D01*
X154847000Y-127853818D01*
X148135000Y-127853818D01*
X148135000Y-126970446D01*
X148515150Y-126590296D01*
X148543029Y-126730451D01*
X148656856Y-127005253D01*
X148822107Y-127252569D01*
X149032431Y-127462893D01*
X149279747Y-127628144D01*
X149554549Y-127741971D01*
X149846278Y-127800000D01*
X150143722Y-127800000D01*
X150435451Y-127741971D01*
X150710253Y-127628144D01*
X150957569Y-127462893D01*
X151167893Y-127252569D01*
X151333144Y-127005253D01*
X151446971Y-126730451D01*
X151505000Y-126438722D01*
X151505000Y-126141278D01*
X151446971Y-125849549D01*
X151333144Y-125574747D01*
X151167893Y-125327431D01*
X150957569Y-125117107D01*
X150710253Y-124951856D01*
X150435451Y-124838029D01*
X150295297Y-124810150D01*
X150328253Y-124777194D01*
X150328258Y-124777188D01*
X150764186Y-124341260D01*
X150792237Y-124318239D01*
X150884086Y-124206321D01*
X150920115Y-124138915D01*
X150952336Y-124078635D01*
X150994364Y-123940086D01*
X150998312Y-123900000D01*
X151104325Y-123900000D01*
X151318775Y-123857343D01*
X151520782Y-123773669D01*
X151702584Y-123652193D01*
X151745000Y-123609777D01*
X151787416Y-123652193D01*
X151969218Y-123773669D01*
X152171225Y-123857343D01*
X152385675Y-123900000D01*
X152604325Y-123900000D01*
X152818775Y-123857343D01*
X153020782Y-123773669D01*
X153202584Y-123652193D01*
X153245000Y-123609777D01*
X153287416Y-123652193D01*
X153469218Y-123773669D01*
X153671225Y-123857343D01*
X153885675Y-123900000D01*
X154065553Y-123900000D01*
X154611746Y-124446193D01*
X154634762Y-124474238D01*
X154746680Y-124566087D01*
X154874367Y-124634337D01*
X154970886Y-124663616D01*
X155012914Y-124676365D01*
X155027132Y-124677765D01*
X155120895Y-124687000D01*
X155120902Y-124687000D01*
X155156999Y-124690555D01*
X155193096Y-124687000D01*
X159475895Y-124687000D01*
X159512000Y-124690556D01*
X159548105Y-124687000D01*
X159656085Y-124676365D01*
X159794633Y-124634337D01*
X159922320Y-124566087D01*
X160034238Y-124474238D01*
X160057259Y-124446187D01*
X165086197Y-119417249D01*
X165114237Y-119394238D01*
X165137250Y-119366197D01*
X165137253Y-119366194D01*
X165162117Y-119335897D01*
X165206087Y-119282320D01*
X165274337Y-119154633D01*
X165316365Y-119016085D01*
X165327000Y-118908105D01*
X165327000Y-118908104D01*
X165330556Y-118872000D01*
X165327000Y-118835895D01*
X165327000Y-92746105D01*
X165330556Y-92710000D01*
X165316365Y-92565915D01*
X165274337Y-92427367D01*
X165206087Y-92299680D01*
X165114238Y-92187762D01*
X165086193Y-92164746D01*
X158025259Y-85103813D01*
X158002238Y-85075762D01*
X157890320Y-84983913D01*
X157762633Y-84915663D01*
X157624085Y-84873635D01*
X157516105Y-84863000D01*
X157480000Y-84859444D01*
X157443895Y-84863000D01*
X148118094Y-84863000D01*
X148081999Y-84859445D01*
X148045904Y-84863000D01*
X148045895Y-84863000D01*
X147937915Y-84873635D01*
X147799367Y-84915663D01*
X147671680Y-84983913D01*
X147559762Y-85075762D01*
X147536746Y-85103807D01*
X146227600Y-86412954D01*
X146227600Y-80885346D01*
X150479338Y-76633608D01*
X157645400Y-76633608D01*
X157645400Y-76848752D01*
X157687372Y-77059763D01*
X157762675Y-77241560D01*
X157687372Y-77423357D01*
X157645400Y-77634368D01*
X157645400Y-77849512D01*
X157687372Y-78060523D01*
X157762675Y-78242320D01*
X157687372Y-78424117D01*
X157645400Y-78635128D01*
X157645400Y-78850272D01*
X157687372Y-79061283D01*
X157762675Y-79243080D01*
X157687372Y-79424877D01*
X157645400Y-79635888D01*
X157645400Y-79851032D01*
X157687372Y-80062043D01*
X157762675Y-80243840D01*
X157687372Y-80425637D01*
X157645400Y-80636648D01*
X157645400Y-80851792D01*
X157687372Y-81062803D01*
X157762675Y-81244600D01*
X157687372Y-81426397D01*
X157645400Y-81637408D01*
X157645400Y-81852552D01*
X157687372Y-82063563D01*
X157762675Y-82245360D01*
X157687372Y-82427157D01*
X157645400Y-82638168D01*
X157645400Y-82853312D01*
X157687372Y-83064323D01*
X157762675Y-83246120D01*
X157687372Y-83427917D01*
X157645400Y-83638928D01*
X157645400Y-83854072D01*
X157687372Y-84065083D01*
X157769705Y-84263851D01*
X157889233Y-84442737D01*
X158041363Y-84594867D01*
X158220249Y-84714395D01*
X158419017Y-84796728D01*
X158630028Y-84838700D01*
X158845172Y-84838700D01*
X159056183Y-84796728D01*
X159254951Y-84714395D01*
X159433837Y-84594867D01*
X159585967Y-84442737D01*
X159705495Y-84263851D01*
X159787828Y-84065083D01*
X159829800Y-83854072D01*
X159829800Y-83638928D01*
X159787828Y-83427917D01*
X159712525Y-83246120D01*
X159787828Y-83064323D01*
X159829800Y-82853312D01*
X159829800Y-82638168D01*
X159787828Y-82427157D01*
X159712525Y-82245360D01*
X159787828Y-82063563D01*
X159829800Y-81852552D01*
X159829800Y-81637408D01*
X159787828Y-81426397D01*
X159712525Y-81244600D01*
X159787828Y-81062803D01*
X159829800Y-80851792D01*
X159829800Y-80636648D01*
X159787828Y-80425637D01*
X159712525Y-80243840D01*
X159787828Y-80062043D01*
X159829800Y-79851032D01*
X159829800Y-79635888D01*
X159787828Y-79424877D01*
X159712525Y-79243080D01*
X159787828Y-79061283D01*
X159829800Y-78850272D01*
X159829800Y-78635128D01*
X159787828Y-78424117D01*
X159712525Y-78242320D01*
X159787828Y-78060523D01*
X159829800Y-77849512D01*
X159829800Y-77634368D01*
X159787828Y-77423357D01*
X159712525Y-77241560D01*
X159787828Y-77059763D01*
X159829800Y-76848752D01*
X159829800Y-76633608D01*
X159787828Y-76422597D01*
X159705495Y-76223829D01*
X159644958Y-76133228D01*
X160185400Y-76133228D01*
X160185400Y-76348372D01*
X160227372Y-76559383D01*
X160302675Y-76741180D01*
X160227372Y-76922977D01*
X160185400Y-77133988D01*
X160185400Y-77349132D01*
X160227372Y-77560143D01*
X160302675Y-77741940D01*
X160227372Y-77923737D01*
X160185400Y-78134748D01*
X160185400Y-78349892D01*
X160227372Y-78560903D01*
X160302675Y-78742700D01*
X160227372Y-78924497D01*
X160185400Y-79135508D01*
X160185400Y-79350652D01*
X160227372Y-79561663D01*
X160302675Y-79743460D01*
X160227372Y-79925257D01*
X160185400Y-80136268D01*
X160185400Y-80351412D01*
X160227372Y-80562423D01*
X160302675Y-80744220D01*
X160227372Y-80926017D01*
X160185400Y-81137028D01*
X160185400Y-81352172D01*
X160227372Y-81563183D01*
X160302675Y-81744980D01*
X160227372Y-81926777D01*
X160185400Y-82137788D01*
X160185400Y-82352932D01*
X160227372Y-82563943D01*
X160302675Y-82745740D01*
X160227372Y-82927537D01*
X160185400Y-83138548D01*
X160185400Y-83353692D01*
X160227372Y-83564703D01*
X160309705Y-83763471D01*
X160429233Y-83942357D01*
X160581363Y-84094487D01*
X160760249Y-84214015D01*
X160959017Y-84296348D01*
X161170028Y-84338320D01*
X161385172Y-84338320D01*
X161596183Y-84296348D01*
X161794951Y-84214015D01*
X161973837Y-84094487D01*
X162125967Y-83942357D01*
X162245495Y-83763471D01*
X162327828Y-83564703D01*
X162369800Y-83353692D01*
X162369800Y-83138548D01*
X162327828Y-82927537D01*
X162252525Y-82745740D01*
X162327828Y-82563943D01*
X162369800Y-82352932D01*
X162369800Y-82137788D01*
X162327828Y-81926777D01*
X162252525Y-81744980D01*
X162327828Y-81563183D01*
X162369800Y-81352172D01*
X162369800Y-81137028D01*
X162327828Y-80926017D01*
X162252525Y-80744220D01*
X162327828Y-80562423D01*
X162369800Y-80351412D01*
X162369800Y-80136268D01*
X162327828Y-79925257D01*
X162252525Y-79743460D01*
X162327828Y-79561663D01*
X162369800Y-79350652D01*
X162369800Y-79135508D01*
X162327828Y-78924497D01*
X162252525Y-78742700D01*
X162327828Y-78560903D01*
X162369800Y-78349892D01*
X162369800Y-78134748D01*
X162327828Y-77923737D01*
X162252525Y-77741940D01*
X162327828Y-77560143D01*
X162369800Y-77349132D01*
X162369800Y-77133988D01*
X162327828Y-76922977D01*
X162252525Y-76741180D01*
X162327828Y-76559383D01*
X162369800Y-76348372D01*
X162369800Y-76133228D01*
X162327828Y-75922217D01*
X162245495Y-75723449D01*
X162125967Y-75544563D01*
X161973837Y-75392433D01*
X161794951Y-75272905D01*
X161596183Y-75190572D01*
X161385172Y-75148600D01*
X161170028Y-75148600D01*
X160959017Y-75190572D01*
X160760249Y-75272905D01*
X160581363Y-75392433D01*
X160429233Y-75544563D01*
X160309705Y-75723449D01*
X160227372Y-75922217D01*
X160185400Y-76133228D01*
X159644958Y-76133228D01*
X159585967Y-76044943D01*
X159433837Y-75892813D01*
X159254951Y-75773285D01*
X159056183Y-75690952D01*
X158845172Y-75648980D01*
X158630028Y-75648980D01*
X158419017Y-75690952D01*
X158220249Y-75773285D01*
X158041363Y-75892813D01*
X157889233Y-76044943D01*
X157769705Y-76223829D01*
X157687372Y-76422597D01*
X157645400Y-76633608D01*
X150479338Y-76633608D01*
X154948293Y-72164654D01*
X154976338Y-72141638D01*
X155068187Y-72029720D01*
X155136437Y-71902033D01*
X155178465Y-71763485D01*
X155189100Y-71655505D01*
X155192656Y-71619400D01*
X155189100Y-71583295D01*
X155189100Y-69190205D01*
X155192656Y-69154100D01*
X155178465Y-69010014D01*
X155165716Y-68967986D01*
X155136437Y-68871467D01*
X155068187Y-68743780D01*
X154976337Y-68631862D01*
X154948292Y-68608846D01*
X154567659Y-68228213D01*
X154544638Y-68200162D01*
X154432720Y-68108313D01*
X154305033Y-68040063D01*
X154166485Y-67998035D01*
X154058505Y-67987400D01*
X154055420Y-67987096D01*
X153942357Y-67874033D01*
X153763471Y-67754505D01*
X153564703Y-67672172D01*
X153353692Y-67630200D01*
X153138548Y-67630200D01*
X152927537Y-67672172D01*
X152745740Y-67747475D01*
X152563943Y-67672172D01*
X152352932Y-67630200D01*
X152137788Y-67630200D01*
X151926777Y-67672172D01*
X151744980Y-67747475D01*
X151563183Y-67672172D01*
X151352172Y-67630200D01*
X151137028Y-67630200D01*
X150926017Y-67672172D01*
X150744220Y-67747475D01*
X150562423Y-67672172D01*
X150351412Y-67630200D01*
X150136268Y-67630200D01*
X149925257Y-67672172D01*
X149743460Y-67747475D01*
X149561663Y-67672172D01*
X149350652Y-67630200D01*
X149135508Y-67630200D01*
X148924497Y-67672172D01*
X148742700Y-67747475D01*
X148560903Y-67672172D01*
X148349892Y-67630200D01*
X148134748Y-67630200D01*
X147923737Y-67672172D01*
X147741940Y-67747475D01*
X147560143Y-67672172D01*
X147349132Y-67630200D01*
X147133988Y-67630200D01*
X146922977Y-67672172D01*
X146741180Y-67747475D01*
X146559383Y-67672172D01*
X146348372Y-67630200D01*
X146133228Y-67630200D01*
X145922217Y-67672172D01*
X145723449Y-67754505D01*
X145544563Y-67874033D01*
X145392433Y-68026163D01*
X145272905Y-68205049D01*
X145190572Y-68403817D01*
X145148600Y-68614828D01*
X145148600Y-68829972D01*
X145190572Y-69040983D01*
X145272905Y-69239751D01*
X145392433Y-69418637D01*
X145544563Y-69570767D01*
X145723449Y-69690295D01*
X145922217Y-69772628D01*
X146133228Y-69814600D01*
X146348372Y-69814600D01*
X146559383Y-69772628D01*
X146741180Y-69697325D01*
X146922977Y-69772628D01*
X147133988Y-69814600D01*
X147349132Y-69814600D01*
X147560143Y-69772628D01*
X147741940Y-69697325D01*
X147923737Y-69772628D01*
X148134748Y-69814600D01*
X148349892Y-69814600D01*
X148560903Y-69772628D01*
X148742700Y-69697325D01*
X148924497Y-69772628D01*
X149135508Y-69814600D01*
X149350652Y-69814600D01*
X149561663Y-69772628D01*
X149743460Y-69697325D01*
X149925257Y-69772628D01*
X150097319Y-69806853D01*
X150061883Y-69873148D01*
X150042200Y-69938034D01*
X150019855Y-70011695D01*
X150005664Y-70155780D01*
X150009220Y-70191886D01*
X150009220Y-70201665D01*
X149851032Y-70170200D01*
X149635888Y-70170200D01*
X149424877Y-70212172D01*
X149243080Y-70287475D01*
X149061283Y-70212172D01*
X148850272Y-70170200D01*
X148635128Y-70170200D01*
X148424117Y-70212172D01*
X148242320Y-70287475D01*
X148060523Y-70212172D01*
X147849512Y-70170200D01*
X147634368Y-70170200D01*
X147423357Y-70212172D01*
X147241560Y-70287475D01*
X147059763Y-70212172D01*
X146848752Y-70170200D01*
X146633608Y-70170200D01*
X146422597Y-70212172D01*
X146223829Y-70294505D01*
X146044943Y-70414033D01*
X145931576Y-70527400D01*
X137815705Y-70527400D01*
X137779600Y-70523844D01*
X137635515Y-70538035D01*
X137496966Y-70580063D01*
X137369280Y-70648313D01*
X137257362Y-70740162D01*
X137234346Y-70768207D01*
X134633808Y-73368746D01*
X134605763Y-73391762D01*
X134513914Y-73503680D01*
X134445664Y-73631367D01*
X134403635Y-73769915D01*
X134389444Y-73914000D01*
X120660000Y-73914000D01*
X120660000Y-60080428D01*
X137477800Y-60080428D01*
X137477800Y-60295572D01*
X137519772Y-60506583D01*
X137602105Y-60705351D01*
X137721633Y-60884237D01*
X137873763Y-61036367D01*
X138052649Y-61155895D01*
X138251417Y-61238228D01*
X138462428Y-61280200D01*
X138677572Y-61280200D01*
X138888583Y-61238228D01*
X139087351Y-61155895D01*
X139266237Y-61036367D01*
X139379604Y-60923000D01*
X160620396Y-60923000D01*
X160733763Y-61036367D01*
X160912649Y-61155895D01*
X161111417Y-61238228D01*
X161322428Y-61280200D01*
X161537572Y-61280200D01*
X161748583Y-61238228D01*
X161947351Y-61155895D01*
X162126237Y-61036367D01*
X162278367Y-60884237D01*
X162397895Y-60705351D01*
X162480228Y-60506583D01*
X162522200Y-60295572D01*
X162522200Y-60080428D01*
X162480228Y-59869417D01*
X162397895Y-59670649D01*
X162278367Y-59491763D01*
X162126237Y-59339633D01*
X161947351Y-59220105D01*
X161748583Y-59137772D01*
X161537572Y-59095800D01*
X161322428Y-59095800D01*
X161111417Y-59137772D01*
X160912649Y-59220105D01*
X160733763Y-59339633D01*
X160620396Y-59453000D01*
X139379604Y-59453000D01*
X139266237Y-59339633D01*
X139087351Y-59220105D01*
X138888583Y-59137772D01*
X138677572Y-59095800D01*
X138462428Y-59095800D01*
X138251417Y-59137772D01*
X138052649Y-59220105D01*
X137873763Y-59339633D01*
X137721633Y-59491763D01*
X137602105Y-59670649D01*
X137519772Y-59869417D01*
X137477800Y-60080428D01*
X120660000Y-60080428D01*
X120660000Y-50660000D01*
X179340000Y-50660000D01*
X179340001Y-134340000D01*
X179340001Y-134340000D01*
G37*
X179340001Y-134340000D02*
X120660000Y-134340000D01*
X120660000Y-73914000D01*
X134389444Y-73914000D01*
X134393001Y-73950115D01*
X134393000Y-100293895D01*
X134389444Y-100330000D01*
X134403635Y-100474085D01*
X134413995Y-100508237D01*
X134445663Y-100612632D01*
X134513913Y-100740319D01*
X134605762Y-100852237D01*
X134633808Y-100875254D01*
X136933001Y-103174448D01*
X136933000Y-104935289D01*
X136864063Y-105004226D01*
X136750795Y-105173744D01*
X136672774Y-105362102D01*
X136633000Y-105562061D01*
X136633000Y-105765939D01*
X136672774Y-105965898D01*
X136750795Y-106154256D01*
X136864063Y-106323774D01*
X137008226Y-106467937D01*
X137177744Y-106581205D01*
X137366102Y-106659226D01*
X137566061Y-106699000D01*
X137769939Y-106699000D01*
X137969898Y-106659226D01*
X138158256Y-106581205D01*
X138327774Y-106467937D01*
X138471937Y-106323774D01*
X138585205Y-106154256D01*
X138663226Y-105965898D01*
X138703000Y-105765939D01*
X138703000Y-105562061D01*
X138663226Y-105362102D01*
X138585205Y-105173744D01*
X138471937Y-105004226D01*
X138403000Y-104935289D01*
X138403000Y-102906094D01*
X138406555Y-102869999D01*
X138403000Y-102833904D01*
X138403000Y-102833895D01*
X138392365Y-102725915D01*
X138350337Y-102587367D01*
X138282087Y-102459680D01*
X138190238Y-102347762D01*
X138162193Y-102324746D01*
X135863000Y-100025554D01*
X135863000Y-74218446D01*
X138084047Y-71997400D01*
X145931576Y-71997400D01*
X146044943Y-72110767D01*
X146223829Y-72230295D01*
X146422597Y-72312628D01*
X146633608Y-72354600D01*
X146848752Y-72354600D01*
X147059763Y-72312628D01*
X147241560Y-72237325D01*
X147423357Y-72312628D01*
X147634368Y-72354600D01*
X147849512Y-72354600D01*
X148060523Y-72312628D01*
X148242320Y-72237325D01*
X148424117Y-72312628D01*
X148635128Y-72354600D01*
X148850272Y-72354600D01*
X149061283Y-72312628D01*
X149242821Y-72237432D01*
X142350858Y-79129396D01*
X142312628Y-78937197D01*
X142237325Y-78755400D01*
X142312628Y-78573603D01*
X142354600Y-78362592D01*
X142354600Y-78147448D01*
X142312628Y-77936437D01*
X142237325Y-77754640D01*
X142312628Y-77572843D01*
X142354600Y-77361832D01*
X142354600Y-77146688D01*
X142312628Y-76935677D01*
X142237325Y-76753880D01*
X142312628Y-76572083D01*
X142354600Y-76361072D01*
X142354600Y-76145928D01*
X142312628Y-75934917D01*
X142230295Y-75736149D01*
X142110767Y-75557263D01*
X141958637Y-75405133D01*
X141779751Y-75285605D01*
X141580983Y-75203272D01*
X141369972Y-75161300D01*
X141154828Y-75161300D01*
X140943817Y-75203272D01*
X140745049Y-75285605D01*
X140566163Y-75405133D01*
X140452796Y-75518500D01*
X140444604Y-75518500D01*
X140408499Y-75514944D01*
X140264414Y-75529135D01*
X140222386Y-75541884D01*
X140125867Y-75571163D01*
X139998180Y-75639413D01*
X139886262Y-75731262D01*
X139863241Y-75759313D01*
X139567839Y-76054715D01*
X139418637Y-75905513D01*
X139239751Y-75785985D01*
X139040983Y-75703652D01*
X138829972Y-75661680D01*
X138614828Y-75661680D01*
X138403817Y-75703652D01*
X138205049Y-75785985D01*
X138026163Y-75905513D01*
X137874033Y-76057643D01*
X137754505Y-76236529D01*
X137672172Y-76435297D01*
X137630200Y-76646308D01*
X137630200Y-76861452D01*
X137672172Y-77072463D01*
X137747475Y-77254260D01*
X137672172Y-77436057D01*
X137630200Y-77647068D01*
X137630200Y-77862212D01*
X137672172Y-78073223D01*
X137747475Y-78255020D01*
X137672172Y-78436817D01*
X137630200Y-78647828D01*
X137630200Y-78862972D01*
X137672172Y-79073983D01*
X137747475Y-79255780D01*
X137672172Y-79437577D01*
X137630200Y-79648588D01*
X137630200Y-79863732D01*
X137672172Y-80074743D01*
X137747475Y-80256540D01*
X137672172Y-80438337D01*
X137630200Y-80649348D01*
X137630200Y-80864492D01*
X137672172Y-81075503D01*
X137747475Y-81257300D01*
X137672172Y-81439097D01*
X137630200Y-81650108D01*
X137630200Y-81865252D01*
X137672172Y-82076263D01*
X137747475Y-82258060D01*
X137672172Y-82439857D01*
X137630200Y-82650868D01*
X137630200Y-82866012D01*
X137672172Y-83077023D01*
X137747475Y-83258820D01*
X137672172Y-83440617D01*
X137630200Y-83651628D01*
X137630200Y-83866772D01*
X137672172Y-84077783D01*
X137754505Y-84276551D01*
X137874033Y-84455437D01*
X137987400Y-84568804D01*
X137987401Y-97030285D01*
X137983844Y-97066400D01*
X137998035Y-97210485D01*
X138040064Y-97349033D01*
X138108314Y-97476720D01*
X138200163Y-97588638D01*
X138228208Y-97611654D01*
X139219000Y-98602447D01*
X139219000Y-98932070D01*
X139087351Y-98844105D01*
X138888583Y-98761772D01*
X138677572Y-98719800D01*
X138462428Y-98719800D01*
X138251417Y-98761772D01*
X138052649Y-98844105D01*
X137873763Y-98963633D01*
X137721633Y-99115763D01*
X137602105Y-99294649D01*
X137519772Y-99493417D01*
X137477800Y-99704428D01*
X137477800Y-99919572D01*
X137519772Y-100130583D01*
X137602105Y-100329351D01*
X137721633Y-100508237D01*
X137873763Y-100660367D01*
X138052649Y-100779895D01*
X138251417Y-100862228D01*
X138462428Y-100904200D01*
X138677572Y-100904200D01*
X138888583Y-100862228D01*
X139087351Y-100779895D01*
X139219000Y-100691930D01*
X139219001Y-130017885D01*
X139215444Y-130054000D01*
X139229635Y-130198085D01*
X139261634Y-130303570D01*
X139271664Y-130336633D01*
X139339914Y-130464320D01*
X139431763Y-130576238D01*
X139459808Y-130599254D01*
X140754746Y-131894193D01*
X140777762Y-131922238D01*
X140889680Y-132014087D01*
X141017367Y-132082337D01*
X141155915Y-132124365D01*
X141263895Y-132135000D01*
X141263904Y-132135000D01*
X141299999Y-132138555D01*
X141336094Y-132135000D01*
X144563895Y-132135000D01*
X144600000Y-132138556D01*
X144636105Y-132135000D01*
X144744085Y-132124365D01*
X144882633Y-132082337D01*
X145010320Y-132014087D01*
X145122238Y-131922238D01*
X145145259Y-131894187D01*
X147894197Y-129145250D01*
X147922237Y-129122238D01*
X147945250Y-129094197D01*
X147945253Y-129094194D01*
X147970117Y-129063897D01*
X148014087Y-129010320D01*
X148082337Y-128882633D01*
X148124365Y-128744085D01*
X148135000Y-128636105D01*
X148135000Y-128636104D01*
X148138556Y-128600000D01*
X148135000Y-128563895D01*
X148135000Y-127853818D01*
X154847000Y-127853818D01*
X154847000Y-128326182D01*
X154939154Y-128789471D01*
X155119920Y-129225879D01*
X155382352Y-129618636D01*
X155716364Y-129952648D01*
X156109121Y-130215080D01*
X156545529Y-130395846D01*
X157008818Y-130488000D01*
X157481182Y-130488000D01*
X157944471Y-130395846D01*
X158380879Y-130215080D01*
X158773636Y-129952648D01*
X159107648Y-129618636D01*
X159370080Y-129225879D01*
X159550846Y-128789471D01*
X159643000Y-128326182D01*
X159643000Y-127853818D01*
X159550846Y-127390529D01*
X159370080Y-126954121D01*
X159107648Y-126561364D01*
X158773636Y-126227352D01*
X158380879Y-125964920D01*
X157944471Y-125784154D01*
X157481182Y-125692000D01*
X157008818Y-125692000D01*
X156545529Y-125784154D01*
X156109121Y-125964920D01*
X155716364Y-126227352D01*
X155382352Y-126561364D01*
X155119920Y-126954121D01*
X154939154Y-127390529D01*
X154847000Y-127853818D01*
X148135000Y-127853818D01*
X148135000Y-126970446D01*
X148515150Y-126590296D01*
X148543029Y-126730451D01*
X148656856Y-127005253D01*
X148822107Y-127252569D01*
X149032431Y-127462893D01*
X149279747Y-127628144D01*
X149554549Y-127741971D01*
X149846278Y-127800000D01*
X150143722Y-127800000D01*
X150435451Y-127741971D01*
X150710253Y-127628144D01*
X150957569Y-127462893D01*
X151167893Y-127252569D01*
X151333144Y-127005253D01*
X151446971Y-126730451D01*
X151505000Y-126438722D01*
X151505000Y-126141278D01*
X151446971Y-125849549D01*
X151333144Y-125574747D01*
X151167893Y-125327431D01*
X150957569Y-125117107D01*
X150710253Y-124951856D01*
X150435451Y-124838029D01*
X150295297Y-124810150D01*
X150328253Y-124777194D01*
X150328258Y-124777188D01*
X150764186Y-124341260D01*
X150792237Y-124318239D01*
X150884086Y-124206321D01*
X150920115Y-124138915D01*
X150952336Y-124078635D01*
X150994364Y-123940086D01*
X150998312Y-123900000D01*
X151104325Y-123900000D01*
X151318775Y-123857343D01*
X151520782Y-123773669D01*
X151702584Y-123652193D01*
X151745000Y-123609777D01*
X151787416Y-123652193D01*
X151969218Y-123773669D01*
X152171225Y-123857343D01*
X152385675Y-123900000D01*
X152604325Y-123900000D01*
X152818775Y-123857343D01*
X153020782Y-123773669D01*
X153202584Y-123652193D01*
X153245000Y-123609777D01*
X153287416Y-123652193D01*
X153469218Y-123773669D01*
X153671225Y-123857343D01*
X153885675Y-123900000D01*
X154065553Y-123900000D01*
X154611746Y-124446193D01*
X154634762Y-124474238D01*
X154746680Y-124566087D01*
X154874367Y-124634337D01*
X154970886Y-124663616D01*
X155012914Y-124676365D01*
X155027132Y-124677765D01*
X155120895Y-124687000D01*
X155120902Y-124687000D01*
X155156999Y-124690555D01*
X155193096Y-124687000D01*
X159475895Y-124687000D01*
X159512000Y-124690556D01*
X159548105Y-124687000D01*
X159656085Y-124676365D01*
X159794633Y-124634337D01*
X159922320Y-124566087D01*
X160034238Y-124474238D01*
X160057259Y-124446187D01*
X165086197Y-119417249D01*
X165114237Y-119394238D01*
X165137250Y-119366197D01*
X165137253Y-119366194D01*
X165162117Y-119335897D01*
X165206087Y-119282320D01*
X165274337Y-119154633D01*
X165316365Y-119016085D01*
X165327000Y-118908105D01*
X165327000Y-118908104D01*
X165330556Y-118872000D01*
X165327000Y-118835895D01*
X165327000Y-92746105D01*
X165330556Y-92710000D01*
X165316365Y-92565915D01*
X165274337Y-92427367D01*
X165206087Y-92299680D01*
X165114238Y-92187762D01*
X165086193Y-92164746D01*
X158025259Y-85103813D01*
X158002238Y-85075762D01*
X157890320Y-84983913D01*
X157762633Y-84915663D01*
X157624085Y-84873635D01*
X157516105Y-84863000D01*
X157480000Y-84859444D01*
X157443895Y-84863000D01*
X148118094Y-84863000D01*
X148081999Y-84859445D01*
X148045904Y-84863000D01*
X148045895Y-84863000D01*
X147937915Y-84873635D01*
X147799367Y-84915663D01*
X147671680Y-84983913D01*
X147559762Y-85075762D01*
X147536746Y-85103807D01*
X146227600Y-86412954D01*
X146227600Y-80885346D01*
X150479338Y-76633608D01*
X157645400Y-76633608D01*
X157645400Y-76848752D01*
X157687372Y-77059763D01*
X157762675Y-77241560D01*
X157687372Y-77423357D01*
X157645400Y-77634368D01*
X157645400Y-77849512D01*
X157687372Y-78060523D01*
X157762675Y-78242320D01*
X157687372Y-78424117D01*
X157645400Y-78635128D01*
X157645400Y-78850272D01*
X157687372Y-79061283D01*
X157762675Y-79243080D01*
X157687372Y-79424877D01*
X157645400Y-79635888D01*
X157645400Y-79851032D01*
X157687372Y-80062043D01*
X157762675Y-80243840D01*
X157687372Y-80425637D01*
X157645400Y-80636648D01*
X157645400Y-80851792D01*
X157687372Y-81062803D01*
X157762675Y-81244600D01*
X157687372Y-81426397D01*
X157645400Y-81637408D01*
X157645400Y-81852552D01*
X157687372Y-82063563D01*
X157762675Y-82245360D01*
X157687372Y-82427157D01*
X157645400Y-82638168D01*
X157645400Y-82853312D01*
X157687372Y-83064323D01*
X157762675Y-83246120D01*
X157687372Y-83427917D01*
X157645400Y-83638928D01*
X157645400Y-83854072D01*
X157687372Y-84065083D01*
X157769705Y-84263851D01*
X157889233Y-84442737D01*
X158041363Y-84594867D01*
X158220249Y-84714395D01*
X158419017Y-84796728D01*
X158630028Y-84838700D01*
X158845172Y-84838700D01*
X159056183Y-84796728D01*
X159254951Y-84714395D01*
X159433837Y-84594867D01*
X159585967Y-84442737D01*
X159705495Y-84263851D01*
X159787828Y-84065083D01*
X159829800Y-83854072D01*
X159829800Y-83638928D01*
X159787828Y-83427917D01*
X159712525Y-83246120D01*
X159787828Y-83064323D01*
X159829800Y-82853312D01*
X159829800Y-82638168D01*
X159787828Y-82427157D01*
X159712525Y-82245360D01*
X159787828Y-82063563D01*
X159829800Y-81852552D01*
X159829800Y-81637408D01*
X159787828Y-81426397D01*
X159712525Y-81244600D01*
X159787828Y-81062803D01*
X159829800Y-80851792D01*
X159829800Y-80636648D01*
X159787828Y-80425637D01*
X159712525Y-80243840D01*
X159787828Y-80062043D01*
X159829800Y-79851032D01*
X159829800Y-79635888D01*
X159787828Y-79424877D01*
X159712525Y-79243080D01*
X159787828Y-79061283D01*
X159829800Y-78850272D01*
X159829800Y-78635128D01*
X159787828Y-78424117D01*
X159712525Y-78242320D01*
X159787828Y-78060523D01*
X159829800Y-77849512D01*
X159829800Y-77634368D01*
X159787828Y-77423357D01*
X159712525Y-77241560D01*
X159787828Y-77059763D01*
X159829800Y-76848752D01*
X159829800Y-76633608D01*
X159787828Y-76422597D01*
X159705495Y-76223829D01*
X159644958Y-76133228D01*
X160185400Y-76133228D01*
X160185400Y-76348372D01*
X160227372Y-76559383D01*
X160302675Y-76741180D01*
X160227372Y-76922977D01*
X160185400Y-77133988D01*
X160185400Y-77349132D01*
X160227372Y-77560143D01*
X160302675Y-77741940D01*
X160227372Y-77923737D01*
X160185400Y-78134748D01*
X160185400Y-78349892D01*
X160227372Y-78560903D01*
X160302675Y-78742700D01*
X160227372Y-78924497D01*
X160185400Y-79135508D01*
X160185400Y-79350652D01*
X160227372Y-79561663D01*
X160302675Y-79743460D01*
X160227372Y-79925257D01*
X160185400Y-80136268D01*
X160185400Y-80351412D01*
X160227372Y-80562423D01*
X160302675Y-80744220D01*
X160227372Y-80926017D01*
X160185400Y-81137028D01*
X160185400Y-81352172D01*
X160227372Y-81563183D01*
X160302675Y-81744980D01*
X160227372Y-81926777D01*
X160185400Y-82137788D01*
X160185400Y-82352932D01*
X160227372Y-82563943D01*
X160302675Y-82745740D01*
X160227372Y-82927537D01*
X160185400Y-83138548D01*
X160185400Y-83353692D01*
X160227372Y-83564703D01*
X160309705Y-83763471D01*
X160429233Y-83942357D01*
X160581363Y-84094487D01*
X160760249Y-84214015D01*
X160959017Y-84296348D01*
X161170028Y-84338320D01*
X161385172Y-84338320D01*
X161596183Y-84296348D01*
X161794951Y-84214015D01*
X161973837Y-84094487D01*
X162125967Y-83942357D01*
X162245495Y-83763471D01*
X162327828Y-83564703D01*
X162369800Y-83353692D01*
X162369800Y-83138548D01*
X162327828Y-82927537D01*
X162252525Y-82745740D01*
X162327828Y-82563943D01*
X162369800Y-82352932D01*
X162369800Y-82137788D01*
X162327828Y-81926777D01*
X162252525Y-81744980D01*
X162327828Y-81563183D01*
X162369800Y-81352172D01*
X162369800Y-81137028D01*
X162327828Y-80926017D01*
X162252525Y-80744220D01*
X162327828Y-80562423D01*
X162369800Y-80351412D01*
X162369800Y-80136268D01*
X162327828Y-79925257D01*
X162252525Y-79743460D01*
X162327828Y-79561663D01*
X162369800Y-79350652D01*
X162369800Y-79135508D01*
X162327828Y-78924497D01*
X162252525Y-78742700D01*
X162327828Y-78560903D01*
X162369800Y-78349892D01*
X162369800Y-78134748D01*
X162327828Y-77923737D01*
X162252525Y-77741940D01*
X162327828Y-77560143D01*
X162369800Y-77349132D01*
X162369800Y-77133988D01*
X162327828Y-76922977D01*
X162252525Y-76741180D01*
X162327828Y-76559383D01*
X162369800Y-76348372D01*
X162369800Y-76133228D01*
X162327828Y-75922217D01*
X162245495Y-75723449D01*
X162125967Y-75544563D01*
X161973837Y-75392433D01*
X161794951Y-75272905D01*
X161596183Y-75190572D01*
X161385172Y-75148600D01*
X161170028Y-75148600D01*
X160959017Y-75190572D01*
X160760249Y-75272905D01*
X160581363Y-75392433D01*
X160429233Y-75544563D01*
X160309705Y-75723449D01*
X160227372Y-75922217D01*
X160185400Y-76133228D01*
X159644958Y-76133228D01*
X159585967Y-76044943D01*
X159433837Y-75892813D01*
X159254951Y-75773285D01*
X159056183Y-75690952D01*
X158845172Y-75648980D01*
X158630028Y-75648980D01*
X158419017Y-75690952D01*
X158220249Y-75773285D01*
X158041363Y-75892813D01*
X157889233Y-76044943D01*
X157769705Y-76223829D01*
X157687372Y-76422597D01*
X157645400Y-76633608D01*
X150479338Y-76633608D01*
X154948293Y-72164654D01*
X154976338Y-72141638D01*
X155068187Y-72029720D01*
X155136437Y-71902033D01*
X155178465Y-71763485D01*
X155189100Y-71655505D01*
X155192656Y-71619400D01*
X155189100Y-71583295D01*
X155189100Y-69190205D01*
X155192656Y-69154100D01*
X155178465Y-69010014D01*
X155165716Y-68967986D01*
X155136437Y-68871467D01*
X155068187Y-68743780D01*
X154976337Y-68631862D01*
X154948292Y-68608846D01*
X154567659Y-68228213D01*
X154544638Y-68200162D01*
X154432720Y-68108313D01*
X154305033Y-68040063D01*
X154166485Y-67998035D01*
X154058505Y-67987400D01*
X154055420Y-67987096D01*
X153942357Y-67874033D01*
X153763471Y-67754505D01*
X153564703Y-67672172D01*
X153353692Y-67630200D01*
X153138548Y-67630200D01*
X152927537Y-67672172D01*
X152745740Y-67747475D01*
X152563943Y-67672172D01*
X152352932Y-67630200D01*
X152137788Y-67630200D01*
X151926777Y-67672172D01*
X151744980Y-67747475D01*
X151563183Y-67672172D01*
X151352172Y-67630200D01*
X151137028Y-67630200D01*
X150926017Y-67672172D01*
X150744220Y-67747475D01*
X150562423Y-67672172D01*
X150351412Y-67630200D01*
X150136268Y-67630200D01*
X149925257Y-67672172D01*
X149743460Y-67747475D01*
X149561663Y-67672172D01*
X149350652Y-67630200D01*
X149135508Y-67630200D01*
X148924497Y-67672172D01*
X148742700Y-67747475D01*
X148560903Y-67672172D01*
X148349892Y-67630200D01*
X148134748Y-67630200D01*
X147923737Y-67672172D01*
X147741940Y-67747475D01*
X147560143Y-67672172D01*
X147349132Y-67630200D01*
X147133988Y-67630200D01*
X146922977Y-67672172D01*
X146741180Y-67747475D01*
X146559383Y-67672172D01*
X146348372Y-67630200D01*
X146133228Y-67630200D01*
X145922217Y-67672172D01*
X145723449Y-67754505D01*
X145544563Y-67874033D01*
X145392433Y-68026163D01*
X145272905Y-68205049D01*
X145190572Y-68403817D01*
X145148600Y-68614828D01*
X145148600Y-68829972D01*
X145190572Y-69040983D01*
X145272905Y-69239751D01*
X145392433Y-69418637D01*
X145544563Y-69570767D01*
X145723449Y-69690295D01*
X145922217Y-69772628D01*
X146133228Y-69814600D01*
X146348372Y-69814600D01*
X146559383Y-69772628D01*
X146741180Y-69697325D01*
X146922977Y-69772628D01*
X147133988Y-69814600D01*
X147349132Y-69814600D01*
X147560143Y-69772628D01*
X147741940Y-69697325D01*
X147923737Y-69772628D01*
X148134748Y-69814600D01*
X148349892Y-69814600D01*
X148560903Y-69772628D01*
X148742700Y-69697325D01*
X148924497Y-69772628D01*
X149135508Y-69814600D01*
X149350652Y-69814600D01*
X149561663Y-69772628D01*
X149743460Y-69697325D01*
X149925257Y-69772628D01*
X150097319Y-69806853D01*
X150061883Y-69873148D01*
X150042200Y-69938034D01*
X150019855Y-70011695D01*
X150005664Y-70155780D01*
X150009220Y-70191886D01*
X150009220Y-70201665D01*
X149851032Y-70170200D01*
X149635888Y-70170200D01*
X149424877Y-70212172D01*
X149243080Y-70287475D01*
X149061283Y-70212172D01*
X148850272Y-70170200D01*
X148635128Y-70170200D01*
X148424117Y-70212172D01*
X148242320Y-70287475D01*
X148060523Y-70212172D01*
X147849512Y-70170200D01*
X147634368Y-70170200D01*
X147423357Y-70212172D01*
X147241560Y-70287475D01*
X147059763Y-70212172D01*
X146848752Y-70170200D01*
X146633608Y-70170200D01*
X146422597Y-70212172D01*
X146223829Y-70294505D01*
X146044943Y-70414033D01*
X145931576Y-70527400D01*
X137815705Y-70527400D01*
X137779600Y-70523844D01*
X137635515Y-70538035D01*
X137496966Y-70580063D01*
X137369280Y-70648313D01*
X137257362Y-70740162D01*
X137234346Y-70768207D01*
X134633808Y-73368746D01*
X134605763Y-73391762D01*
X134513914Y-73503680D01*
X134445664Y-73631367D01*
X134403635Y-73769915D01*
X134389444Y-73914000D01*
X120660000Y-73914000D01*
X120660000Y-60080428D01*
X137477800Y-60080428D01*
X137477800Y-60295572D01*
X137519772Y-60506583D01*
X137602105Y-60705351D01*
X137721633Y-60884237D01*
X137873763Y-61036367D01*
X138052649Y-61155895D01*
X138251417Y-61238228D01*
X138462428Y-61280200D01*
X138677572Y-61280200D01*
X138888583Y-61238228D01*
X139087351Y-61155895D01*
X139266237Y-61036367D01*
X139379604Y-60923000D01*
X160620396Y-60923000D01*
X160733763Y-61036367D01*
X160912649Y-61155895D01*
X161111417Y-61238228D01*
X161322428Y-61280200D01*
X161537572Y-61280200D01*
X161748583Y-61238228D01*
X161947351Y-61155895D01*
X162126237Y-61036367D01*
X162278367Y-60884237D01*
X162397895Y-60705351D01*
X162480228Y-60506583D01*
X162522200Y-60295572D01*
X162522200Y-60080428D01*
X162480228Y-59869417D01*
X162397895Y-59670649D01*
X162278367Y-59491763D01*
X162126237Y-59339633D01*
X161947351Y-59220105D01*
X161748583Y-59137772D01*
X161537572Y-59095800D01*
X161322428Y-59095800D01*
X161111417Y-59137772D01*
X160912649Y-59220105D01*
X160733763Y-59339633D01*
X160620396Y-59453000D01*
X139379604Y-59453000D01*
X139266237Y-59339633D01*
X139087351Y-59220105D01*
X138888583Y-59137772D01*
X138677572Y-59095800D01*
X138462428Y-59095800D01*
X138251417Y-59137772D01*
X138052649Y-59220105D01*
X137873763Y-59339633D01*
X137721633Y-59491763D01*
X137602105Y-59670649D01*
X137519772Y-59869417D01*
X137477800Y-60080428D01*
X120660000Y-60080428D01*
X120660000Y-50660000D01*
X179340000Y-50660000D01*
X179340001Y-134340000D01*
G36*
X152427157Y-72312628D02*
G01*
X152638168Y-72354600D01*
X152679453Y-72354600D01*
X144998408Y-80035646D01*
X144970362Y-80058663D01*
X144878513Y-80170581D01*
X144810263Y-80298268D01*
X144780984Y-80394787D01*
X144768235Y-80436815D01*
X144754044Y-80580900D01*
X144757600Y-80617005D01*
X144757601Y-116514385D01*
X144754044Y-116550500D01*
X144768235Y-116694585D01*
X144810264Y-116833133D01*
X144878514Y-116960820D01*
X144970363Y-117072738D01*
X144998408Y-117095754D01*
X146760000Y-118857347D01*
X146760000Y-118955223D01*
X146745000Y-118970223D01*
X146702584Y-118927807D01*
X146520782Y-118806331D01*
X146318775Y-118722657D01*
X146104325Y-118680000D01*
X145885675Y-118680000D01*
X145671225Y-118722657D01*
X145469218Y-118806331D01*
X145287416Y-118927807D01*
X145224839Y-118990384D01*
X145107371Y-118770618D01*
X144721972Y-118532634D01*
X142924605Y-120330000D01*
X144721972Y-122127366D01*
X144747083Y-122111860D01*
X144787416Y-122152193D01*
X144969218Y-122273669D01*
X145171225Y-122357343D01*
X145385675Y-122400000D01*
X145453798Y-122400000D01*
X145435502Y-122441410D01*
X145387853Y-122654805D01*
X145382751Y-122873397D01*
X145420393Y-123088784D01*
X145499331Y-123292689D01*
X145523866Y-123338590D01*
X145734752Y-123370643D01*
X146315395Y-122790000D01*
X146301253Y-122775858D01*
X146480858Y-122596253D01*
X146495000Y-122610395D01*
X146509143Y-122596253D01*
X146688748Y-122775858D01*
X146674605Y-122790000D01*
X146688748Y-122804143D01*
X146509143Y-122983748D01*
X146495000Y-122969605D01*
X145914357Y-123550248D01*
X145946410Y-123761134D01*
X146146410Y-123849498D01*
X146359805Y-123897147D01*
X146578397Y-123902249D01*
X146793784Y-123864607D01*
X146997689Y-123785669D01*
X147043590Y-123761134D01*
X147075643Y-123550251D01*
X147193448Y-123668056D01*
X147248364Y-123613141D01*
X147287416Y-123652193D01*
X147469218Y-123773669D01*
X147671225Y-123857343D01*
X147885675Y-123900000D01*
X148104325Y-123900000D01*
X148318775Y-123857343D01*
X148520782Y-123773669D01*
X148702584Y-123652193D01*
X148745000Y-123609777D01*
X148787416Y-123652193D01*
X148969218Y-123773669D01*
X149169800Y-123856753D01*
X146905808Y-126120746D01*
X146877763Y-126143762D01*
X146785914Y-126255680D01*
X146717664Y-126383367D01*
X146675635Y-126521915D01*
X146661444Y-126666000D01*
X146665001Y-126702115D01*
X146665000Y-128295553D01*
X144295554Y-130665000D01*
X141604447Y-130665000D01*
X140708307Y-129768860D01*
X141245745Y-129768860D01*
X141433384Y-130111349D01*
X141852932Y-130328392D01*
X142306761Y-130459417D01*
X142777433Y-130499385D01*
X143246857Y-130446762D01*
X143696996Y-130303570D01*
X144056616Y-130111349D01*
X144244255Y-129768860D01*
X142745000Y-128269605D01*
X141245745Y-129768860D01*
X140708307Y-129768860D01*
X140689000Y-129749554D01*
X140689000Y-129336789D01*
X140723651Y-129401616D01*
X141066140Y-129589255D01*
X142565395Y-128090000D01*
X142924605Y-128090000D01*
X144423860Y-129589255D01*
X144766349Y-129401616D01*
X144983392Y-128982068D01*
X145114417Y-128528239D01*
X145154385Y-128057567D01*
X145101762Y-127588143D01*
X144958570Y-127138004D01*
X144766349Y-126778384D01*
X144423860Y-126590745D01*
X142924605Y-128090000D01*
X142565395Y-128090000D01*
X141066140Y-126590745D01*
X140723651Y-126778384D01*
X140689000Y-126845365D01*
X140689000Y-126411140D01*
X141245745Y-126411140D01*
X142745000Y-127910395D01*
X144244255Y-126411140D01*
X144056616Y-126068651D01*
X143637068Y-125851608D01*
X143183239Y-125720583D01*
X142712567Y-125680615D01*
X142243143Y-125733238D01*
X141793004Y-125876430D01*
X141433384Y-126068651D01*
X141245745Y-126411140D01*
X140689000Y-126411140D01*
X140689000Y-122306972D01*
X140947634Y-122306972D01*
X141185618Y-122692371D01*
X141676456Y-122951199D01*
X142208358Y-123109296D01*
X142760884Y-123160586D01*
X143312799Y-123103098D01*
X143842894Y-122939042D01*
X144304382Y-122692371D01*
X144542366Y-122306972D01*
X142745000Y-120509605D01*
X140947634Y-122306972D01*
X140689000Y-122306972D01*
X140689000Y-122078566D01*
X140768028Y-122127366D01*
X142565395Y-120330000D01*
X140768028Y-118532634D01*
X140689000Y-118581434D01*
X140689000Y-118353028D01*
X140947634Y-118353028D01*
X142745000Y-120150395D01*
X144542366Y-118353028D01*
X144304382Y-117967629D01*
X143813544Y-117708801D01*
X143281642Y-117550704D01*
X142729116Y-117499414D01*
X142177201Y-117556902D01*
X141647106Y-117720958D01*
X141185618Y-117967629D01*
X140947634Y-118353028D01*
X140689000Y-118353028D01*
X140689000Y-111926711D01*
X140818226Y-112055937D01*
X140987744Y-112169205D01*
X141176102Y-112247226D01*
X141376061Y-112287000D01*
X141579939Y-112287000D01*
X141779898Y-112247226D01*
X141968256Y-112169205D01*
X142137774Y-112055937D01*
X142281937Y-111911774D01*
X142395205Y-111742256D01*
X142473226Y-111553898D01*
X142513000Y-111353939D01*
X142513000Y-111150061D01*
X142473226Y-110950102D01*
X142395205Y-110761744D01*
X142281937Y-110592226D01*
X142213000Y-110523289D01*
X142213000Y-105532199D01*
X142218863Y-105540974D01*
X142363026Y-105685137D01*
X142532544Y-105798405D01*
X142720902Y-105876426D01*
X142920861Y-105916200D01*
X143124739Y-105916200D01*
X143324698Y-105876426D01*
X143513056Y-105798405D01*
X143682574Y-105685137D01*
X143826737Y-105540974D01*
X143940005Y-105371456D01*
X144018026Y-105183098D01*
X144057800Y-104983139D01*
X144057800Y-104779261D01*
X144018026Y-104579302D01*
X143940005Y-104390944D01*
X143826737Y-104221426D01*
X143757800Y-104152489D01*
X143757800Y-82606905D01*
X143761356Y-82570800D01*
X143747165Y-82426715D01*
X143705137Y-82288166D01*
X143636887Y-82160480D01*
X143568053Y-82076606D01*
X143545038Y-82048562D01*
X143516993Y-82025546D01*
X142525296Y-81033850D01*
X151238398Y-72320749D01*
X151266437Y-72297738D01*
X151289450Y-72269697D01*
X151289453Y-72269694D01*
X151297899Y-72259402D01*
X151426397Y-72312628D01*
X151637408Y-72354600D01*
X151852552Y-72354600D01*
X152063563Y-72312628D01*
X152245360Y-72237325D01*
X152427157Y-72312628D01*
X152427157Y-72312628D01*
G37*
X152427157Y-72312628D02*
X152638168Y-72354600D01*
X152679453Y-72354600D01*
X144998408Y-80035646D01*
X144970362Y-80058663D01*
X144878513Y-80170581D01*
X144810263Y-80298268D01*
X144780984Y-80394787D01*
X144768235Y-80436815D01*
X144754044Y-80580900D01*
X144757600Y-80617005D01*
X144757601Y-116514385D01*
X144754044Y-116550500D01*
X144768235Y-116694585D01*
X144810264Y-116833133D01*
X144878514Y-116960820D01*
X144970363Y-117072738D01*
X144998408Y-117095754D01*
X146760000Y-118857347D01*
X146760000Y-118955223D01*
X146745000Y-118970223D01*
X146702584Y-118927807D01*
X146520782Y-118806331D01*
X146318775Y-118722657D01*
X146104325Y-118680000D01*
X145885675Y-118680000D01*
X145671225Y-118722657D01*
X145469218Y-118806331D01*
X145287416Y-118927807D01*
X145224839Y-118990384D01*
X145107371Y-118770618D01*
X144721972Y-118532634D01*
X142924605Y-120330000D01*
X144721972Y-122127366D01*
X144747083Y-122111860D01*
X144787416Y-122152193D01*
X144969218Y-122273669D01*
X145171225Y-122357343D01*
X145385675Y-122400000D01*
X145453798Y-122400000D01*
X145435502Y-122441410D01*
X145387853Y-122654805D01*
X145382751Y-122873397D01*
X145420393Y-123088784D01*
X145499331Y-123292689D01*
X145523866Y-123338590D01*
X145734752Y-123370643D01*
X146315395Y-122790000D01*
X146301253Y-122775858D01*
X146480858Y-122596253D01*
X146495000Y-122610395D01*
X146509143Y-122596253D01*
X146688748Y-122775858D01*
X146674605Y-122790000D01*
X146688748Y-122804143D01*
X146509143Y-122983748D01*
X146495000Y-122969605D01*
X145914357Y-123550248D01*
X145946410Y-123761134D01*
X146146410Y-123849498D01*
X146359805Y-123897147D01*
X146578397Y-123902249D01*
X146793784Y-123864607D01*
X146997689Y-123785669D01*
X147043590Y-123761134D01*
X147075643Y-123550251D01*
X147193448Y-123668056D01*
X147248364Y-123613141D01*
X147287416Y-123652193D01*
X147469218Y-123773669D01*
X147671225Y-123857343D01*
X147885675Y-123900000D01*
X148104325Y-123900000D01*
X148318775Y-123857343D01*
X148520782Y-123773669D01*
X148702584Y-123652193D01*
X148745000Y-123609777D01*
X148787416Y-123652193D01*
X148969218Y-123773669D01*
X149169800Y-123856753D01*
X146905808Y-126120746D01*
X146877763Y-126143762D01*
X146785914Y-126255680D01*
X146717664Y-126383367D01*
X146675635Y-126521915D01*
X146661444Y-126666000D01*
X146665001Y-126702115D01*
X146665000Y-128295553D01*
X144295554Y-130665000D01*
X141604447Y-130665000D01*
X140708307Y-129768860D01*
X141245745Y-129768860D01*
X141433384Y-130111349D01*
X141852932Y-130328392D01*
X142306761Y-130459417D01*
X142777433Y-130499385D01*
X143246857Y-130446762D01*
X143696996Y-130303570D01*
X144056616Y-130111349D01*
X144244255Y-129768860D01*
X142745000Y-128269605D01*
X141245745Y-129768860D01*
X140708307Y-129768860D01*
X140689000Y-129749554D01*
X140689000Y-129336789D01*
X140723651Y-129401616D01*
X141066140Y-129589255D01*
X142565395Y-128090000D01*
X142924605Y-128090000D01*
X144423860Y-129589255D01*
X144766349Y-129401616D01*
X144983392Y-128982068D01*
X145114417Y-128528239D01*
X145154385Y-128057567D01*
X145101762Y-127588143D01*
X144958570Y-127138004D01*
X144766349Y-126778384D01*
X144423860Y-126590745D01*
X142924605Y-128090000D01*
X142565395Y-128090000D01*
X141066140Y-126590745D01*
X140723651Y-126778384D01*
X140689000Y-126845365D01*
X140689000Y-126411140D01*
X141245745Y-126411140D01*
X142745000Y-127910395D01*
X144244255Y-126411140D01*
X144056616Y-126068651D01*
X143637068Y-125851608D01*
X143183239Y-125720583D01*
X142712567Y-125680615D01*
X142243143Y-125733238D01*
X141793004Y-125876430D01*
X141433384Y-126068651D01*
X141245745Y-126411140D01*
X140689000Y-126411140D01*
X140689000Y-122306972D01*
X140947634Y-122306972D01*
X141185618Y-122692371D01*
X141676456Y-122951199D01*
X142208358Y-123109296D01*
X142760884Y-123160586D01*
X143312799Y-123103098D01*
X143842894Y-122939042D01*
X144304382Y-122692371D01*
X144542366Y-122306972D01*
X142745000Y-120509605D01*
X140947634Y-122306972D01*
X140689000Y-122306972D01*
X140689000Y-122078566D01*
X140768028Y-122127366D01*
X142565395Y-120330000D01*
X140768028Y-118532634D01*
X140689000Y-118581434D01*
X140689000Y-118353028D01*
X140947634Y-118353028D01*
X142745000Y-120150395D01*
X144542366Y-118353028D01*
X144304382Y-117967629D01*
X143813544Y-117708801D01*
X143281642Y-117550704D01*
X142729116Y-117499414D01*
X142177201Y-117556902D01*
X141647106Y-117720958D01*
X141185618Y-117967629D01*
X140947634Y-118353028D01*
X140689000Y-118353028D01*
X140689000Y-111926711D01*
X140818226Y-112055937D01*
X140987744Y-112169205D01*
X141176102Y-112247226D01*
X141376061Y-112287000D01*
X141579939Y-112287000D01*
X141779898Y-112247226D01*
X141968256Y-112169205D01*
X142137774Y-112055937D01*
X142281937Y-111911774D01*
X142395205Y-111742256D01*
X142473226Y-111553898D01*
X142513000Y-111353939D01*
X142513000Y-111150061D01*
X142473226Y-110950102D01*
X142395205Y-110761744D01*
X142281937Y-110592226D01*
X142213000Y-110523289D01*
X142213000Y-105532199D01*
X142218863Y-105540974D01*
X142363026Y-105685137D01*
X142532544Y-105798405D01*
X142720902Y-105876426D01*
X142920861Y-105916200D01*
X143124739Y-105916200D01*
X143324698Y-105876426D01*
X143513056Y-105798405D01*
X143682574Y-105685137D01*
X143826737Y-105540974D01*
X143940005Y-105371456D01*
X144018026Y-105183098D01*
X144057800Y-104983139D01*
X144057800Y-104779261D01*
X144018026Y-104579302D01*
X143940005Y-104390944D01*
X143826737Y-104221426D01*
X143757800Y-104152489D01*
X143757800Y-82606905D01*
X143761356Y-82570800D01*
X143747165Y-82426715D01*
X143705137Y-82288166D01*
X143636887Y-82160480D01*
X143568053Y-82076606D01*
X143545038Y-82048562D01*
X143516993Y-82025546D01*
X142525296Y-81033850D01*
X151238398Y-72320749D01*
X151266437Y-72297738D01*
X151289450Y-72269697D01*
X151289453Y-72269694D01*
X151297899Y-72259402D01*
X151426397Y-72312628D01*
X151637408Y-72354600D01*
X151852552Y-72354600D01*
X152063563Y-72312628D01*
X152245360Y-72237325D01*
X152427157Y-72312628D01*
G36*
X163857001Y-93014448D02*
G01*
X163857000Y-118567553D01*
X159207554Y-123217000D01*
X155461447Y-123217000D01*
X155105000Y-122860553D01*
X155105000Y-122680675D01*
X155062343Y-122466225D01*
X154988178Y-122287174D01*
X155020782Y-122273669D01*
X155131110Y-122199950D01*
X155449267Y-122518107D01*
X155910650Y-122826393D01*
X156423311Y-123038744D01*
X156967550Y-123147000D01*
X157522450Y-123147000D01*
X158066689Y-123038744D01*
X158579350Y-122826393D01*
X159040733Y-122518107D01*
X159433107Y-122125733D01*
X159741393Y-121664350D01*
X159953744Y-121151689D01*
X160062000Y-120607450D01*
X160062000Y-120052550D01*
X159953744Y-119508311D01*
X159741393Y-118995650D01*
X159433107Y-118534267D01*
X159040733Y-118141893D01*
X158579350Y-117833607D01*
X158066689Y-117621256D01*
X157522450Y-117513000D01*
X156967550Y-117513000D01*
X156423311Y-117621256D01*
X155910650Y-117833607D01*
X155449267Y-118141893D01*
X155230000Y-118361160D01*
X155230000Y-102715105D01*
X155233556Y-102679000D01*
X155219365Y-102534915D01*
X155177337Y-102396366D01*
X155109087Y-102268680D01*
X155040253Y-102184806D01*
X155017238Y-102156762D01*
X154989193Y-102133746D01*
X153493440Y-100637994D01*
X153493440Y-100559486D01*
X160862119Y-100559486D01*
X160891994Y-100768568D01*
X161088948Y-100855148D01*
X161299010Y-100901640D01*
X161514105Y-100906258D01*
X161725969Y-100868824D01*
X161926458Y-100790777D01*
X161968006Y-100768568D01*
X161997881Y-100559486D01*
X161430000Y-99991605D01*
X160862119Y-100559486D01*
X153493440Y-100559486D01*
X153493440Y-99896105D01*
X160335742Y-99896105D01*
X160373176Y-100107969D01*
X160451223Y-100308458D01*
X160473432Y-100350006D01*
X160682514Y-100379881D01*
X161250395Y-99812000D01*
X161609605Y-99812000D01*
X162177486Y-100379881D01*
X162386568Y-100350006D01*
X162473148Y-100153052D01*
X162519640Y-99942990D01*
X162524258Y-99727895D01*
X162486824Y-99516031D01*
X162408777Y-99315542D01*
X162386568Y-99273994D01*
X162177486Y-99244119D01*
X161609605Y-99812000D01*
X161250395Y-99812000D01*
X160682514Y-99244119D01*
X160473432Y-99273994D01*
X160386852Y-99470948D01*
X160340360Y-99681010D01*
X160335742Y-99896105D01*
X153493440Y-99896105D01*
X153493440Y-99064514D01*
X160862119Y-99064514D01*
X161430000Y-99632395D01*
X161997881Y-99064514D01*
X161968006Y-98855432D01*
X161771052Y-98768852D01*
X161560990Y-98722360D01*
X161345895Y-98717742D01*
X161134031Y-98755176D01*
X160933542Y-98833223D01*
X160891994Y-98855432D01*
X160862119Y-99064514D01*
X153493440Y-99064514D01*
X153493440Y-92338335D01*
X153651628Y-92369800D01*
X153866772Y-92369800D01*
X154077783Y-92327828D01*
X154276551Y-92245495D01*
X154455437Y-92125967D01*
X154607567Y-91973837D01*
X154727095Y-91794951D01*
X154809428Y-91596183D01*
X154851400Y-91385172D01*
X154851400Y-91170028D01*
X154809428Y-90959017D01*
X154727095Y-90760249D01*
X154607567Y-90581363D01*
X154455437Y-90429233D01*
X154276551Y-90309705D01*
X154077783Y-90227372D01*
X153866772Y-90185400D01*
X153651628Y-90185400D01*
X153440617Y-90227372D01*
X153258820Y-90302675D01*
X153077023Y-90227372D01*
X152866012Y-90185400D01*
X152650868Y-90185400D01*
X152439857Y-90227372D01*
X152258060Y-90302675D01*
X152076263Y-90227372D01*
X151865252Y-90185400D01*
X151650108Y-90185400D01*
X151439097Y-90227372D01*
X151257300Y-90302675D01*
X151075503Y-90227372D01*
X150864492Y-90185400D01*
X150649348Y-90185400D01*
X150438337Y-90227372D01*
X150256540Y-90302675D01*
X150074743Y-90227372D01*
X149863732Y-90185400D01*
X149648588Y-90185400D01*
X149437577Y-90227372D01*
X149255780Y-90302675D01*
X149073983Y-90227372D01*
X148862972Y-90185400D01*
X148647828Y-90185400D01*
X148436817Y-90227372D01*
X148255020Y-90302675D01*
X148073223Y-90227372D01*
X147862212Y-90185400D01*
X147647068Y-90185400D01*
X147436057Y-90227372D01*
X147254260Y-90302675D01*
X147072463Y-90227372D01*
X146861452Y-90185400D01*
X146646308Y-90185400D01*
X146435297Y-90227372D01*
X146236529Y-90309705D01*
X146227600Y-90315671D01*
X146227600Y-89829800D01*
X146361072Y-89829800D01*
X146572083Y-89787828D01*
X146753880Y-89712525D01*
X146935677Y-89787828D01*
X147146688Y-89829800D01*
X147361832Y-89829800D01*
X147572843Y-89787828D01*
X147754640Y-89712525D01*
X147936437Y-89787828D01*
X148147448Y-89829800D01*
X148362592Y-89829800D01*
X148573603Y-89787828D01*
X148755400Y-89712525D01*
X148937197Y-89787828D01*
X149148208Y-89829800D01*
X149363352Y-89829800D01*
X149574363Y-89787828D01*
X149756160Y-89712525D01*
X149937957Y-89787828D01*
X150148968Y-89829800D01*
X150364112Y-89829800D01*
X150575123Y-89787828D01*
X150756920Y-89712525D01*
X150938717Y-89787828D01*
X151149728Y-89829800D01*
X151364872Y-89829800D01*
X151575883Y-89787828D01*
X151757680Y-89712525D01*
X151939477Y-89787828D01*
X152150488Y-89829800D01*
X152365632Y-89829800D01*
X152576643Y-89787828D01*
X152758440Y-89712525D01*
X152940237Y-89787828D01*
X153151248Y-89829800D01*
X153366392Y-89829800D01*
X153577403Y-89787828D01*
X153776171Y-89705495D01*
X153955057Y-89585967D01*
X154107187Y-89433837D01*
X154226715Y-89254951D01*
X154309048Y-89056183D01*
X154351020Y-88845172D01*
X154351020Y-88630028D01*
X154309048Y-88419017D01*
X154226715Y-88220249D01*
X154107187Y-88041363D01*
X153955057Y-87889233D01*
X153776171Y-87769705D01*
X153577403Y-87687372D01*
X153366392Y-87645400D01*
X153151248Y-87645400D01*
X152940237Y-87687372D01*
X152758440Y-87762675D01*
X152576643Y-87687372D01*
X152365632Y-87645400D01*
X152150488Y-87645400D01*
X151939477Y-87687372D01*
X151757680Y-87762675D01*
X151575883Y-87687372D01*
X151364872Y-87645400D01*
X151149728Y-87645400D01*
X150938717Y-87687372D01*
X150756920Y-87762675D01*
X150575123Y-87687372D01*
X150364112Y-87645400D01*
X150148968Y-87645400D01*
X149937957Y-87687372D01*
X149756160Y-87762675D01*
X149574363Y-87687372D01*
X149363352Y-87645400D01*
X149148208Y-87645400D01*
X148937197Y-87687372D01*
X148755400Y-87762675D01*
X148573603Y-87687372D01*
X148362592Y-87645400D01*
X148147448Y-87645400D01*
X147936437Y-87687372D01*
X147754640Y-87762675D01*
X147572843Y-87687372D01*
X147361832Y-87645400D01*
X147146688Y-87645400D01*
X147056009Y-87663437D01*
X148386447Y-86333000D01*
X157175554Y-86333000D01*
X163857001Y-93014448D01*
X163857001Y-93014448D01*
G37*
X163857001Y-93014448D02*
X163857000Y-118567553D01*
X159207554Y-123217000D01*
X155461447Y-123217000D01*
X155105000Y-122860553D01*
X155105000Y-122680675D01*
X155062343Y-122466225D01*
X154988178Y-122287174D01*
X155020782Y-122273669D01*
X155131110Y-122199950D01*
X155449267Y-122518107D01*
X155910650Y-122826393D01*
X156423311Y-123038744D01*
X156967550Y-123147000D01*
X157522450Y-123147000D01*
X158066689Y-123038744D01*
X158579350Y-122826393D01*
X159040733Y-122518107D01*
X159433107Y-122125733D01*
X159741393Y-121664350D01*
X159953744Y-121151689D01*
X160062000Y-120607450D01*
X160062000Y-120052550D01*
X159953744Y-119508311D01*
X159741393Y-118995650D01*
X159433107Y-118534267D01*
X159040733Y-118141893D01*
X158579350Y-117833607D01*
X158066689Y-117621256D01*
X157522450Y-117513000D01*
X156967550Y-117513000D01*
X156423311Y-117621256D01*
X155910650Y-117833607D01*
X155449267Y-118141893D01*
X155230000Y-118361160D01*
X155230000Y-102715105D01*
X155233556Y-102679000D01*
X155219365Y-102534915D01*
X155177337Y-102396366D01*
X155109087Y-102268680D01*
X155040253Y-102184806D01*
X155017238Y-102156762D01*
X154989193Y-102133746D01*
X153493440Y-100637994D01*
X153493440Y-100559486D01*
X160862119Y-100559486D01*
X160891994Y-100768568D01*
X161088948Y-100855148D01*
X161299010Y-100901640D01*
X161514105Y-100906258D01*
X161725969Y-100868824D01*
X161926458Y-100790777D01*
X161968006Y-100768568D01*
X161997881Y-100559486D01*
X161430000Y-99991605D01*
X160862119Y-100559486D01*
X153493440Y-100559486D01*
X153493440Y-99896105D01*
X160335742Y-99896105D01*
X160373176Y-100107969D01*
X160451223Y-100308458D01*
X160473432Y-100350006D01*
X160682514Y-100379881D01*
X161250395Y-99812000D01*
X161609605Y-99812000D01*
X162177486Y-100379881D01*
X162386568Y-100350006D01*
X162473148Y-100153052D01*
X162519640Y-99942990D01*
X162524258Y-99727895D01*
X162486824Y-99516031D01*
X162408777Y-99315542D01*
X162386568Y-99273994D01*
X162177486Y-99244119D01*
X161609605Y-99812000D01*
X161250395Y-99812000D01*
X160682514Y-99244119D01*
X160473432Y-99273994D01*
X160386852Y-99470948D01*
X160340360Y-99681010D01*
X160335742Y-99896105D01*
X153493440Y-99896105D01*
X153493440Y-99064514D01*
X160862119Y-99064514D01*
X161430000Y-99632395D01*
X161997881Y-99064514D01*
X161968006Y-98855432D01*
X161771052Y-98768852D01*
X161560990Y-98722360D01*
X161345895Y-98717742D01*
X161134031Y-98755176D01*
X160933542Y-98833223D01*
X160891994Y-98855432D01*
X160862119Y-99064514D01*
X153493440Y-99064514D01*
X153493440Y-92338335D01*
X153651628Y-92369800D01*
X153866772Y-92369800D01*
X154077783Y-92327828D01*
X154276551Y-92245495D01*
X154455437Y-92125967D01*
X154607567Y-91973837D01*
X154727095Y-91794951D01*
X154809428Y-91596183D01*
X154851400Y-91385172D01*
X154851400Y-91170028D01*
X154809428Y-90959017D01*
X154727095Y-90760249D01*
X154607567Y-90581363D01*
X154455437Y-90429233D01*
X154276551Y-90309705D01*
X154077783Y-90227372D01*
X153866772Y-90185400D01*
X153651628Y-90185400D01*
X153440617Y-90227372D01*
X153258820Y-90302675D01*
X153077023Y-90227372D01*
X152866012Y-90185400D01*
X152650868Y-90185400D01*
X152439857Y-90227372D01*
X152258060Y-90302675D01*
X152076263Y-90227372D01*
X151865252Y-90185400D01*
X151650108Y-90185400D01*
X151439097Y-90227372D01*
X151257300Y-90302675D01*
X151075503Y-90227372D01*
X150864492Y-90185400D01*
X150649348Y-90185400D01*
X150438337Y-90227372D01*
X150256540Y-90302675D01*
X150074743Y-90227372D01*
X149863732Y-90185400D01*
X149648588Y-90185400D01*
X149437577Y-90227372D01*
X149255780Y-90302675D01*
X149073983Y-90227372D01*
X148862972Y-90185400D01*
X148647828Y-90185400D01*
X148436817Y-90227372D01*
X148255020Y-90302675D01*
X148073223Y-90227372D01*
X147862212Y-90185400D01*
X147647068Y-90185400D01*
X147436057Y-90227372D01*
X147254260Y-90302675D01*
X147072463Y-90227372D01*
X146861452Y-90185400D01*
X146646308Y-90185400D01*
X146435297Y-90227372D01*
X146236529Y-90309705D01*
X146227600Y-90315671D01*
X146227600Y-89829800D01*
X146361072Y-89829800D01*
X146572083Y-89787828D01*
X146753880Y-89712525D01*
X146935677Y-89787828D01*
X147146688Y-89829800D01*
X147361832Y-89829800D01*
X147572843Y-89787828D01*
X147754640Y-89712525D01*
X147936437Y-89787828D01*
X148147448Y-89829800D01*
X148362592Y-89829800D01*
X148573603Y-89787828D01*
X148755400Y-89712525D01*
X148937197Y-89787828D01*
X149148208Y-89829800D01*
X149363352Y-89829800D01*
X149574363Y-89787828D01*
X149756160Y-89712525D01*
X149937957Y-89787828D01*
X150148968Y-89829800D01*
X150364112Y-89829800D01*
X150575123Y-89787828D01*
X150756920Y-89712525D01*
X150938717Y-89787828D01*
X151149728Y-89829800D01*
X151364872Y-89829800D01*
X151575883Y-89787828D01*
X151757680Y-89712525D01*
X151939477Y-89787828D01*
X152150488Y-89829800D01*
X152365632Y-89829800D01*
X152576643Y-89787828D01*
X152758440Y-89712525D01*
X152940237Y-89787828D01*
X153151248Y-89829800D01*
X153366392Y-89829800D01*
X153577403Y-89787828D01*
X153776171Y-89705495D01*
X153955057Y-89585967D01*
X154107187Y-89433837D01*
X154226715Y-89254951D01*
X154309048Y-89056183D01*
X154351020Y-88845172D01*
X154351020Y-88630028D01*
X154309048Y-88419017D01*
X154226715Y-88220249D01*
X154107187Y-88041363D01*
X153955057Y-87889233D01*
X153776171Y-87769705D01*
X153577403Y-87687372D01*
X153366392Y-87645400D01*
X153151248Y-87645400D01*
X152940237Y-87687372D01*
X152758440Y-87762675D01*
X152576643Y-87687372D01*
X152365632Y-87645400D01*
X152150488Y-87645400D01*
X151939477Y-87687372D01*
X151757680Y-87762675D01*
X151575883Y-87687372D01*
X151364872Y-87645400D01*
X151149728Y-87645400D01*
X150938717Y-87687372D01*
X150756920Y-87762675D01*
X150575123Y-87687372D01*
X150364112Y-87645400D01*
X150148968Y-87645400D01*
X149937957Y-87687372D01*
X149756160Y-87762675D01*
X149574363Y-87687372D01*
X149363352Y-87645400D01*
X149148208Y-87645400D01*
X148937197Y-87687372D01*
X148755400Y-87762675D01*
X148573603Y-87687372D01*
X148362592Y-87645400D01*
X148147448Y-87645400D01*
X147936437Y-87687372D01*
X147754640Y-87762675D01*
X147572843Y-87687372D01*
X147361832Y-87645400D01*
X147146688Y-87645400D01*
X147056009Y-87663437D01*
X148386447Y-86333000D01*
X157175554Y-86333000D01*
X163857001Y-93014448D01*
G36*
X146236529Y-92245495D02*
G01*
X146435297Y-92327828D01*
X146646308Y-92369800D01*
X146861452Y-92369800D01*
X147072463Y-92327828D01*
X147254260Y-92252525D01*
X147436057Y-92327828D01*
X147647068Y-92369800D01*
X147862212Y-92369800D01*
X148073223Y-92327828D01*
X148255020Y-92252525D01*
X148436817Y-92327828D01*
X148647828Y-92369800D01*
X148862972Y-92369800D01*
X149073983Y-92327828D01*
X149255780Y-92252525D01*
X149437577Y-92327828D01*
X149648588Y-92369800D01*
X149863732Y-92369800D01*
X150021921Y-92338335D01*
X150021920Y-101190815D01*
X150018364Y-101226920D01*
X150021920Y-101263024D01*
X150032555Y-101371004D01*
X150074583Y-101509552D01*
X150142833Y-101637239D01*
X150234682Y-101749157D01*
X150262728Y-101772174D01*
X152760001Y-104269448D01*
X152760000Y-118955223D01*
X152745000Y-118970223D01*
X152730000Y-118955223D01*
X152730000Y-114185105D01*
X152733556Y-114149000D01*
X152719365Y-114004915D01*
X152677337Y-113866366D01*
X152609087Y-113738680D01*
X152540253Y-113654806D01*
X152517238Y-113626762D01*
X152489193Y-113603746D01*
X149643259Y-110757813D01*
X149620238Y-110729762D01*
X149508320Y-110637913D01*
X149380633Y-110569663D01*
X149242085Y-110527635D01*
X149134105Y-110517000D01*
X149098000Y-110513444D01*
X149061895Y-110517000D01*
X147540711Y-110517000D01*
X147471774Y-110448063D01*
X147302256Y-110334795D01*
X147113898Y-110256774D01*
X146913939Y-110217000D01*
X146710061Y-110217000D01*
X146510102Y-110256774D01*
X146321744Y-110334795D01*
X146227600Y-110397700D01*
X146227600Y-92239529D01*
X146236529Y-92245495D01*
X146236529Y-92245495D01*
G37*
X146236529Y-92245495D02*
X146435297Y-92327828D01*
X146646308Y-92369800D01*
X146861452Y-92369800D01*
X147072463Y-92327828D01*
X147254260Y-92252525D01*
X147436057Y-92327828D01*
X147647068Y-92369800D01*
X147862212Y-92369800D01*
X148073223Y-92327828D01*
X148255020Y-92252525D01*
X148436817Y-92327828D01*
X148647828Y-92369800D01*
X148862972Y-92369800D01*
X149073983Y-92327828D01*
X149255780Y-92252525D01*
X149437577Y-92327828D01*
X149648588Y-92369800D01*
X149863732Y-92369800D01*
X150021921Y-92338335D01*
X150021920Y-101190815D01*
X150018364Y-101226920D01*
X150021920Y-101263024D01*
X150032555Y-101371004D01*
X150074583Y-101509552D01*
X150142833Y-101637239D01*
X150234682Y-101749157D01*
X150262728Y-101772174D01*
X152760001Y-104269448D01*
X152760000Y-118955223D01*
X152745000Y-118970223D01*
X152730000Y-118955223D01*
X152730000Y-114185105D01*
X152733556Y-114149000D01*
X152719365Y-114004915D01*
X152677337Y-113866366D01*
X152609087Y-113738680D01*
X152540253Y-113654806D01*
X152517238Y-113626762D01*
X152489193Y-113603746D01*
X149643259Y-110757813D01*
X149620238Y-110729762D01*
X149508320Y-110637913D01*
X149380633Y-110569663D01*
X149242085Y-110527635D01*
X149134105Y-110517000D01*
X149098000Y-110513444D01*
X149061895Y-110517000D01*
X147540711Y-110517000D01*
X147471774Y-110448063D01*
X147302256Y-110334795D01*
X147113898Y-110256774D01*
X146913939Y-110217000D01*
X146710061Y-110217000D01*
X146510102Y-110256774D01*
X146321744Y-110334795D01*
X146227600Y-110397700D01*
X146227600Y-92239529D01*
X146236529Y-92245495D01*
M02*
