M48
; DRILL file {KiCad 5.1.4-3.fc30} date lun. 21 oct. 2019 10:57:12 CEST
; FORMAT={-:-/ absolute / metric / decimal}
; #@! TF.CreationDate,2019-10-21T10:57:12+02:00
; #@! TF.GenerationSoftware,Kicad,Pcbnew,5.1.4-3.fc30
; #@! TF.FileFunction,Plated,1,4,PTH
FMAT,2
METRIC
T1C0.300
T2C0.400
T3C0.406
T4C0.500
T5C1.000
T6C2.362
T7C3.200
%
G90
G05
T1
X134.7Y-142.2
X134.8Y-110.2
X137.0Y-142.0
X137.5Y-110.4
X139.7Y-139.6
X139.7Y-153.8
X140.0Y-127.1
X141.7Y-138.8
X141.8Y-152.4
X142.0Y-126.5
X144.0Y-138.0
X144.0Y-153.1
X145.9Y-115.8
X146.0Y-152.6
X146.2Y-137.8
X151.6Y-112.6
X152.8Y-112.6
X155.2Y-112.5
X156.4Y-112.5
X158.0Y-124.6
X158.1Y-168.4
X158.1Y-174.1
X158.2Y-107.0
X158.2Y-116.1
X158.3Y-151.5
X159.9Y-178.6
X160.3Y-124.4
X160.3Y-171.0
X161.5Y-182.2
X161.8Y-109.0
T2
X132.1Y-78.1
X133.4Y-79.6
X133.4Y-191.9
X133.5Y-196.0
X134.4Y-76.1
X134.9Y-194.8
X135.9Y-72.0
X135.9Y-184.2
X136.2Y-193.5
X137.3Y-80.8
X137.7Y-191.9
X139.0Y-190.5
X139.6Y-115.7
X139.7Y-84.9
X140.2Y-88.2
X140.3Y-89.8
X140.3Y-91.9
X140.4Y-188.9
X141.1Y-69.8
X141.7Y-115.8
X141.8Y-182.4
X141.8Y-186.8
X142.5Y-194.8
X142.6Y-197.0
X143.2Y-187.9
X143.2Y-191.9
X143.3Y-75.9
X143.9Y-115.8
X143.9Y-122.1
X144.0Y-74.1
X144.4Y-87.6
X144.6Y-194.8
X145.0Y-72.2
X145.1Y-186.8
X145.1Y-188.0
X145.3Y-75.2
X145.7Y-192.0
X146.6Y-194.8
X147.1Y-161.7
X147.1Y-184.2
X147.2Y-179.7
X147.8Y-59.6
X148.0Y-190.5
X148.7Y-186.6
X148.9Y-179.7
X149.0Y-79.5
X149.0Y-161.7
X149.1Y-96.6
X149.3Y-82.7
X149.4Y-196.0
X149.45Y-83.85
X150.1Y-194.7
X150.8Y-192.0
X151.5Y-77.0
X152.2Y-184.6
X152.2Y-187.7
X152.2Y-190.5
X153.3Y-75.6
X153.4Y-194.7
X154.6Y-193.5
X155.2Y-77.1
X155.4Y-96.6
X155.6Y-75.7
X155.7Y-195.9
X155.8Y-98.6
X155.8Y-190.5
X156.1Y-95.2
X157.0Y-179.7
X157.1Y-182.4
X158.0Y-61.7
X158.2Y-186.6
X159.6Y-188.9
X160.9Y-184.7
X161.0Y-195.9
X161.8Y-67.9
X163.8Y-79.4
X164.0Y-179.6
X164.2Y-75.1
X165.2Y-73.8
X167.0Y-70.8
X167.0Y-72.6
X167.0Y-74.5
X169.7Y-69.6
T4
X117.6Y-50.0
X118.303Y-48.303
X118.303Y-51.697
X120.0Y-47.6
X120.0Y-52.4
X121.697Y-48.303
X121.697Y-51.697
X122.4Y-50.0
X177.6Y-110.0
X178.303Y-108.303
X178.303Y-111.697
X180.0Y-107.6
X180.0Y-112.4
X181.697Y-108.303
X181.697Y-111.697
X182.4Y-110.0
X177.6Y-50.0
X178.303Y-48.303
X178.303Y-51.697
X180.0Y-47.6
X180.0Y-52.4
X181.697Y-48.303
X181.697Y-51.697
X182.4Y-50.0
X47.6Y30.0
X48.303Y31.697
X48.303Y28.303
X50.0Y32.4
X50.0Y27.6
X51.697Y31.697
X51.697Y28.303
X52.4Y30.0
X247.6Y30.0
X248.303Y31.697
X248.303Y28.303
X250.0Y32.4
X250.0Y27.6
X251.697Y31.697
X251.697Y28.303
X252.4Y30.0
X117.6Y-110.0
X118.303Y-108.303
X118.303Y-111.697
X120.0Y-107.6
X120.0Y-112.4
X121.697Y-108.303
X121.697Y-111.697
X122.4Y-110.0
X47.6Y-210.0
X48.303Y-208.303
X48.303Y-211.697
X50.0Y-207.6
X50.0Y-212.4
X51.697Y-208.303
X51.697Y-211.697
X52.4Y-210.0
X247.6Y-210.0
X248.303Y-208.303
X248.303Y-211.697
X250.0Y-207.6
X250.0Y-212.4
X251.697Y-208.303
X251.697Y-211.697
X252.4Y-210.0
T5
X133.5Y-201.0
X134.885Y-203.84
X136.27Y-201.0
X137.655Y-203.84
X139.04Y-201.0
X140.425Y-203.84
X141.81Y-201.0
X143.195Y-203.84
X144.58Y-201.0
X145.965Y-203.84
X147.35Y-201.0
X148.735Y-203.84
X150.12Y-201.0
X151.505Y-203.84
X152.89Y-201.0
X154.275Y-203.84
X155.66Y-201.0
X157.045Y-203.84
X158.43Y-201.0
X159.815Y-203.84
X161.2Y-201.0
X162.585Y-203.84
X163.97Y-201.0
X165.355Y-203.84
X166.74Y-201.0
T6
X138.57Y-60.188
X138.57Y-99.812
X161.43Y-60.188
X161.43Y-99.812
T7
X120.0Y-50.0
X180.0Y-110.0
X180.0Y-50.0
X50.0Y30.0
X126.57Y-202.42
X173.67Y-202.42
X250.0Y30.0
X120.0Y-110.0
X50.0Y-210.0
X250.0Y-210.0
T3
G00X138.38Y-76.754
M15
G01X138.761Y-76.754
M16
G05
G00X138.38Y-77.755
M15
G01X138.761Y-77.755
M16
G05
G00X138.38Y-78.755
M15
G01X138.761Y-78.755
M16
G05
G00X138.38Y-79.756
M15
G01X138.761Y-79.756
M16
G05
G00X138.38Y-80.757
M15
G01X138.761Y-80.757
M16
G05
G00X138.38Y-81.758
M15
G01X138.761Y-81.758
M16
G05
G00X138.38Y-82.758
M15
G01X138.761Y-82.758
M16
G05
G00X138.38Y-83.759
M15
G01X138.761Y-83.759
M16
G05
G00X140.919Y-76.254
M15
G01X141.3Y-76.254
M16
G05
G00X140.919Y-77.254
M15
G01X141.3Y-77.254
M16
G05
G00X140.919Y-78.255
M15
G01X141.3Y-78.255
M16
G05
G00X140.919Y-79.256
M15
G01X141.3Y-79.256
M16
G05
G00X140.919Y-80.257
M15
G01X141.3Y-80.257
M16
G05
G00X140.919Y-81.257
M15
G01X141.3Y-81.257
M16
G05
G00X140.919Y-82.258
M15
G01X141.3Y-82.258
M16
G05
G00X140.919Y-83.259
M15
G01X141.3Y-83.259
M16
G05
G00X146.241Y-68.532
M15
G01X146.241Y-68.913
M16
G05
G00X146.254Y-88.547
M15
G01X146.254Y-88.928
M16
G05
G00X146.741Y-71.072
M15
G01X146.741Y-71.453
M16
G05
G00X146.754Y-91.087
M15
G01X146.754Y-91.468
M16
G05
G00X147.242Y-68.532
M15
G01X147.242Y-68.913
M16
G05
G00X147.254Y-88.547
M15
G01X147.254Y-88.928
M16
G05
G00X147.742Y-71.072
M15
G01X147.742Y-71.453
M16
G05
G00X147.755Y-91.087
M15
G01X147.755Y-91.468
M16
G05
G00X148.242Y-68.532
M15
G01X148.242Y-68.913
M16
G05
G00X148.255Y-88.547
M15
G01X148.255Y-88.928
M16
G05
G00X148.743Y-71.072
M15
G01X148.743Y-71.453
M16
G05
G00X148.755Y-91.087
M15
G01X148.755Y-91.468
M16
G05
G00X149.243Y-68.532
M15
G01X149.243Y-68.913
M16
G05
G00X149.256Y-88.547
M15
G01X149.256Y-88.928
M16
G05
G00X149.743Y-71.072
M15
G01X149.743Y-71.453
M16
G05
G00X149.756Y-91.087
M15
G01X149.756Y-91.468
M16
G05
G00X150.244Y-68.532
M15
G01X150.244Y-68.913
M16
G05
G00X150.257Y-88.547
M15
G01X150.257Y-88.928
M16
G05
G00X150.744Y-71.072
M15
G01X150.744Y-71.453
M16
G05
G00X150.757Y-91.087
M15
G01X150.757Y-91.468
M16
G05
G00X151.245Y-68.532
M15
G01X151.245Y-68.913
M16
G05
G00X151.257Y-88.547
M15
G01X151.257Y-88.928
M16
G05
G00X151.745Y-71.072
M15
G01X151.745Y-71.453
M16
G05
G00X151.758Y-91.087
M15
G01X151.758Y-91.468
M16
G05
G00X152.245Y-68.532
M15
G01X152.245Y-68.913
M16
G05
G00X152.258Y-88.547
M15
G01X152.258Y-88.928
M16
G05
G00X152.746Y-71.072
M15
G01X152.746Y-71.453
M16
G05
G00X152.758Y-91.087
M15
G01X152.758Y-91.468
M16
G05
G00X153.246Y-68.532
M15
G01X153.246Y-68.913
M16
G05
G00X153.259Y-88.547
M15
G01X153.259Y-88.928
M16
G05
G00X153.746Y-71.072
M15
G01X153.746Y-71.453
M16
G05
G00X153.759Y-91.087
M15
G01X153.759Y-91.468
M16
G05
G00X158.7Y-76.741
M15
G01X159.081Y-76.741
M16
G05
G00X158.7Y-77.742
M15
G01X159.081Y-77.742
M16
G05
G00X158.7Y-78.743
M15
G01X159.081Y-78.743
M16
G05
G00X158.7Y-79.743
M15
G01X159.081Y-79.743
M16
G05
G00X158.7Y-80.744
M15
G01X159.081Y-80.744
M16
G05
G00X158.7Y-81.745
M15
G01X159.081Y-81.745
M16
G05
G00X158.7Y-82.746
M15
G01X159.081Y-82.746
M16
G05
G00X158.7Y-83.746
M15
G01X159.081Y-83.746
M16
G05
G00X161.239Y-76.241
M15
G01X161.62Y-76.241
M16
G05
G00X161.239Y-77.242
M15
G01X161.62Y-77.242
M16
G05
G00X161.239Y-78.242
M15
G01X161.62Y-78.242
M16
G05
G00X161.239Y-79.243
M15
G01X161.62Y-79.243
M16
G05
G00X161.239Y-80.244
M15
G01X161.62Y-80.244
M16
G05
G00X161.239Y-81.245
M15
G01X161.62Y-81.245
M16
G05
G00X161.239Y-82.245
M15
G01X161.62Y-82.245
M16
G05
G00X161.239Y-83.246
M15
G01X161.62Y-83.246
M16
G05
T0
M30
