G04 #@! TF.GenerationSoftware,KiCad,Pcbnew,5.1.4-3.fc30*
G04 #@! TF.CreationDate,2019-10-21T10:57:03+02:00*
G04 #@! TF.ProjectId,CarteScreening,43617274-6553-4637-9265-656e696e672e,rev?*
G04 #@! TF.SameCoordinates,Original*
G04 #@! TF.FileFunction,Soldermask,Top*
G04 #@! TF.FilePolarity,Negative*
%FSLAX46Y46*%
G04 Gerber Fmt 4.6, Leading zero omitted, Abs format (unit mm)*
G04 Created by KiCad (PCBNEW 5.1.4-3.fc30) date 2019-10-21 10:57:03*
%MOMM*%
%LPD*%
G04 APERTURE LIST*
%ADD10C,0.100000*%
G04 APERTURE END LIST*
D10*
G36*
X250634239Y-206811467D02*
G01*
X250948282Y-206873934D01*
X251539926Y-207119001D01*
X252072392Y-207474784D01*
X252525216Y-207927608D01*
X252880999Y-208460074D01*
X253126066Y-209051718D01*
X253126066Y-209051719D01*
X253251000Y-209679803D01*
X253251000Y-210320197D01*
X253188533Y-210634239D01*
X253126066Y-210948282D01*
X252880999Y-211539926D01*
X252525216Y-212072392D01*
X252072392Y-212525216D01*
X251539926Y-212880999D01*
X250948282Y-213126066D01*
X250634239Y-213188533D01*
X250320197Y-213251000D01*
X249679803Y-213251000D01*
X249365761Y-213188533D01*
X249051718Y-213126066D01*
X248460074Y-212880999D01*
X247927608Y-212525216D01*
X247474784Y-212072392D01*
X247119001Y-211539926D01*
X246873934Y-210948282D01*
X246811467Y-210634239D01*
X246749000Y-210320197D01*
X246749000Y-209679803D01*
X246873934Y-209051719D01*
X246873934Y-209051718D01*
X247119001Y-208460074D01*
X247474784Y-207927608D01*
X247927608Y-207474784D01*
X248460074Y-207119001D01*
X249051718Y-206873934D01*
X249365761Y-206811467D01*
X249679803Y-206749000D01*
X250320197Y-206749000D01*
X250634239Y-206811467D01*
X250634239Y-206811467D01*
G37*
G36*
X50634239Y-206811467D02*
G01*
X50948282Y-206873934D01*
X51539926Y-207119001D01*
X52072392Y-207474784D01*
X52525216Y-207927608D01*
X52880999Y-208460074D01*
X53126066Y-209051718D01*
X53126066Y-209051719D01*
X53251000Y-209679803D01*
X53251000Y-210320197D01*
X53188533Y-210634239D01*
X53126066Y-210948282D01*
X52880999Y-211539926D01*
X52525216Y-212072392D01*
X52072392Y-212525216D01*
X51539926Y-212880999D01*
X50948282Y-213126066D01*
X50634239Y-213188533D01*
X50320197Y-213251000D01*
X49679803Y-213251000D01*
X49365761Y-213188533D01*
X49051718Y-213126066D01*
X48460074Y-212880999D01*
X47927608Y-212525216D01*
X47474784Y-212072392D01*
X47119001Y-211539926D01*
X46873934Y-210948282D01*
X46811467Y-210634239D01*
X46749000Y-210320197D01*
X46749000Y-209679803D01*
X46873934Y-209051719D01*
X46873934Y-209051718D01*
X47119001Y-208460074D01*
X47474784Y-207927608D01*
X47927608Y-207474784D01*
X48460074Y-207119001D01*
X49051718Y-206873934D01*
X49365761Y-206811467D01*
X49679803Y-206749000D01*
X50320197Y-206749000D01*
X50634239Y-206811467D01*
X50634239Y-206811467D01*
G37*
G36*
X157293228Y-203021703D02*
G01*
X157448100Y-203085853D01*
X157587481Y-203178985D01*
X157706015Y-203297519D01*
X157799147Y-203436900D01*
X157863297Y-203591772D01*
X157896000Y-203756184D01*
X157896000Y-203923816D01*
X157863297Y-204088228D01*
X157799147Y-204243100D01*
X157706015Y-204382481D01*
X157587481Y-204501015D01*
X157448100Y-204594147D01*
X157293228Y-204658297D01*
X157128816Y-204691000D01*
X156961184Y-204691000D01*
X156796772Y-204658297D01*
X156641900Y-204594147D01*
X156502519Y-204501015D01*
X156383985Y-204382481D01*
X156290853Y-204243100D01*
X156226703Y-204088228D01*
X156194000Y-203923816D01*
X156194000Y-203756184D01*
X156226703Y-203591772D01*
X156290853Y-203436900D01*
X156383985Y-203297519D01*
X156502519Y-203178985D01*
X156641900Y-203085853D01*
X156796772Y-203021703D01*
X156961184Y-202989000D01*
X157128816Y-202989000D01*
X157293228Y-203021703D01*
X157293228Y-203021703D01*
G37*
G36*
X165603228Y-203021703D02*
G01*
X165758100Y-203085853D01*
X165897481Y-203178985D01*
X166016015Y-203297519D01*
X166109147Y-203436900D01*
X166173297Y-203591772D01*
X166206000Y-203756184D01*
X166206000Y-203923816D01*
X166173297Y-204088228D01*
X166109147Y-204243100D01*
X166016015Y-204382481D01*
X165897481Y-204501015D01*
X165758100Y-204594147D01*
X165603228Y-204658297D01*
X165438816Y-204691000D01*
X165271184Y-204691000D01*
X165106772Y-204658297D01*
X164951900Y-204594147D01*
X164812519Y-204501015D01*
X164693985Y-204382481D01*
X164600853Y-204243100D01*
X164536703Y-204088228D01*
X164504000Y-203923816D01*
X164504000Y-203756184D01*
X164536703Y-203591772D01*
X164600853Y-203436900D01*
X164693985Y-203297519D01*
X164812519Y-203178985D01*
X164951900Y-203085853D01*
X165106772Y-203021703D01*
X165271184Y-202989000D01*
X165438816Y-202989000D01*
X165603228Y-203021703D01*
X165603228Y-203021703D01*
G37*
G36*
X160063228Y-203021703D02*
G01*
X160218100Y-203085853D01*
X160357481Y-203178985D01*
X160476015Y-203297519D01*
X160569147Y-203436900D01*
X160633297Y-203591772D01*
X160666000Y-203756184D01*
X160666000Y-203923816D01*
X160633297Y-204088228D01*
X160569147Y-204243100D01*
X160476015Y-204382481D01*
X160357481Y-204501015D01*
X160218100Y-204594147D01*
X160063228Y-204658297D01*
X159898816Y-204691000D01*
X159731184Y-204691000D01*
X159566772Y-204658297D01*
X159411900Y-204594147D01*
X159272519Y-204501015D01*
X159153985Y-204382481D01*
X159060853Y-204243100D01*
X158996703Y-204088228D01*
X158964000Y-203923816D01*
X158964000Y-203756184D01*
X158996703Y-203591772D01*
X159060853Y-203436900D01*
X159153985Y-203297519D01*
X159272519Y-203178985D01*
X159411900Y-203085853D01*
X159566772Y-203021703D01*
X159731184Y-202989000D01*
X159898816Y-202989000D01*
X160063228Y-203021703D01*
X160063228Y-203021703D01*
G37*
G36*
X154523228Y-203021703D02*
G01*
X154678100Y-203085853D01*
X154817481Y-203178985D01*
X154936015Y-203297519D01*
X155029147Y-203436900D01*
X155093297Y-203591772D01*
X155126000Y-203756184D01*
X155126000Y-203923816D01*
X155093297Y-204088228D01*
X155029147Y-204243100D01*
X154936015Y-204382481D01*
X154817481Y-204501015D01*
X154678100Y-204594147D01*
X154523228Y-204658297D01*
X154358816Y-204691000D01*
X154191184Y-204691000D01*
X154026772Y-204658297D01*
X153871900Y-204594147D01*
X153732519Y-204501015D01*
X153613985Y-204382481D01*
X153520853Y-204243100D01*
X153456703Y-204088228D01*
X153424000Y-203923816D01*
X153424000Y-203756184D01*
X153456703Y-203591772D01*
X153520853Y-203436900D01*
X153613985Y-203297519D01*
X153732519Y-203178985D01*
X153871900Y-203085853D01*
X154026772Y-203021703D01*
X154191184Y-202989000D01*
X154358816Y-202989000D01*
X154523228Y-203021703D01*
X154523228Y-203021703D01*
G37*
G36*
X151753228Y-203021703D02*
G01*
X151908100Y-203085853D01*
X152047481Y-203178985D01*
X152166015Y-203297519D01*
X152259147Y-203436900D01*
X152323297Y-203591772D01*
X152356000Y-203756184D01*
X152356000Y-203923816D01*
X152323297Y-204088228D01*
X152259147Y-204243100D01*
X152166015Y-204382481D01*
X152047481Y-204501015D01*
X151908100Y-204594147D01*
X151753228Y-204658297D01*
X151588816Y-204691000D01*
X151421184Y-204691000D01*
X151256772Y-204658297D01*
X151101900Y-204594147D01*
X150962519Y-204501015D01*
X150843985Y-204382481D01*
X150750853Y-204243100D01*
X150686703Y-204088228D01*
X150654000Y-203923816D01*
X150654000Y-203756184D01*
X150686703Y-203591772D01*
X150750853Y-203436900D01*
X150843985Y-203297519D01*
X150962519Y-203178985D01*
X151101900Y-203085853D01*
X151256772Y-203021703D01*
X151421184Y-202989000D01*
X151588816Y-202989000D01*
X151753228Y-203021703D01*
X151753228Y-203021703D01*
G37*
G36*
X148983228Y-203021703D02*
G01*
X149138100Y-203085853D01*
X149277481Y-203178985D01*
X149396015Y-203297519D01*
X149489147Y-203436900D01*
X149553297Y-203591772D01*
X149586000Y-203756184D01*
X149586000Y-203923816D01*
X149553297Y-204088228D01*
X149489147Y-204243100D01*
X149396015Y-204382481D01*
X149277481Y-204501015D01*
X149138100Y-204594147D01*
X148983228Y-204658297D01*
X148818816Y-204691000D01*
X148651184Y-204691000D01*
X148486772Y-204658297D01*
X148331900Y-204594147D01*
X148192519Y-204501015D01*
X148073985Y-204382481D01*
X147980853Y-204243100D01*
X147916703Y-204088228D01*
X147884000Y-203923816D01*
X147884000Y-203756184D01*
X147916703Y-203591772D01*
X147980853Y-203436900D01*
X148073985Y-203297519D01*
X148192519Y-203178985D01*
X148331900Y-203085853D01*
X148486772Y-203021703D01*
X148651184Y-202989000D01*
X148818816Y-202989000D01*
X148983228Y-203021703D01*
X148983228Y-203021703D01*
G37*
G36*
X146213228Y-203021703D02*
G01*
X146368100Y-203085853D01*
X146507481Y-203178985D01*
X146626015Y-203297519D01*
X146719147Y-203436900D01*
X146783297Y-203591772D01*
X146816000Y-203756184D01*
X146816000Y-203923816D01*
X146783297Y-204088228D01*
X146719147Y-204243100D01*
X146626015Y-204382481D01*
X146507481Y-204501015D01*
X146368100Y-204594147D01*
X146213228Y-204658297D01*
X146048816Y-204691000D01*
X145881184Y-204691000D01*
X145716772Y-204658297D01*
X145561900Y-204594147D01*
X145422519Y-204501015D01*
X145303985Y-204382481D01*
X145210853Y-204243100D01*
X145146703Y-204088228D01*
X145114000Y-203923816D01*
X145114000Y-203756184D01*
X145146703Y-203591772D01*
X145210853Y-203436900D01*
X145303985Y-203297519D01*
X145422519Y-203178985D01*
X145561900Y-203085853D01*
X145716772Y-203021703D01*
X145881184Y-202989000D01*
X146048816Y-202989000D01*
X146213228Y-203021703D01*
X146213228Y-203021703D01*
G37*
G36*
X143443228Y-203021703D02*
G01*
X143598100Y-203085853D01*
X143737481Y-203178985D01*
X143856015Y-203297519D01*
X143949147Y-203436900D01*
X144013297Y-203591772D01*
X144046000Y-203756184D01*
X144046000Y-203923816D01*
X144013297Y-204088228D01*
X143949147Y-204243100D01*
X143856015Y-204382481D01*
X143737481Y-204501015D01*
X143598100Y-204594147D01*
X143443228Y-204658297D01*
X143278816Y-204691000D01*
X143111184Y-204691000D01*
X142946772Y-204658297D01*
X142791900Y-204594147D01*
X142652519Y-204501015D01*
X142533985Y-204382481D01*
X142440853Y-204243100D01*
X142376703Y-204088228D01*
X142344000Y-203923816D01*
X142344000Y-203756184D01*
X142376703Y-203591772D01*
X142440853Y-203436900D01*
X142533985Y-203297519D01*
X142652519Y-203178985D01*
X142791900Y-203085853D01*
X142946772Y-203021703D01*
X143111184Y-202989000D01*
X143278816Y-202989000D01*
X143443228Y-203021703D01*
X143443228Y-203021703D01*
G37*
G36*
X140673228Y-203021703D02*
G01*
X140828100Y-203085853D01*
X140967481Y-203178985D01*
X141086015Y-203297519D01*
X141179147Y-203436900D01*
X141243297Y-203591772D01*
X141276000Y-203756184D01*
X141276000Y-203923816D01*
X141243297Y-204088228D01*
X141179147Y-204243100D01*
X141086015Y-204382481D01*
X140967481Y-204501015D01*
X140828100Y-204594147D01*
X140673228Y-204658297D01*
X140508816Y-204691000D01*
X140341184Y-204691000D01*
X140176772Y-204658297D01*
X140021900Y-204594147D01*
X139882519Y-204501015D01*
X139763985Y-204382481D01*
X139670853Y-204243100D01*
X139606703Y-204088228D01*
X139574000Y-203923816D01*
X139574000Y-203756184D01*
X139606703Y-203591772D01*
X139670853Y-203436900D01*
X139763985Y-203297519D01*
X139882519Y-203178985D01*
X140021900Y-203085853D01*
X140176772Y-203021703D01*
X140341184Y-202989000D01*
X140508816Y-202989000D01*
X140673228Y-203021703D01*
X140673228Y-203021703D01*
G37*
G36*
X135133228Y-203021703D02*
G01*
X135288100Y-203085853D01*
X135427481Y-203178985D01*
X135546015Y-203297519D01*
X135639147Y-203436900D01*
X135703297Y-203591772D01*
X135736000Y-203756184D01*
X135736000Y-203923816D01*
X135703297Y-204088228D01*
X135639147Y-204243100D01*
X135546015Y-204382481D01*
X135427481Y-204501015D01*
X135288100Y-204594147D01*
X135133228Y-204658297D01*
X134968816Y-204691000D01*
X134801184Y-204691000D01*
X134636772Y-204658297D01*
X134481900Y-204594147D01*
X134342519Y-204501015D01*
X134223985Y-204382481D01*
X134130853Y-204243100D01*
X134066703Y-204088228D01*
X134034000Y-203923816D01*
X134034000Y-203756184D01*
X134066703Y-203591772D01*
X134130853Y-203436900D01*
X134223985Y-203297519D01*
X134342519Y-203178985D01*
X134481900Y-203085853D01*
X134636772Y-203021703D01*
X134801184Y-202989000D01*
X134968816Y-202989000D01*
X135133228Y-203021703D01*
X135133228Y-203021703D01*
G37*
G36*
X162833228Y-203021703D02*
G01*
X162988100Y-203085853D01*
X163127481Y-203178985D01*
X163246015Y-203297519D01*
X163339147Y-203436900D01*
X163403297Y-203591772D01*
X163436000Y-203756184D01*
X163436000Y-203923816D01*
X163403297Y-204088228D01*
X163339147Y-204243100D01*
X163246015Y-204382481D01*
X163127481Y-204501015D01*
X162988100Y-204594147D01*
X162833228Y-204658297D01*
X162668816Y-204691000D01*
X162501184Y-204691000D01*
X162336772Y-204658297D01*
X162181900Y-204594147D01*
X162042519Y-204501015D01*
X161923985Y-204382481D01*
X161830853Y-204243100D01*
X161766703Y-204088228D01*
X161734000Y-203923816D01*
X161734000Y-203756184D01*
X161766703Y-203591772D01*
X161830853Y-203436900D01*
X161923985Y-203297519D01*
X162042519Y-203178985D01*
X162181900Y-203085853D01*
X162336772Y-203021703D01*
X162501184Y-202989000D01*
X162668816Y-202989000D01*
X162833228Y-203021703D01*
X162833228Y-203021703D01*
G37*
G36*
X137903228Y-203021703D02*
G01*
X138058100Y-203085853D01*
X138197481Y-203178985D01*
X138316015Y-203297519D01*
X138409147Y-203436900D01*
X138473297Y-203591772D01*
X138506000Y-203756184D01*
X138506000Y-203923816D01*
X138473297Y-204088228D01*
X138409147Y-204243100D01*
X138316015Y-204382481D01*
X138197481Y-204501015D01*
X138058100Y-204594147D01*
X137903228Y-204658297D01*
X137738816Y-204691000D01*
X137571184Y-204691000D01*
X137406772Y-204658297D01*
X137251900Y-204594147D01*
X137112519Y-204501015D01*
X136993985Y-204382481D01*
X136900853Y-204243100D01*
X136836703Y-204088228D01*
X136804000Y-203923816D01*
X136804000Y-203756184D01*
X136836703Y-203591772D01*
X136900853Y-203436900D01*
X136993985Y-203297519D01*
X137112519Y-203178985D01*
X137251900Y-203085853D01*
X137406772Y-203021703D01*
X137571184Y-202989000D01*
X137738816Y-202989000D01*
X137903228Y-203021703D01*
X137903228Y-203021703D01*
G37*
G36*
X127168254Y-200447818D02*
G01*
X127528170Y-200596900D01*
X127541513Y-200602427D01*
X127877436Y-200826884D01*
X128163116Y-201112564D01*
X128253765Y-201248229D01*
X128387574Y-201448489D01*
X128542182Y-201821746D01*
X128621000Y-202217993D01*
X128621000Y-202622007D01*
X128542182Y-203018254D01*
X128426506Y-203297520D01*
X128387573Y-203391513D01*
X128163116Y-203727436D01*
X127877436Y-204013116D01*
X127541513Y-204237573D01*
X127541512Y-204237574D01*
X127541511Y-204237574D01*
X127168254Y-204392182D01*
X126772007Y-204471000D01*
X126367993Y-204471000D01*
X125971746Y-204392182D01*
X125598489Y-204237574D01*
X125598488Y-204237574D01*
X125598487Y-204237573D01*
X125262564Y-204013116D01*
X124976884Y-203727436D01*
X124752427Y-203391513D01*
X124713494Y-203297520D01*
X124597818Y-203018254D01*
X124519000Y-202622007D01*
X124519000Y-202217993D01*
X124597818Y-201821746D01*
X124752426Y-201448489D01*
X124886236Y-201248229D01*
X124976884Y-201112564D01*
X125262564Y-200826884D01*
X125598487Y-200602427D01*
X125611830Y-200596900D01*
X125971746Y-200447818D01*
X126367993Y-200369000D01*
X126772007Y-200369000D01*
X127168254Y-200447818D01*
X127168254Y-200447818D01*
G37*
G36*
X174268254Y-200447818D02*
G01*
X174628170Y-200596900D01*
X174641513Y-200602427D01*
X174977436Y-200826884D01*
X175263116Y-201112564D01*
X175353765Y-201248229D01*
X175487574Y-201448489D01*
X175642182Y-201821746D01*
X175721000Y-202217993D01*
X175721000Y-202622007D01*
X175642182Y-203018254D01*
X175526506Y-203297520D01*
X175487573Y-203391513D01*
X175263116Y-203727436D01*
X174977436Y-204013116D01*
X174641513Y-204237573D01*
X174641512Y-204237574D01*
X174641511Y-204237574D01*
X174268254Y-204392182D01*
X173872007Y-204471000D01*
X173467993Y-204471000D01*
X173071746Y-204392182D01*
X172698489Y-204237574D01*
X172698488Y-204237574D01*
X172698487Y-204237573D01*
X172362564Y-204013116D01*
X172076884Y-203727436D01*
X171852427Y-203391513D01*
X171813494Y-203297520D01*
X171697818Y-203018254D01*
X171619000Y-202622007D01*
X171619000Y-202217993D01*
X171697818Y-201821746D01*
X171852426Y-201448489D01*
X171986236Y-201248229D01*
X172076884Y-201112564D01*
X172362564Y-200826884D01*
X172698487Y-200602427D01*
X172711830Y-200596900D01*
X173071746Y-200447818D01*
X173467993Y-200369000D01*
X173872007Y-200369000D01*
X174268254Y-200447818D01*
X174268254Y-200447818D01*
G37*
G36*
X142058228Y-200181703D02*
G01*
X142213100Y-200245853D01*
X142352481Y-200338985D01*
X142471015Y-200457519D01*
X142564147Y-200596900D01*
X142628297Y-200751772D01*
X142661000Y-200916184D01*
X142661000Y-201083816D01*
X142628297Y-201248228D01*
X142564147Y-201403100D01*
X142471015Y-201542481D01*
X142352481Y-201661015D01*
X142213100Y-201754147D01*
X142058228Y-201818297D01*
X141893816Y-201851000D01*
X141726184Y-201851000D01*
X141561772Y-201818297D01*
X141406900Y-201754147D01*
X141267519Y-201661015D01*
X141148985Y-201542481D01*
X141055853Y-201403100D01*
X140991703Y-201248228D01*
X140959000Y-201083816D01*
X140959000Y-200916184D01*
X140991703Y-200751772D01*
X141055853Y-200596900D01*
X141148985Y-200457519D01*
X141267519Y-200338985D01*
X141406900Y-200245853D01*
X141561772Y-200181703D01*
X141726184Y-200149000D01*
X141893816Y-200149000D01*
X142058228Y-200181703D01*
X142058228Y-200181703D01*
G37*
G36*
X166988228Y-200181703D02*
G01*
X167143100Y-200245853D01*
X167282481Y-200338985D01*
X167401015Y-200457519D01*
X167494147Y-200596900D01*
X167558297Y-200751772D01*
X167591000Y-200916184D01*
X167591000Y-201083816D01*
X167558297Y-201248228D01*
X167494147Y-201403100D01*
X167401015Y-201542481D01*
X167282481Y-201661015D01*
X167143100Y-201754147D01*
X166988228Y-201818297D01*
X166823816Y-201851000D01*
X166656184Y-201851000D01*
X166491772Y-201818297D01*
X166336900Y-201754147D01*
X166197519Y-201661015D01*
X166078985Y-201542481D01*
X165985853Y-201403100D01*
X165921703Y-201248228D01*
X165889000Y-201083816D01*
X165889000Y-200916184D01*
X165921703Y-200751772D01*
X165985853Y-200596900D01*
X166078985Y-200457519D01*
X166197519Y-200338985D01*
X166336900Y-200245853D01*
X166491772Y-200181703D01*
X166656184Y-200149000D01*
X166823816Y-200149000D01*
X166988228Y-200181703D01*
X166988228Y-200181703D01*
G37*
G36*
X164218228Y-200181703D02*
G01*
X164373100Y-200245853D01*
X164512481Y-200338985D01*
X164631015Y-200457519D01*
X164724147Y-200596900D01*
X164788297Y-200751772D01*
X164821000Y-200916184D01*
X164821000Y-201083816D01*
X164788297Y-201248228D01*
X164724147Y-201403100D01*
X164631015Y-201542481D01*
X164512481Y-201661015D01*
X164373100Y-201754147D01*
X164218228Y-201818297D01*
X164053816Y-201851000D01*
X163886184Y-201851000D01*
X163721772Y-201818297D01*
X163566900Y-201754147D01*
X163427519Y-201661015D01*
X163308985Y-201542481D01*
X163215853Y-201403100D01*
X163151703Y-201248228D01*
X163119000Y-201083816D01*
X163119000Y-200916184D01*
X163151703Y-200751772D01*
X163215853Y-200596900D01*
X163308985Y-200457519D01*
X163427519Y-200338985D01*
X163566900Y-200245853D01*
X163721772Y-200181703D01*
X163886184Y-200149000D01*
X164053816Y-200149000D01*
X164218228Y-200181703D01*
X164218228Y-200181703D01*
G37*
G36*
X161448228Y-200181703D02*
G01*
X161603100Y-200245853D01*
X161742481Y-200338985D01*
X161861015Y-200457519D01*
X161954147Y-200596900D01*
X162018297Y-200751772D01*
X162051000Y-200916184D01*
X162051000Y-201083816D01*
X162018297Y-201248228D01*
X161954147Y-201403100D01*
X161861015Y-201542481D01*
X161742481Y-201661015D01*
X161603100Y-201754147D01*
X161448228Y-201818297D01*
X161283816Y-201851000D01*
X161116184Y-201851000D01*
X160951772Y-201818297D01*
X160796900Y-201754147D01*
X160657519Y-201661015D01*
X160538985Y-201542481D01*
X160445853Y-201403100D01*
X160381703Y-201248228D01*
X160349000Y-201083816D01*
X160349000Y-200916184D01*
X160381703Y-200751772D01*
X160445853Y-200596900D01*
X160538985Y-200457519D01*
X160657519Y-200338985D01*
X160796900Y-200245853D01*
X160951772Y-200181703D01*
X161116184Y-200149000D01*
X161283816Y-200149000D01*
X161448228Y-200181703D01*
X161448228Y-200181703D01*
G37*
G36*
X158678228Y-200181703D02*
G01*
X158833100Y-200245853D01*
X158972481Y-200338985D01*
X159091015Y-200457519D01*
X159184147Y-200596900D01*
X159248297Y-200751772D01*
X159281000Y-200916184D01*
X159281000Y-201083816D01*
X159248297Y-201248228D01*
X159184147Y-201403100D01*
X159091015Y-201542481D01*
X158972481Y-201661015D01*
X158833100Y-201754147D01*
X158678228Y-201818297D01*
X158513816Y-201851000D01*
X158346184Y-201851000D01*
X158181772Y-201818297D01*
X158026900Y-201754147D01*
X157887519Y-201661015D01*
X157768985Y-201542481D01*
X157675853Y-201403100D01*
X157611703Y-201248228D01*
X157579000Y-201083816D01*
X157579000Y-200916184D01*
X157611703Y-200751772D01*
X157675853Y-200596900D01*
X157768985Y-200457519D01*
X157887519Y-200338985D01*
X158026900Y-200245853D01*
X158181772Y-200181703D01*
X158346184Y-200149000D01*
X158513816Y-200149000D01*
X158678228Y-200181703D01*
X158678228Y-200181703D01*
G37*
G36*
X155908228Y-200181703D02*
G01*
X156063100Y-200245853D01*
X156202481Y-200338985D01*
X156321015Y-200457519D01*
X156414147Y-200596900D01*
X156478297Y-200751772D01*
X156511000Y-200916184D01*
X156511000Y-201083816D01*
X156478297Y-201248228D01*
X156414147Y-201403100D01*
X156321015Y-201542481D01*
X156202481Y-201661015D01*
X156063100Y-201754147D01*
X155908228Y-201818297D01*
X155743816Y-201851000D01*
X155576184Y-201851000D01*
X155411772Y-201818297D01*
X155256900Y-201754147D01*
X155117519Y-201661015D01*
X154998985Y-201542481D01*
X154905853Y-201403100D01*
X154841703Y-201248228D01*
X154809000Y-201083816D01*
X154809000Y-200916184D01*
X154841703Y-200751772D01*
X154905853Y-200596900D01*
X154998985Y-200457519D01*
X155117519Y-200338985D01*
X155256900Y-200245853D01*
X155411772Y-200181703D01*
X155576184Y-200149000D01*
X155743816Y-200149000D01*
X155908228Y-200181703D01*
X155908228Y-200181703D01*
G37*
G36*
X150368228Y-200181703D02*
G01*
X150523100Y-200245853D01*
X150662481Y-200338985D01*
X150781015Y-200457519D01*
X150874147Y-200596900D01*
X150938297Y-200751772D01*
X150971000Y-200916184D01*
X150971000Y-201083816D01*
X150938297Y-201248228D01*
X150874147Y-201403100D01*
X150781015Y-201542481D01*
X150662481Y-201661015D01*
X150523100Y-201754147D01*
X150368228Y-201818297D01*
X150203816Y-201851000D01*
X150036184Y-201851000D01*
X149871772Y-201818297D01*
X149716900Y-201754147D01*
X149577519Y-201661015D01*
X149458985Y-201542481D01*
X149365853Y-201403100D01*
X149301703Y-201248228D01*
X149269000Y-201083816D01*
X149269000Y-200916184D01*
X149301703Y-200751772D01*
X149365853Y-200596900D01*
X149458985Y-200457519D01*
X149577519Y-200338985D01*
X149716900Y-200245853D01*
X149871772Y-200181703D01*
X150036184Y-200149000D01*
X150203816Y-200149000D01*
X150368228Y-200181703D01*
X150368228Y-200181703D01*
G37*
G36*
X147598228Y-200181703D02*
G01*
X147753100Y-200245853D01*
X147892481Y-200338985D01*
X148011015Y-200457519D01*
X148104147Y-200596900D01*
X148168297Y-200751772D01*
X148201000Y-200916184D01*
X148201000Y-201083816D01*
X148168297Y-201248228D01*
X148104147Y-201403100D01*
X148011015Y-201542481D01*
X147892481Y-201661015D01*
X147753100Y-201754147D01*
X147598228Y-201818297D01*
X147433816Y-201851000D01*
X147266184Y-201851000D01*
X147101772Y-201818297D01*
X146946900Y-201754147D01*
X146807519Y-201661015D01*
X146688985Y-201542481D01*
X146595853Y-201403100D01*
X146531703Y-201248228D01*
X146499000Y-201083816D01*
X146499000Y-200916184D01*
X146531703Y-200751772D01*
X146595853Y-200596900D01*
X146688985Y-200457519D01*
X146807519Y-200338985D01*
X146946900Y-200245853D01*
X147101772Y-200181703D01*
X147266184Y-200149000D01*
X147433816Y-200149000D01*
X147598228Y-200181703D01*
X147598228Y-200181703D01*
G37*
G36*
X144828228Y-200181703D02*
G01*
X144983100Y-200245853D01*
X145122481Y-200338985D01*
X145241015Y-200457519D01*
X145334147Y-200596900D01*
X145398297Y-200751772D01*
X145431000Y-200916184D01*
X145431000Y-201083816D01*
X145398297Y-201248228D01*
X145334147Y-201403100D01*
X145241015Y-201542481D01*
X145122481Y-201661015D01*
X144983100Y-201754147D01*
X144828228Y-201818297D01*
X144663816Y-201851000D01*
X144496184Y-201851000D01*
X144331772Y-201818297D01*
X144176900Y-201754147D01*
X144037519Y-201661015D01*
X143918985Y-201542481D01*
X143825853Y-201403100D01*
X143761703Y-201248228D01*
X143729000Y-201083816D01*
X143729000Y-200916184D01*
X143761703Y-200751772D01*
X143825853Y-200596900D01*
X143918985Y-200457519D01*
X144037519Y-200338985D01*
X144176900Y-200245853D01*
X144331772Y-200181703D01*
X144496184Y-200149000D01*
X144663816Y-200149000D01*
X144828228Y-200181703D01*
X144828228Y-200181703D01*
G37*
G36*
X139288228Y-200181703D02*
G01*
X139443100Y-200245853D01*
X139582481Y-200338985D01*
X139701015Y-200457519D01*
X139794147Y-200596900D01*
X139858297Y-200751772D01*
X139891000Y-200916184D01*
X139891000Y-201083816D01*
X139858297Y-201248228D01*
X139794147Y-201403100D01*
X139701015Y-201542481D01*
X139582481Y-201661015D01*
X139443100Y-201754147D01*
X139288228Y-201818297D01*
X139123816Y-201851000D01*
X138956184Y-201851000D01*
X138791772Y-201818297D01*
X138636900Y-201754147D01*
X138497519Y-201661015D01*
X138378985Y-201542481D01*
X138285853Y-201403100D01*
X138221703Y-201248228D01*
X138189000Y-201083816D01*
X138189000Y-200916184D01*
X138221703Y-200751772D01*
X138285853Y-200596900D01*
X138378985Y-200457519D01*
X138497519Y-200338985D01*
X138636900Y-200245853D01*
X138791772Y-200181703D01*
X138956184Y-200149000D01*
X139123816Y-200149000D01*
X139288228Y-200181703D01*
X139288228Y-200181703D01*
G37*
G36*
X136518228Y-200181703D02*
G01*
X136673100Y-200245853D01*
X136812481Y-200338985D01*
X136931015Y-200457519D01*
X137024147Y-200596900D01*
X137088297Y-200751772D01*
X137121000Y-200916184D01*
X137121000Y-201083816D01*
X137088297Y-201248228D01*
X137024147Y-201403100D01*
X136931015Y-201542481D01*
X136812481Y-201661015D01*
X136673100Y-201754147D01*
X136518228Y-201818297D01*
X136353816Y-201851000D01*
X136186184Y-201851000D01*
X136021772Y-201818297D01*
X135866900Y-201754147D01*
X135727519Y-201661015D01*
X135608985Y-201542481D01*
X135515853Y-201403100D01*
X135451703Y-201248228D01*
X135419000Y-201083816D01*
X135419000Y-200916184D01*
X135451703Y-200751772D01*
X135515853Y-200596900D01*
X135608985Y-200457519D01*
X135727519Y-200338985D01*
X135866900Y-200245853D01*
X136021772Y-200181703D01*
X136186184Y-200149000D01*
X136353816Y-200149000D01*
X136518228Y-200181703D01*
X136518228Y-200181703D01*
G37*
G36*
X134351000Y-201851000D02*
G01*
X132649000Y-201851000D01*
X132649000Y-200149000D01*
X134351000Y-200149000D01*
X134351000Y-201851000D01*
X134351000Y-201851000D01*
G37*
G36*
X153138228Y-200181703D02*
G01*
X153293100Y-200245853D01*
X153432481Y-200338985D01*
X153551015Y-200457519D01*
X153644147Y-200596900D01*
X153708297Y-200751772D01*
X153741000Y-200916184D01*
X153741000Y-201083816D01*
X153708297Y-201248228D01*
X153644147Y-201403100D01*
X153551015Y-201542481D01*
X153432481Y-201661015D01*
X153293100Y-201754147D01*
X153138228Y-201818297D01*
X152973816Y-201851000D01*
X152806184Y-201851000D01*
X152641772Y-201818297D01*
X152486900Y-201754147D01*
X152347519Y-201661015D01*
X152228985Y-201542481D01*
X152135853Y-201403100D01*
X152071703Y-201248228D01*
X152039000Y-201083816D01*
X152039000Y-200916184D01*
X152071703Y-200751772D01*
X152135853Y-200596900D01*
X152228985Y-200457519D01*
X152347519Y-200338985D01*
X152486900Y-200245853D01*
X152641772Y-200181703D01*
X152806184Y-200149000D01*
X152973816Y-200149000D01*
X153138228Y-200181703D01*
X153138228Y-200181703D01*
G37*
G36*
X180634239Y-106811467D02*
G01*
X180948282Y-106873934D01*
X181539926Y-107119001D01*
X182072392Y-107474784D01*
X182525216Y-107927608D01*
X182880999Y-108460074D01*
X183126066Y-109051718D01*
X183126066Y-109051719D01*
X183251000Y-109679803D01*
X183251000Y-110320197D01*
X183188533Y-110634239D01*
X183126066Y-110948282D01*
X182880999Y-111539926D01*
X182525216Y-112072392D01*
X182072392Y-112525216D01*
X181539926Y-112880999D01*
X180948282Y-113126066D01*
X180634239Y-113188533D01*
X180320197Y-113251000D01*
X179679803Y-113251000D01*
X179365761Y-113188533D01*
X179051718Y-113126066D01*
X178460074Y-112880999D01*
X177927608Y-112525216D01*
X177474784Y-112072392D01*
X177119001Y-111539926D01*
X176873934Y-110948282D01*
X176811467Y-110634239D01*
X176749000Y-110320197D01*
X176749000Y-109679803D01*
X176873934Y-109051719D01*
X176873934Y-109051718D01*
X177119001Y-108460074D01*
X177474784Y-107927608D01*
X177927608Y-107474784D01*
X178460074Y-107119001D01*
X179051718Y-106873934D01*
X179365761Y-106811467D01*
X179679803Y-106749000D01*
X180320197Y-106749000D01*
X180634239Y-106811467D01*
X180634239Y-106811467D01*
G37*
G36*
X120634239Y-106811467D02*
G01*
X120948282Y-106873934D01*
X121539926Y-107119001D01*
X122072392Y-107474784D01*
X122525216Y-107927608D01*
X122880999Y-108460074D01*
X123126066Y-109051718D01*
X123126066Y-109051719D01*
X123251000Y-109679803D01*
X123251000Y-110320197D01*
X123188533Y-110634239D01*
X123126066Y-110948282D01*
X122880999Y-111539926D01*
X122525216Y-112072392D01*
X122072392Y-112525216D01*
X121539926Y-112880999D01*
X120948282Y-113126066D01*
X120634239Y-113188533D01*
X120320197Y-113251000D01*
X119679803Y-113251000D01*
X119365761Y-113188533D01*
X119051718Y-113126066D01*
X118460074Y-112880999D01*
X117927608Y-112525216D01*
X117474784Y-112072392D01*
X117119001Y-111539926D01*
X116873934Y-110948282D01*
X116811467Y-110634239D01*
X116749000Y-110320197D01*
X116749000Y-109679803D01*
X116873934Y-109051719D01*
X116873934Y-109051718D01*
X117119001Y-108460074D01*
X117474784Y-107927608D01*
X117927608Y-107474784D01*
X118460074Y-107119001D01*
X119051718Y-106873934D01*
X119365761Y-106811467D01*
X119679803Y-106749000D01*
X120320197Y-106749000D01*
X120634239Y-106811467D01*
X120634239Y-106811467D01*
G37*
G36*
X139114612Y-98016651D02*
G01*
X139454402Y-98157397D01*
X139454403Y-98157398D01*
X139760207Y-98361729D01*
X140020271Y-98621793D01*
X140156801Y-98826125D01*
X140224603Y-98927598D01*
X140365349Y-99267388D01*
X140437100Y-99628105D01*
X140437100Y-99995895D01*
X140365349Y-100356612D01*
X140224603Y-100696402D01*
X140224602Y-100696403D01*
X140020271Y-101002207D01*
X139760207Y-101262271D01*
X139555875Y-101398801D01*
X139454402Y-101466603D01*
X139114612Y-101607349D01*
X138753895Y-101679100D01*
X138386105Y-101679100D01*
X138025388Y-101607349D01*
X137685598Y-101466603D01*
X137584125Y-101398801D01*
X137379793Y-101262271D01*
X137119729Y-101002207D01*
X136915398Y-100696403D01*
X136915397Y-100696402D01*
X136774651Y-100356612D01*
X136702900Y-99995895D01*
X136702900Y-99628105D01*
X136774651Y-99267388D01*
X136915397Y-98927598D01*
X136983199Y-98826125D01*
X137119729Y-98621793D01*
X137379793Y-98361729D01*
X137685597Y-98157398D01*
X137685598Y-98157397D01*
X138025388Y-98016651D01*
X138386105Y-97944900D01*
X138753895Y-97944900D01*
X139114612Y-98016651D01*
X139114612Y-98016651D01*
G37*
G36*
X161974612Y-98016651D02*
G01*
X162314402Y-98157397D01*
X162314403Y-98157398D01*
X162620207Y-98361729D01*
X162880271Y-98621793D01*
X163016801Y-98826125D01*
X163084603Y-98927598D01*
X163225349Y-99267388D01*
X163297100Y-99628105D01*
X163297100Y-99995895D01*
X163225349Y-100356612D01*
X163084603Y-100696402D01*
X163084602Y-100696403D01*
X162880271Y-101002207D01*
X162620207Y-101262271D01*
X162415875Y-101398801D01*
X162314402Y-101466603D01*
X161974612Y-101607349D01*
X161613895Y-101679100D01*
X161246105Y-101679100D01*
X160885388Y-101607349D01*
X160545598Y-101466603D01*
X160444125Y-101398801D01*
X160239793Y-101262271D01*
X159979729Y-101002207D01*
X159775398Y-100696403D01*
X159775397Y-100696402D01*
X159634651Y-100356612D01*
X159562900Y-99995895D01*
X159562900Y-99628105D01*
X159634651Y-99267388D01*
X159775397Y-98927598D01*
X159843199Y-98826125D01*
X159979729Y-98621793D01*
X160239793Y-98361729D01*
X160545597Y-98157398D01*
X160545598Y-98157397D01*
X160885388Y-98016651D01*
X161246105Y-97944900D01*
X161613895Y-97944900D01*
X161974612Y-98016651D01*
X161974612Y-98016651D01*
G37*
G36*
X153836417Y-90698900D02*
G01*
X153910667Y-90721424D01*
X153965054Y-90750494D01*
X153979100Y-90758002D01*
X154039077Y-90807223D01*
X154088301Y-90867204D01*
X154124875Y-90935629D01*
X154124876Y-90935632D01*
X154147400Y-91009882D01*
X154153100Y-91067757D01*
X154153100Y-91487443D01*
X154147400Y-91545318D01*
X154129154Y-91605466D01*
X154124875Y-91619572D01*
X154088301Y-91687996D01*
X154039077Y-91747977D01*
X153979096Y-91797201D01*
X153910671Y-91833775D01*
X153910668Y-91833776D01*
X153836418Y-91856300D01*
X153759200Y-91863905D01*
X153681983Y-91856300D01*
X153607733Y-91833776D01*
X153607730Y-91833775D01*
X153539305Y-91797201D01*
X153479324Y-91747977D01*
X153430100Y-91687996D01*
X153393526Y-91619571D01*
X153393525Y-91619568D01*
X153378434Y-91569822D01*
X153369059Y-91547191D01*
X153355445Y-91526816D01*
X153338118Y-91509489D01*
X153317744Y-91495876D01*
X153295105Y-91486498D01*
X153271072Y-91481718D01*
X153246568Y-91481718D01*
X153222535Y-91486498D01*
X153199896Y-91495876D01*
X153179521Y-91509490D01*
X153162194Y-91526817D01*
X153148581Y-91547191D01*
X153139206Y-91569823D01*
X153124116Y-91619568D01*
X153124115Y-91619571D01*
X153087541Y-91687996D01*
X153038317Y-91747977D01*
X152978336Y-91797201D01*
X152909911Y-91833775D01*
X152909908Y-91833776D01*
X152835658Y-91856300D01*
X152758440Y-91863905D01*
X152681223Y-91856300D01*
X152606973Y-91833776D01*
X152606970Y-91833775D01*
X152538545Y-91797201D01*
X152478564Y-91747977D01*
X152429340Y-91687996D01*
X152392766Y-91619571D01*
X152392765Y-91619568D01*
X152377674Y-91569822D01*
X152368299Y-91547191D01*
X152354685Y-91526816D01*
X152337358Y-91509489D01*
X152316984Y-91495876D01*
X152294345Y-91486498D01*
X152270312Y-91481718D01*
X152245808Y-91481718D01*
X152221775Y-91486498D01*
X152199136Y-91495876D01*
X152178761Y-91509490D01*
X152161434Y-91526817D01*
X152147821Y-91547191D01*
X152138446Y-91569823D01*
X152123356Y-91619568D01*
X152123355Y-91619571D01*
X152086781Y-91687996D01*
X152037557Y-91747977D01*
X151977576Y-91797201D01*
X151909151Y-91833775D01*
X151909148Y-91833776D01*
X151834898Y-91856300D01*
X151757680Y-91863905D01*
X151680463Y-91856300D01*
X151606213Y-91833776D01*
X151606210Y-91833775D01*
X151537785Y-91797201D01*
X151477804Y-91747977D01*
X151428580Y-91687996D01*
X151392006Y-91619571D01*
X151392005Y-91619568D01*
X151376914Y-91569822D01*
X151367539Y-91547191D01*
X151353925Y-91526816D01*
X151336598Y-91509489D01*
X151316224Y-91495876D01*
X151293585Y-91486498D01*
X151269552Y-91481718D01*
X151245048Y-91481718D01*
X151221015Y-91486498D01*
X151198376Y-91495876D01*
X151178001Y-91509490D01*
X151160674Y-91526817D01*
X151147061Y-91547191D01*
X151137686Y-91569823D01*
X151122596Y-91619568D01*
X151122595Y-91619571D01*
X151086021Y-91687996D01*
X151036797Y-91747977D01*
X150976816Y-91797201D01*
X150908391Y-91833775D01*
X150908388Y-91833776D01*
X150834138Y-91856300D01*
X150756920Y-91863905D01*
X150679703Y-91856300D01*
X150605453Y-91833776D01*
X150605450Y-91833775D01*
X150537025Y-91797201D01*
X150477044Y-91747977D01*
X150427820Y-91687996D01*
X150391246Y-91619571D01*
X150391245Y-91619568D01*
X150376154Y-91569822D01*
X150366779Y-91547191D01*
X150353165Y-91526816D01*
X150335838Y-91509489D01*
X150315464Y-91495876D01*
X150292825Y-91486498D01*
X150268792Y-91481718D01*
X150244288Y-91481718D01*
X150220255Y-91486498D01*
X150197616Y-91495876D01*
X150177241Y-91509490D01*
X150159914Y-91526817D01*
X150146301Y-91547191D01*
X150136926Y-91569823D01*
X150121836Y-91619568D01*
X150121835Y-91619571D01*
X150085261Y-91687996D01*
X150036037Y-91747977D01*
X149976056Y-91797201D01*
X149907631Y-91833775D01*
X149907628Y-91833776D01*
X149833378Y-91856300D01*
X149756160Y-91863905D01*
X149678943Y-91856300D01*
X149604693Y-91833776D01*
X149604690Y-91833775D01*
X149536265Y-91797201D01*
X149476284Y-91747977D01*
X149427060Y-91687996D01*
X149390486Y-91619571D01*
X149390485Y-91619568D01*
X149375394Y-91569822D01*
X149366019Y-91547191D01*
X149352405Y-91526816D01*
X149335078Y-91509489D01*
X149314704Y-91495876D01*
X149292065Y-91486498D01*
X149268032Y-91481718D01*
X149243528Y-91481718D01*
X149219495Y-91486498D01*
X149196856Y-91495876D01*
X149176481Y-91509490D01*
X149159154Y-91526817D01*
X149145541Y-91547191D01*
X149136166Y-91569823D01*
X149121076Y-91619568D01*
X149121075Y-91619571D01*
X149084501Y-91687996D01*
X149035277Y-91747977D01*
X148975296Y-91797201D01*
X148906871Y-91833775D01*
X148906868Y-91833776D01*
X148832618Y-91856300D01*
X148755400Y-91863905D01*
X148678183Y-91856300D01*
X148603933Y-91833776D01*
X148603930Y-91833775D01*
X148535505Y-91797201D01*
X148475524Y-91747977D01*
X148426300Y-91687996D01*
X148389726Y-91619571D01*
X148389725Y-91619568D01*
X148374634Y-91569822D01*
X148365259Y-91547191D01*
X148351645Y-91526816D01*
X148334318Y-91509489D01*
X148313944Y-91495876D01*
X148291305Y-91486498D01*
X148267272Y-91481718D01*
X148242768Y-91481718D01*
X148218735Y-91486498D01*
X148196096Y-91495876D01*
X148175721Y-91509490D01*
X148158394Y-91526817D01*
X148144781Y-91547191D01*
X148135406Y-91569823D01*
X148120316Y-91619568D01*
X148120315Y-91619571D01*
X148083741Y-91687996D01*
X148034517Y-91747977D01*
X147974536Y-91797201D01*
X147906111Y-91833775D01*
X147906108Y-91833776D01*
X147831858Y-91856300D01*
X147754640Y-91863905D01*
X147677423Y-91856300D01*
X147603173Y-91833776D01*
X147603170Y-91833775D01*
X147534745Y-91797201D01*
X147474764Y-91747977D01*
X147425540Y-91687996D01*
X147388966Y-91619571D01*
X147388965Y-91619568D01*
X147373874Y-91569822D01*
X147364499Y-91547191D01*
X147350885Y-91526816D01*
X147333558Y-91509489D01*
X147313184Y-91495876D01*
X147290545Y-91486498D01*
X147266512Y-91481718D01*
X147242008Y-91481718D01*
X147217975Y-91486498D01*
X147195336Y-91495876D01*
X147174961Y-91509490D01*
X147157634Y-91526817D01*
X147144021Y-91547191D01*
X147134646Y-91569823D01*
X147119556Y-91619568D01*
X147119555Y-91619571D01*
X147082981Y-91687996D01*
X147033757Y-91747977D01*
X146973776Y-91797201D01*
X146905351Y-91833775D01*
X146905348Y-91833776D01*
X146831098Y-91856300D01*
X146753880Y-91863905D01*
X146676663Y-91856300D01*
X146602413Y-91833776D01*
X146602410Y-91833775D01*
X146533985Y-91797201D01*
X146474004Y-91747977D01*
X146424780Y-91687996D01*
X146388206Y-91619571D01*
X146388205Y-91619568D01*
X146365680Y-91545318D01*
X146359980Y-91487443D01*
X146359980Y-91067758D01*
X146365680Y-91009883D01*
X146388204Y-90935633D01*
X146424780Y-90867204D01*
X146424782Y-90867200D01*
X146474003Y-90807223D01*
X146533984Y-90757999D01*
X146602409Y-90721425D01*
X146602412Y-90721424D01*
X146676662Y-90698900D01*
X146753880Y-90691295D01*
X146831097Y-90698900D01*
X146905347Y-90721424D01*
X146959734Y-90750494D01*
X146973780Y-90758002D01*
X147033757Y-90807223D01*
X147082981Y-90867204D01*
X147119555Y-90935628D01*
X147119557Y-90935634D01*
X147134645Y-90985373D01*
X147144020Y-91008007D01*
X147157634Y-91028381D01*
X147174961Y-91045708D01*
X147195335Y-91059322D01*
X147217974Y-91068699D01*
X147242007Y-91073480D01*
X147266512Y-91073480D01*
X147290545Y-91068700D01*
X147313184Y-91059323D01*
X147333558Y-91045709D01*
X147350885Y-91028382D01*
X147364499Y-91008008D01*
X147373877Y-90985368D01*
X147388964Y-90935634D01*
X147388964Y-90935633D01*
X147425540Y-90867204D01*
X147425542Y-90867200D01*
X147474763Y-90807223D01*
X147534744Y-90757999D01*
X147603169Y-90721425D01*
X147603172Y-90721424D01*
X147677422Y-90698900D01*
X147754640Y-90691295D01*
X147831857Y-90698900D01*
X147906107Y-90721424D01*
X147960494Y-90750494D01*
X147974540Y-90758002D01*
X148034517Y-90807223D01*
X148083741Y-90867204D01*
X148120315Y-90935628D01*
X148120317Y-90935634D01*
X148135405Y-90985373D01*
X148144780Y-91008007D01*
X148158394Y-91028381D01*
X148175721Y-91045708D01*
X148196095Y-91059322D01*
X148218734Y-91068699D01*
X148242767Y-91073480D01*
X148267272Y-91073480D01*
X148291305Y-91068700D01*
X148313944Y-91059323D01*
X148334318Y-91045709D01*
X148351645Y-91028382D01*
X148365259Y-91008008D01*
X148374637Y-90985368D01*
X148389724Y-90935634D01*
X148389724Y-90935633D01*
X148426300Y-90867204D01*
X148426302Y-90867200D01*
X148475523Y-90807223D01*
X148535504Y-90757999D01*
X148603929Y-90721425D01*
X148603932Y-90721424D01*
X148678182Y-90698900D01*
X148755400Y-90691295D01*
X148832617Y-90698900D01*
X148906867Y-90721424D01*
X148961254Y-90750494D01*
X148975300Y-90758002D01*
X149035277Y-90807223D01*
X149084501Y-90867204D01*
X149121075Y-90935628D01*
X149121077Y-90935634D01*
X149136165Y-90985373D01*
X149145540Y-91008007D01*
X149159154Y-91028381D01*
X149176481Y-91045708D01*
X149196855Y-91059322D01*
X149219494Y-91068699D01*
X149243527Y-91073480D01*
X149268032Y-91073480D01*
X149292065Y-91068700D01*
X149314704Y-91059323D01*
X149335078Y-91045709D01*
X149352405Y-91028382D01*
X149366019Y-91008008D01*
X149375397Y-90985368D01*
X149390484Y-90935634D01*
X149390484Y-90935633D01*
X149427060Y-90867204D01*
X149427062Y-90867200D01*
X149476283Y-90807223D01*
X149536264Y-90757999D01*
X149604689Y-90721425D01*
X149604692Y-90721424D01*
X149678942Y-90698900D01*
X149756160Y-90691295D01*
X149833377Y-90698900D01*
X149907627Y-90721424D01*
X149962014Y-90750494D01*
X149976060Y-90758002D01*
X150036037Y-90807223D01*
X150085261Y-90867204D01*
X150121835Y-90935628D01*
X150121837Y-90935634D01*
X150136925Y-90985373D01*
X150146300Y-91008007D01*
X150159914Y-91028381D01*
X150177241Y-91045708D01*
X150197615Y-91059322D01*
X150220254Y-91068699D01*
X150244287Y-91073480D01*
X150268792Y-91073480D01*
X150292825Y-91068700D01*
X150315464Y-91059323D01*
X150335838Y-91045709D01*
X150353165Y-91028382D01*
X150366779Y-91008008D01*
X150376157Y-90985368D01*
X150391244Y-90935634D01*
X150391244Y-90935633D01*
X150427820Y-90867204D01*
X150427822Y-90867200D01*
X150477043Y-90807223D01*
X150537024Y-90757999D01*
X150605449Y-90721425D01*
X150605452Y-90721424D01*
X150679702Y-90698900D01*
X150756920Y-90691295D01*
X150834137Y-90698900D01*
X150908387Y-90721424D01*
X150962774Y-90750494D01*
X150976820Y-90758002D01*
X151036797Y-90807223D01*
X151086021Y-90867204D01*
X151122595Y-90935628D01*
X151122597Y-90935634D01*
X151137685Y-90985373D01*
X151147060Y-91008007D01*
X151160674Y-91028381D01*
X151178001Y-91045708D01*
X151198375Y-91059322D01*
X151221014Y-91068699D01*
X151245047Y-91073480D01*
X151269552Y-91073480D01*
X151293585Y-91068700D01*
X151316224Y-91059323D01*
X151336598Y-91045709D01*
X151353925Y-91028382D01*
X151367539Y-91008008D01*
X151376917Y-90985368D01*
X151392004Y-90935634D01*
X151392004Y-90935633D01*
X151428580Y-90867204D01*
X151428582Y-90867200D01*
X151477803Y-90807223D01*
X151537784Y-90757999D01*
X151606209Y-90721425D01*
X151606212Y-90721424D01*
X151680462Y-90698900D01*
X151757680Y-90691295D01*
X151834897Y-90698900D01*
X151909147Y-90721424D01*
X151963534Y-90750494D01*
X151977580Y-90758002D01*
X152037557Y-90807223D01*
X152086781Y-90867204D01*
X152123355Y-90935628D01*
X152123357Y-90935634D01*
X152138445Y-90985373D01*
X152147820Y-91008007D01*
X152161434Y-91028381D01*
X152178761Y-91045708D01*
X152199135Y-91059322D01*
X152221774Y-91068699D01*
X152245807Y-91073480D01*
X152270312Y-91073480D01*
X152294345Y-91068700D01*
X152316984Y-91059323D01*
X152337358Y-91045709D01*
X152354685Y-91028382D01*
X152368299Y-91008008D01*
X152377677Y-90985368D01*
X152392764Y-90935634D01*
X152392764Y-90935633D01*
X152429340Y-90867204D01*
X152429342Y-90867200D01*
X152478563Y-90807223D01*
X152538544Y-90757999D01*
X152606969Y-90721425D01*
X152606972Y-90721424D01*
X152681222Y-90698900D01*
X152758440Y-90691295D01*
X152835657Y-90698900D01*
X152909907Y-90721424D01*
X152964294Y-90750494D01*
X152978340Y-90758002D01*
X153038317Y-90807223D01*
X153087541Y-90867204D01*
X153124115Y-90935628D01*
X153124117Y-90935634D01*
X153139205Y-90985373D01*
X153148580Y-91008007D01*
X153162194Y-91028381D01*
X153179521Y-91045708D01*
X153199895Y-91059322D01*
X153222534Y-91068699D01*
X153246567Y-91073480D01*
X153271072Y-91073480D01*
X153295105Y-91068700D01*
X153317744Y-91059323D01*
X153338118Y-91045709D01*
X153355445Y-91028382D01*
X153369059Y-91008008D01*
X153378437Y-90985368D01*
X153393524Y-90935634D01*
X153393524Y-90935633D01*
X153430100Y-90867204D01*
X153430102Y-90867200D01*
X153479323Y-90807223D01*
X153539304Y-90757999D01*
X153607729Y-90721425D01*
X153607732Y-90721424D01*
X153681982Y-90698900D01*
X153759200Y-90691295D01*
X153836417Y-90698900D01*
X153836417Y-90698900D01*
G37*
G36*
X153336037Y-88158900D02*
G01*
X153410287Y-88181424D01*
X153464674Y-88210494D01*
X153478720Y-88218002D01*
X153538697Y-88267223D01*
X153587921Y-88327204D01*
X153624495Y-88395629D01*
X153624496Y-88395632D01*
X153647020Y-88469882D01*
X153652720Y-88527757D01*
X153652720Y-88947443D01*
X153647020Y-89005318D01*
X153628774Y-89065466D01*
X153624495Y-89079572D01*
X153587921Y-89147996D01*
X153538697Y-89207977D01*
X153478716Y-89257201D01*
X153410291Y-89293775D01*
X153410288Y-89293776D01*
X153336038Y-89316300D01*
X153258820Y-89323905D01*
X153181603Y-89316300D01*
X153107353Y-89293776D01*
X153107350Y-89293775D01*
X153038925Y-89257201D01*
X152978944Y-89207977D01*
X152929720Y-89147996D01*
X152893146Y-89079571D01*
X152893145Y-89079568D01*
X152878054Y-89029822D01*
X152868679Y-89007191D01*
X152855065Y-88986816D01*
X152837738Y-88969489D01*
X152817364Y-88955876D01*
X152794725Y-88946498D01*
X152770692Y-88941718D01*
X152746188Y-88941718D01*
X152722155Y-88946498D01*
X152699516Y-88955876D01*
X152679141Y-88969490D01*
X152661814Y-88986817D01*
X152648201Y-89007191D01*
X152638826Y-89029823D01*
X152623736Y-89079568D01*
X152623735Y-89079571D01*
X152587161Y-89147996D01*
X152537937Y-89207977D01*
X152477956Y-89257201D01*
X152409531Y-89293775D01*
X152409528Y-89293776D01*
X152335278Y-89316300D01*
X152258060Y-89323905D01*
X152180843Y-89316300D01*
X152106593Y-89293776D01*
X152106590Y-89293775D01*
X152038165Y-89257201D01*
X151978184Y-89207977D01*
X151928960Y-89147996D01*
X151892386Y-89079571D01*
X151892385Y-89079568D01*
X151877294Y-89029822D01*
X151867919Y-89007191D01*
X151854305Y-88986816D01*
X151836978Y-88969489D01*
X151816604Y-88955876D01*
X151793965Y-88946498D01*
X151769932Y-88941718D01*
X151745428Y-88941718D01*
X151721395Y-88946498D01*
X151698756Y-88955876D01*
X151678381Y-88969490D01*
X151661054Y-88986817D01*
X151647441Y-89007191D01*
X151638066Y-89029823D01*
X151622976Y-89079568D01*
X151622975Y-89079571D01*
X151586401Y-89147996D01*
X151537177Y-89207977D01*
X151477196Y-89257201D01*
X151408771Y-89293775D01*
X151408768Y-89293776D01*
X151334518Y-89316300D01*
X151257300Y-89323905D01*
X151180083Y-89316300D01*
X151105833Y-89293776D01*
X151105830Y-89293775D01*
X151037405Y-89257201D01*
X150977424Y-89207977D01*
X150928200Y-89147996D01*
X150891626Y-89079571D01*
X150891625Y-89079568D01*
X150876534Y-89029822D01*
X150867159Y-89007191D01*
X150853545Y-88986816D01*
X150836218Y-88969489D01*
X150815844Y-88955876D01*
X150793205Y-88946498D01*
X150769172Y-88941718D01*
X150744668Y-88941718D01*
X150720635Y-88946498D01*
X150697996Y-88955876D01*
X150677621Y-88969490D01*
X150660294Y-88986817D01*
X150646681Y-89007191D01*
X150637306Y-89029823D01*
X150622216Y-89079568D01*
X150622215Y-89079571D01*
X150585641Y-89147996D01*
X150536417Y-89207977D01*
X150476436Y-89257201D01*
X150408011Y-89293775D01*
X150408008Y-89293776D01*
X150333758Y-89316300D01*
X150256540Y-89323905D01*
X150179323Y-89316300D01*
X150105073Y-89293776D01*
X150105070Y-89293775D01*
X150036645Y-89257201D01*
X149976664Y-89207977D01*
X149927440Y-89147996D01*
X149890866Y-89079571D01*
X149890865Y-89079568D01*
X149875774Y-89029822D01*
X149866399Y-89007191D01*
X149852785Y-88986816D01*
X149835458Y-88969489D01*
X149815084Y-88955876D01*
X149792445Y-88946498D01*
X149768412Y-88941718D01*
X149743908Y-88941718D01*
X149719875Y-88946498D01*
X149697236Y-88955876D01*
X149676861Y-88969490D01*
X149659534Y-88986817D01*
X149645921Y-89007191D01*
X149636546Y-89029823D01*
X149621456Y-89079568D01*
X149621455Y-89079571D01*
X149584881Y-89147996D01*
X149535657Y-89207977D01*
X149475676Y-89257201D01*
X149407251Y-89293775D01*
X149407248Y-89293776D01*
X149332998Y-89316300D01*
X149255780Y-89323905D01*
X149178563Y-89316300D01*
X149104313Y-89293776D01*
X149104310Y-89293775D01*
X149035885Y-89257201D01*
X148975904Y-89207977D01*
X148926680Y-89147996D01*
X148890106Y-89079571D01*
X148890105Y-89079568D01*
X148875014Y-89029822D01*
X148865639Y-89007191D01*
X148852025Y-88986816D01*
X148834698Y-88969489D01*
X148814324Y-88955876D01*
X148791685Y-88946498D01*
X148767652Y-88941718D01*
X148743148Y-88941718D01*
X148719115Y-88946498D01*
X148696476Y-88955876D01*
X148676101Y-88969490D01*
X148658774Y-88986817D01*
X148645161Y-89007191D01*
X148635786Y-89029823D01*
X148620696Y-89079568D01*
X148620695Y-89079571D01*
X148584121Y-89147996D01*
X148534897Y-89207977D01*
X148474916Y-89257201D01*
X148406491Y-89293775D01*
X148406488Y-89293776D01*
X148332238Y-89316300D01*
X148255020Y-89323905D01*
X148177803Y-89316300D01*
X148103553Y-89293776D01*
X148103550Y-89293775D01*
X148035125Y-89257201D01*
X147975144Y-89207977D01*
X147925920Y-89147996D01*
X147889346Y-89079571D01*
X147889345Y-89079568D01*
X147874254Y-89029822D01*
X147864879Y-89007191D01*
X147851265Y-88986816D01*
X147833938Y-88969489D01*
X147813564Y-88955876D01*
X147790925Y-88946498D01*
X147766892Y-88941718D01*
X147742388Y-88941718D01*
X147718355Y-88946498D01*
X147695716Y-88955876D01*
X147675341Y-88969490D01*
X147658014Y-88986817D01*
X147644401Y-89007191D01*
X147635026Y-89029823D01*
X147619936Y-89079568D01*
X147619935Y-89079571D01*
X147583361Y-89147996D01*
X147534137Y-89207977D01*
X147474156Y-89257201D01*
X147405731Y-89293775D01*
X147405728Y-89293776D01*
X147331478Y-89316300D01*
X147254260Y-89323905D01*
X147177043Y-89316300D01*
X147102793Y-89293776D01*
X147102790Y-89293775D01*
X147034365Y-89257201D01*
X146974384Y-89207977D01*
X146925160Y-89147996D01*
X146888586Y-89079571D01*
X146888585Y-89079568D01*
X146873494Y-89029822D01*
X146864119Y-89007191D01*
X146850505Y-88986816D01*
X146833178Y-88969489D01*
X146812804Y-88955876D01*
X146790165Y-88946498D01*
X146766132Y-88941718D01*
X146741628Y-88941718D01*
X146717595Y-88946498D01*
X146694956Y-88955876D01*
X146674581Y-88969490D01*
X146657254Y-88986817D01*
X146643641Y-89007191D01*
X146634266Y-89029823D01*
X146619176Y-89079568D01*
X146619175Y-89079571D01*
X146582601Y-89147996D01*
X146533377Y-89207977D01*
X146473396Y-89257201D01*
X146404971Y-89293775D01*
X146404968Y-89293776D01*
X146330718Y-89316300D01*
X146253500Y-89323905D01*
X146176283Y-89316300D01*
X146102033Y-89293776D01*
X146102030Y-89293775D01*
X146033605Y-89257201D01*
X145973624Y-89207977D01*
X145924400Y-89147996D01*
X145887826Y-89079571D01*
X145887825Y-89079568D01*
X145865300Y-89005318D01*
X145859600Y-88947443D01*
X145859600Y-88527758D01*
X145865300Y-88469883D01*
X145887824Y-88395633D01*
X145924400Y-88327204D01*
X145924402Y-88327200D01*
X145973623Y-88267223D01*
X146033604Y-88217999D01*
X146102029Y-88181425D01*
X146102032Y-88181424D01*
X146176282Y-88158900D01*
X146253500Y-88151295D01*
X146330717Y-88158900D01*
X146404967Y-88181424D01*
X146459354Y-88210494D01*
X146473400Y-88218002D01*
X146533377Y-88267223D01*
X146582601Y-88327204D01*
X146619175Y-88395628D01*
X146619177Y-88395634D01*
X146634265Y-88445373D01*
X146643640Y-88468007D01*
X146657254Y-88488381D01*
X146674581Y-88505708D01*
X146694955Y-88519322D01*
X146717594Y-88528699D01*
X146741627Y-88533480D01*
X146766132Y-88533480D01*
X146790165Y-88528700D01*
X146812804Y-88519323D01*
X146833178Y-88505709D01*
X146850505Y-88488382D01*
X146864119Y-88468008D01*
X146873497Y-88445368D01*
X146888584Y-88395634D01*
X146888584Y-88395633D01*
X146925160Y-88327204D01*
X146925162Y-88327200D01*
X146974383Y-88267223D01*
X147034364Y-88217999D01*
X147102789Y-88181425D01*
X147102792Y-88181424D01*
X147177042Y-88158900D01*
X147254260Y-88151295D01*
X147331477Y-88158900D01*
X147405727Y-88181424D01*
X147460114Y-88210494D01*
X147474160Y-88218002D01*
X147534137Y-88267223D01*
X147583361Y-88327204D01*
X147619935Y-88395628D01*
X147619937Y-88395634D01*
X147635025Y-88445373D01*
X147644400Y-88468007D01*
X147658014Y-88488381D01*
X147675341Y-88505708D01*
X147695715Y-88519322D01*
X147718354Y-88528699D01*
X147742387Y-88533480D01*
X147766892Y-88533480D01*
X147790925Y-88528700D01*
X147813564Y-88519323D01*
X147833938Y-88505709D01*
X147851265Y-88488382D01*
X147864879Y-88468008D01*
X147874257Y-88445368D01*
X147889344Y-88395634D01*
X147889344Y-88395633D01*
X147925920Y-88327204D01*
X147925922Y-88327200D01*
X147975143Y-88267223D01*
X148035124Y-88217999D01*
X148103549Y-88181425D01*
X148103552Y-88181424D01*
X148177802Y-88158900D01*
X148255020Y-88151295D01*
X148332237Y-88158900D01*
X148406487Y-88181424D01*
X148460874Y-88210494D01*
X148474920Y-88218002D01*
X148534897Y-88267223D01*
X148584121Y-88327204D01*
X148620695Y-88395628D01*
X148620697Y-88395634D01*
X148635785Y-88445373D01*
X148645160Y-88468007D01*
X148658774Y-88488381D01*
X148676101Y-88505708D01*
X148696475Y-88519322D01*
X148719114Y-88528699D01*
X148743147Y-88533480D01*
X148767652Y-88533480D01*
X148791685Y-88528700D01*
X148814324Y-88519323D01*
X148834698Y-88505709D01*
X148852025Y-88488382D01*
X148865639Y-88468008D01*
X148875017Y-88445368D01*
X148890104Y-88395634D01*
X148890104Y-88395633D01*
X148926680Y-88327204D01*
X148926682Y-88327200D01*
X148975903Y-88267223D01*
X149035884Y-88217999D01*
X149104309Y-88181425D01*
X149104312Y-88181424D01*
X149178562Y-88158900D01*
X149255780Y-88151295D01*
X149332997Y-88158900D01*
X149407247Y-88181424D01*
X149461634Y-88210494D01*
X149475680Y-88218002D01*
X149535657Y-88267223D01*
X149584881Y-88327204D01*
X149621455Y-88395628D01*
X149621457Y-88395634D01*
X149636545Y-88445373D01*
X149645920Y-88468007D01*
X149659534Y-88488381D01*
X149676861Y-88505708D01*
X149697235Y-88519322D01*
X149719874Y-88528699D01*
X149743907Y-88533480D01*
X149768412Y-88533480D01*
X149792445Y-88528700D01*
X149815084Y-88519323D01*
X149835458Y-88505709D01*
X149852785Y-88488382D01*
X149866399Y-88468008D01*
X149875777Y-88445368D01*
X149890864Y-88395634D01*
X149890864Y-88395633D01*
X149927440Y-88327204D01*
X149927442Y-88327200D01*
X149976663Y-88267223D01*
X150036644Y-88217999D01*
X150105069Y-88181425D01*
X150105072Y-88181424D01*
X150179322Y-88158900D01*
X150256540Y-88151295D01*
X150333757Y-88158900D01*
X150408007Y-88181424D01*
X150462394Y-88210494D01*
X150476440Y-88218002D01*
X150536417Y-88267223D01*
X150585641Y-88327204D01*
X150622215Y-88395628D01*
X150622217Y-88395634D01*
X150637305Y-88445373D01*
X150646680Y-88468007D01*
X150660294Y-88488381D01*
X150677621Y-88505708D01*
X150697995Y-88519322D01*
X150720634Y-88528699D01*
X150744667Y-88533480D01*
X150769172Y-88533480D01*
X150793205Y-88528700D01*
X150815844Y-88519323D01*
X150836218Y-88505709D01*
X150853545Y-88488382D01*
X150867159Y-88468008D01*
X150876537Y-88445368D01*
X150891624Y-88395634D01*
X150891624Y-88395633D01*
X150928200Y-88327204D01*
X150928202Y-88327200D01*
X150977423Y-88267223D01*
X151037404Y-88217999D01*
X151105829Y-88181425D01*
X151105832Y-88181424D01*
X151180082Y-88158900D01*
X151257300Y-88151295D01*
X151334517Y-88158900D01*
X151408767Y-88181424D01*
X151463154Y-88210494D01*
X151477200Y-88218002D01*
X151537177Y-88267223D01*
X151586401Y-88327204D01*
X151622975Y-88395628D01*
X151622977Y-88395634D01*
X151638065Y-88445373D01*
X151647440Y-88468007D01*
X151661054Y-88488381D01*
X151678381Y-88505708D01*
X151698755Y-88519322D01*
X151721394Y-88528699D01*
X151745427Y-88533480D01*
X151769932Y-88533480D01*
X151793965Y-88528700D01*
X151816604Y-88519323D01*
X151836978Y-88505709D01*
X151854305Y-88488382D01*
X151867919Y-88468008D01*
X151877297Y-88445368D01*
X151892384Y-88395634D01*
X151892384Y-88395633D01*
X151928960Y-88327204D01*
X151928962Y-88327200D01*
X151978183Y-88267223D01*
X152038164Y-88217999D01*
X152106589Y-88181425D01*
X152106592Y-88181424D01*
X152180842Y-88158900D01*
X152258060Y-88151295D01*
X152335277Y-88158900D01*
X152409527Y-88181424D01*
X152463914Y-88210494D01*
X152477960Y-88218002D01*
X152537937Y-88267223D01*
X152587161Y-88327204D01*
X152623735Y-88395628D01*
X152623737Y-88395634D01*
X152638825Y-88445373D01*
X152648200Y-88468007D01*
X152661814Y-88488381D01*
X152679141Y-88505708D01*
X152699515Y-88519322D01*
X152722154Y-88528699D01*
X152746187Y-88533480D01*
X152770692Y-88533480D01*
X152794725Y-88528700D01*
X152817364Y-88519323D01*
X152837738Y-88505709D01*
X152855065Y-88488382D01*
X152868679Y-88468008D01*
X152878057Y-88445368D01*
X152893144Y-88395634D01*
X152893144Y-88395633D01*
X152929720Y-88327204D01*
X152929722Y-88327200D01*
X152978943Y-88267223D01*
X153038924Y-88217999D01*
X153107349Y-88181425D01*
X153107352Y-88181424D01*
X153181602Y-88158900D01*
X153258820Y-88151295D01*
X153336037Y-88158900D01*
X153336037Y-88158900D01*
G37*
G36*
X138799135Y-76361880D02*
G01*
X138837718Y-76365680D01*
X138911968Y-76388204D01*
X138911971Y-76388205D01*
X138980396Y-76424779D01*
X139040377Y-76474003D01*
X139089601Y-76533984D01*
X139126175Y-76602409D01*
X139126176Y-76602412D01*
X139148700Y-76676662D01*
X139156305Y-76753880D01*
X139148700Y-76831098D01*
X139130028Y-76892651D01*
X139126175Y-76905351D01*
X139089601Y-76973776D01*
X139040377Y-77033757D01*
X138980396Y-77082981D01*
X138911972Y-77119555D01*
X138898783Y-77123556D01*
X138862227Y-77134645D01*
X138839593Y-77144020D01*
X138819219Y-77157634D01*
X138801892Y-77174961D01*
X138788278Y-77195335D01*
X138778901Y-77217974D01*
X138774120Y-77242007D01*
X138774120Y-77266512D01*
X138778900Y-77290545D01*
X138788277Y-77313184D01*
X138801891Y-77333558D01*
X138819218Y-77350885D01*
X138839592Y-77364499D01*
X138862227Y-77373875D01*
X138898783Y-77384964D01*
X138911972Y-77388965D01*
X138980396Y-77425539D01*
X139040377Y-77474763D01*
X139089601Y-77534744D01*
X139126175Y-77603169D01*
X139126176Y-77603172D01*
X139148700Y-77677422D01*
X139156305Y-77754640D01*
X139148700Y-77831858D01*
X139130028Y-77893411D01*
X139126175Y-77906111D01*
X139089601Y-77974536D01*
X139040377Y-78034517D01*
X138980396Y-78083741D01*
X138911972Y-78120315D01*
X138898783Y-78124316D01*
X138862227Y-78135405D01*
X138839593Y-78144780D01*
X138819219Y-78158394D01*
X138801892Y-78175721D01*
X138788278Y-78196095D01*
X138778901Y-78218734D01*
X138774120Y-78242767D01*
X138774120Y-78267272D01*
X138778900Y-78291305D01*
X138788277Y-78313944D01*
X138801891Y-78334318D01*
X138819218Y-78351645D01*
X138839592Y-78365259D01*
X138862227Y-78374635D01*
X138898783Y-78385724D01*
X138911972Y-78389725D01*
X138980396Y-78426299D01*
X139040377Y-78475523D01*
X139089601Y-78535504D01*
X139126175Y-78603929D01*
X139126176Y-78603932D01*
X139148700Y-78678182D01*
X139156305Y-78755400D01*
X139148700Y-78832618D01*
X139130028Y-78894171D01*
X139126175Y-78906871D01*
X139089601Y-78975296D01*
X139040377Y-79035277D01*
X138980396Y-79084501D01*
X138911972Y-79121075D01*
X138898783Y-79125076D01*
X138862227Y-79136165D01*
X138839593Y-79145540D01*
X138819219Y-79159154D01*
X138801892Y-79176481D01*
X138788278Y-79196855D01*
X138778901Y-79219494D01*
X138774120Y-79243527D01*
X138774120Y-79268032D01*
X138778900Y-79292065D01*
X138788277Y-79314704D01*
X138801891Y-79335078D01*
X138819218Y-79352405D01*
X138839592Y-79366019D01*
X138862227Y-79375395D01*
X138898783Y-79386484D01*
X138911972Y-79390485D01*
X138980396Y-79427059D01*
X139040377Y-79476283D01*
X139089601Y-79536264D01*
X139126175Y-79604689D01*
X139126176Y-79604692D01*
X139148700Y-79678942D01*
X139156305Y-79756160D01*
X139148700Y-79833378D01*
X139130028Y-79894931D01*
X139126175Y-79907631D01*
X139089601Y-79976056D01*
X139040377Y-80036037D01*
X138980396Y-80085261D01*
X138911972Y-80121835D01*
X138898783Y-80125836D01*
X138862227Y-80136925D01*
X138839593Y-80146300D01*
X138819219Y-80159914D01*
X138801892Y-80177241D01*
X138788278Y-80197615D01*
X138778901Y-80220254D01*
X138774120Y-80244287D01*
X138774120Y-80268792D01*
X138778900Y-80292825D01*
X138788277Y-80315464D01*
X138801891Y-80335838D01*
X138819218Y-80353165D01*
X138839592Y-80366779D01*
X138862227Y-80376155D01*
X138898783Y-80387244D01*
X138911972Y-80391245D01*
X138980396Y-80427819D01*
X139040377Y-80477043D01*
X139089601Y-80537024D01*
X139126175Y-80605449D01*
X139126176Y-80605452D01*
X139148700Y-80679702D01*
X139156305Y-80756920D01*
X139148700Y-80834138D01*
X139130028Y-80895691D01*
X139126175Y-80908391D01*
X139089601Y-80976816D01*
X139040377Y-81036797D01*
X138980396Y-81086021D01*
X138911972Y-81122595D01*
X138898783Y-81126596D01*
X138862227Y-81137685D01*
X138839593Y-81147060D01*
X138819219Y-81160674D01*
X138801892Y-81178001D01*
X138788278Y-81198375D01*
X138778901Y-81221014D01*
X138774120Y-81245047D01*
X138774120Y-81269552D01*
X138778900Y-81293585D01*
X138788277Y-81316224D01*
X138801891Y-81336598D01*
X138819218Y-81353925D01*
X138839592Y-81367539D01*
X138862227Y-81376915D01*
X138898783Y-81388004D01*
X138911972Y-81392005D01*
X138980396Y-81428579D01*
X139040377Y-81477803D01*
X139089601Y-81537784D01*
X139126175Y-81606209D01*
X139126176Y-81606212D01*
X139148700Y-81680462D01*
X139156305Y-81757680D01*
X139148700Y-81834898D01*
X139130028Y-81896451D01*
X139126175Y-81909151D01*
X139089601Y-81977576D01*
X139040377Y-82037557D01*
X138980396Y-82086781D01*
X138911972Y-82123355D01*
X138898783Y-82127356D01*
X138862227Y-82138445D01*
X138839593Y-82147820D01*
X138819219Y-82161434D01*
X138801892Y-82178761D01*
X138788278Y-82199135D01*
X138778901Y-82221774D01*
X138774120Y-82245807D01*
X138774120Y-82270312D01*
X138778900Y-82294345D01*
X138788277Y-82316984D01*
X138801891Y-82337358D01*
X138819218Y-82354685D01*
X138839592Y-82368299D01*
X138862227Y-82377675D01*
X138898783Y-82388764D01*
X138911972Y-82392765D01*
X138980396Y-82429339D01*
X139040377Y-82478563D01*
X139089601Y-82538544D01*
X139126175Y-82606969D01*
X139126176Y-82606972D01*
X139148700Y-82681222D01*
X139156305Y-82758440D01*
X139148700Y-82835658D01*
X139130028Y-82897211D01*
X139126175Y-82909911D01*
X139089601Y-82978336D01*
X139040377Y-83038317D01*
X138980396Y-83087541D01*
X138911972Y-83124115D01*
X138898783Y-83128116D01*
X138862227Y-83139205D01*
X138839593Y-83148580D01*
X138819219Y-83162194D01*
X138801892Y-83179521D01*
X138788278Y-83199895D01*
X138778901Y-83222534D01*
X138774120Y-83246567D01*
X138774120Y-83271072D01*
X138778900Y-83295105D01*
X138788277Y-83317744D01*
X138801891Y-83338118D01*
X138819218Y-83355445D01*
X138839592Y-83369059D01*
X138862227Y-83378435D01*
X138898783Y-83389524D01*
X138911972Y-83393525D01*
X138980396Y-83430099D01*
X139040377Y-83479323D01*
X139089601Y-83539304D01*
X139126175Y-83607729D01*
X139126176Y-83607732D01*
X139148700Y-83681982D01*
X139156305Y-83759200D01*
X139148700Y-83836418D01*
X139130028Y-83897971D01*
X139126175Y-83910671D01*
X139089601Y-83979096D01*
X139040377Y-84039077D01*
X138980396Y-84088301D01*
X138911971Y-84124875D01*
X138911968Y-84124876D01*
X138837718Y-84147400D01*
X138799135Y-84151200D01*
X138779844Y-84153100D01*
X138360156Y-84153100D01*
X138340865Y-84151200D01*
X138302282Y-84147400D01*
X138228032Y-84124876D01*
X138228029Y-84124875D01*
X138159604Y-84088301D01*
X138099623Y-84039077D01*
X138050399Y-83979096D01*
X138013825Y-83910671D01*
X138009972Y-83897971D01*
X137991300Y-83836418D01*
X137983695Y-83759200D01*
X137991300Y-83681982D01*
X138013824Y-83607732D01*
X138013825Y-83607729D01*
X138050399Y-83539304D01*
X138099623Y-83479323D01*
X138159604Y-83430099D01*
X138228028Y-83393525D01*
X138241217Y-83389524D01*
X138277773Y-83378435D01*
X138300407Y-83369060D01*
X138320781Y-83355446D01*
X138338108Y-83338119D01*
X138351722Y-83317745D01*
X138361099Y-83295106D01*
X138365880Y-83271073D01*
X138365880Y-83246568D01*
X138361100Y-83222535D01*
X138351723Y-83199896D01*
X138338109Y-83179522D01*
X138320782Y-83162195D01*
X138300408Y-83148581D01*
X138277773Y-83139205D01*
X138241217Y-83128116D01*
X138228028Y-83124115D01*
X138159604Y-83087541D01*
X138099623Y-83038317D01*
X138050399Y-82978336D01*
X138013825Y-82909911D01*
X138009972Y-82897211D01*
X137991300Y-82835658D01*
X137983695Y-82758440D01*
X137991300Y-82681222D01*
X138013824Y-82606972D01*
X138013825Y-82606969D01*
X138050399Y-82538544D01*
X138099623Y-82478563D01*
X138159604Y-82429339D01*
X138228028Y-82392765D01*
X138241217Y-82388764D01*
X138277773Y-82377675D01*
X138300407Y-82368300D01*
X138320781Y-82354686D01*
X138338108Y-82337359D01*
X138351722Y-82316985D01*
X138361099Y-82294346D01*
X138365880Y-82270313D01*
X138365880Y-82245808D01*
X138361100Y-82221775D01*
X138351723Y-82199136D01*
X138338109Y-82178762D01*
X138320782Y-82161435D01*
X138300408Y-82147821D01*
X138277773Y-82138445D01*
X138241217Y-82127356D01*
X138228028Y-82123355D01*
X138159604Y-82086781D01*
X138099623Y-82037557D01*
X138050399Y-81977576D01*
X138013825Y-81909151D01*
X138009972Y-81896451D01*
X137991300Y-81834898D01*
X137983695Y-81757680D01*
X137991300Y-81680462D01*
X138013824Y-81606212D01*
X138013825Y-81606209D01*
X138050399Y-81537784D01*
X138099623Y-81477803D01*
X138159604Y-81428579D01*
X138228028Y-81392005D01*
X138241217Y-81388004D01*
X138277773Y-81376915D01*
X138300407Y-81367540D01*
X138320781Y-81353926D01*
X138338108Y-81336599D01*
X138351722Y-81316225D01*
X138361099Y-81293586D01*
X138365880Y-81269553D01*
X138365880Y-81245048D01*
X138361100Y-81221015D01*
X138351723Y-81198376D01*
X138338109Y-81178002D01*
X138320782Y-81160675D01*
X138300408Y-81147061D01*
X138277773Y-81137685D01*
X138241217Y-81126596D01*
X138228028Y-81122595D01*
X138159604Y-81086021D01*
X138099623Y-81036797D01*
X138050399Y-80976816D01*
X138013825Y-80908391D01*
X138009972Y-80895691D01*
X137991300Y-80834138D01*
X137983695Y-80756920D01*
X137991300Y-80679702D01*
X138013824Y-80605452D01*
X138013825Y-80605449D01*
X138050399Y-80537024D01*
X138099623Y-80477043D01*
X138159604Y-80427819D01*
X138228028Y-80391245D01*
X138241217Y-80387244D01*
X138277773Y-80376155D01*
X138300407Y-80366780D01*
X138320781Y-80353166D01*
X138338108Y-80335839D01*
X138351722Y-80315465D01*
X138361099Y-80292826D01*
X138365880Y-80268793D01*
X138365880Y-80244288D01*
X138361100Y-80220255D01*
X138351723Y-80197616D01*
X138338109Y-80177242D01*
X138320782Y-80159915D01*
X138300408Y-80146301D01*
X138277773Y-80136925D01*
X138241217Y-80125836D01*
X138228028Y-80121835D01*
X138159604Y-80085261D01*
X138099623Y-80036037D01*
X138050399Y-79976056D01*
X138013825Y-79907631D01*
X138009972Y-79894931D01*
X137991300Y-79833378D01*
X137983695Y-79756160D01*
X137991300Y-79678942D01*
X138013824Y-79604692D01*
X138013825Y-79604689D01*
X138050399Y-79536264D01*
X138099623Y-79476283D01*
X138159604Y-79427059D01*
X138228028Y-79390485D01*
X138241217Y-79386484D01*
X138277773Y-79375395D01*
X138300407Y-79366020D01*
X138320781Y-79352406D01*
X138338108Y-79335079D01*
X138351722Y-79314705D01*
X138361099Y-79292066D01*
X138365880Y-79268033D01*
X138365880Y-79243528D01*
X138361100Y-79219495D01*
X138351723Y-79196856D01*
X138338109Y-79176482D01*
X138320782Y-79159155D01*
X138300408Y-79145541D01*
X138277773Y-79136165D01*
X138241217Y-79125076D01*
X138228028Y-79121075D01*
X138159604Y-79084501D01*
X138099623Y-79035277D01*
X138050399Y-78975296D01*
X138013825Y-78906871D01*
X138009972Y-78894171D01*
X137991300Y-78832618D01*
X137983695Y-78755400D01*
X137991300Y-78678182D01*
X138013824Y-78603932D01*
X138013825Y-78603929D01*
X138050399Y-78535504D01*
X138099623Y-78475523D01*
X138159604Y-78426299D01*
X138228028Y-78389725D01*
X138241217Y-78385724D01*
X138277773Y-78374635D01*
X138300407Y-78365260D01*
X138320781Y-78351646D01*
X138338108Y-78334319D01*
X138351722Y-78313945D01*
X138361099Y-78291306D01*
X138365880Y-78267273D01*
X138365880Y-78242768D01*
X138361100Y-78218735D01*
X138351723Y-78196096D01*
X138338109Y-78175722D01*
X138320782Y-78158395D01*
X138300408Y-78144781D01*
X138277773Y-78135405D01*
X138241217Y-78124316D01*
X138228028Y-78120315D01*
X138159604Y-78083741D01*
X138099623Y-78034517D01*
X138050399Y-77974536D01*
X138013825Y-77906111D01*
X138009972Y-77893411D01*
X137991300Y-77831858D01*
X137983695Y-77754640D01*
X137991300Y-77677422D01*
X138013824Y-77603172D01*
X138013825Y-77603169D01*
X138050399Y-77534744D01*
X138099623Y-77474763D01*
X138159604Y-77425539D01*
X138228028Y-77388965D01*
X138241217Y-77384964D01*
X138277773Y-77373875D01*
X138300407Y-77364500D01*
X138320781Y-77350886D01*
X138338108Y-77333559D01*
X138351722Y-77313185D01*
X138361099Y-77290546D01*
X138365880Y-77266513D01*
X138365880Y-77242008D01*
X138361100Y-77217975D01*
X138351723Y-77195336D01*
X138338109Y-77174962D01*
X138320782Y-77157635D01*
X138300408Y-77144021D01*
X138277773Y-77134645D01*
X138241217Y-77123556D01*
X138228028Y-77119555D01*
X138159604Y-77082981D01*
X138099623Y-77033757D01*
X138050399Y-76973776D01*
X138013825Y-76905351D01*
X138009972Y-76892651D01*
X137991300Y-76831098D01*
X137983695Y-76753880D01*
X137991300Y-76676662D01*
X138013824Y-76602412D01*
X138013825Y-76602409D01*
X138050399Y-76533984D01*
X138099623Y-76474003D01*
X138159604Y-76424779D01*
X138228029Y-76388205D01*
X138228032Y-76388204D01*
X138302282Y-76365680D01*
X138340865Y-76361880D01*
X138360156Y-76359980D01*
X138779844Y-76359980D01*
X138799135Y-76361880D01*
X138799135Y-76361880D01*
G37*
G36*
X159119135Y-76349180D02*
G01*
X159157718Y-76352980D01*
X159231968Y-76375504D01*
X159231971Y-76375505D01*
X159300396Y-76412079D01*
X159360377Y-76461303D01*
X159409601Y-76521284D01*
X159446175Y-76589709D01*
X159446176Y-76589712D01*
X159468700Y-76663962D01*
X159476305Y-76741180D01*
X159468700Y-76818398D01*
X159446176Y-76892648D01*
X159446175Y-76892651D01*
X159409601Y-76961076D01*
X159360377Y-77021057D01*
X159300396Y-77070281D01*
X159231972Y-77106855D01*
X159218783Y-77110856D01*
X159182227Y-77121945D01*
X159159593Y-77131320D01*
X159139219Y-77144934D01*
X159121892Y-77162261D01*
X159108278Y-77182635D01*
X159098901Y-77205274D01*
X159094120Y-77229307D01*
X159094120Y-77253812D01*
X159098900Y-77277845D01*
X159108277Y-77300484D01*
X159121891Y-77320858D01*
X159139218Y-77338185D01*
X159159592Y-77351799D01*
X159182227Y-77361175D01*
X159218783Y-77372264D01*
X159231972Y-77376265D01*
X159300396Y-77412839D01*
X159360377Y-77462063D01*
X159409601Y-77522044D01*
X159446175Y-77590469D01*
X159446176Y-77590472D01*
X159468700Y-77664722D01*
X159476305Y-77741940D01*
X159468700Y-77819158D01*
X159446176Y-77893408D01*
X159446175Y-77893411D01*
X159409601Y-77961836D01*
X159360377Y-78021817D01*
X159300396Y-78071041D01*
X159231972Y-78107615D01*
X159218783Y-78111616D01*
X159182227Y-78122705D01*
X159159593Y-78132080D01*
X159139219Y-78145694D01*
X159121892Y-78163021D01*
X159108278Y-78183395D01*
X159098901Y-78206034D01*
X159094120Y-78230067D01*
X159094120Y-78254572D01*
X159098900Y-78278605D01*
X159108277Y-78301244D01*
X159121891Y-78321618D01*
X159139218Y-78338945D01*
X159159592Y-78352559D01*
X159182227Y-78361935D01*
X159218783Y-78373024D01*
X159231972Y-78377025D01*
X159300396Y-78413599D01*
X159360377Y-78462823D01*
X159409601Y-78522804D01*
X159446175Y-78591229D01*
X159446176Y-78591232D01*
X159468700Y-78665482D01*
X159476305Y-78742700D01*
X159468700Y-78819918D01*
X159446176Y-78894168D01*
X159446175Y-78894171D01*
X159409601Y-78962596D01*
X159360377Y-79022577D01*
X159300396Y-79071801D01*
X159231972Y-79108375D01*
X159218783Y-79112376D01*
X159182227Y-79123465D01*
X159159593Y-79132840D01*
X159139219Y-79146454D01*
X159121892Y-79163781D01*
X159108278Y-79184155D01*
X159098901Y-79206794D01*
X159094120Y-79230827D01*
X159094120Y-79255332D01*
X159098900Y-79279365D01*
X159108277Y-79302004D01*
X159121891Y-79322378D01*
X159139218Y-79339705D01*
X159159592Y-79353319D01*
X159182227Y-79362695D01*
X159218783Y-79373784D01*
X159231972Y-79377785D01*
X159300396Y-79414359D01*
X159360377Y-79463583D01*
X159409601Y-79523564D01*
X159446175Y-79591989D01*
X159446176Y-79591992D01*
X159468700Y-79666242D01*
X159476305Y-79743460D01*
X159468700Y-79820678D01*
X159446176Y-79894928D01*
X159446175Y-79894931D01*
X159409601Y-79963356D01*
X159360377Y-80023337D01*
X159300396Y-80072561D01*
X159231972Y-80109135D01*
X159218783Y-80113136D01*
X159182227Y-80124225D01*
X159159593Y-80133600D01*
X159139219Y-80147214D01*
X159121892Y-80164541D01*
X159108278Y-80184915D01*
X159098901Y-80207554D01*
X159094120Y-80231587D01*
X159094120Y-80256092D01*
X159098900Y-80280125D01*
X159108277Y-80302764D01*
X159121891Y-80323138D01*
X159139218Y-80340465D01*
X159159592Y-80354079D01*
X159182227Y-80363455D01*
X159218783Y-80374544D01*
X159231972Y-80378545D01*
X159300396Y-80415119D01*
X159360377Y-80464343D01*
X159409601Y-80524324D01*
X159446175Y-80592749D01*
X159446176Y-80592752D01*
X159468700Y-80667002D01*
X159476305Y-80744220D01*
X159468700Y-80821438D01*
X159446176Y-80895688D01*
X159446175Y-80895691D01*
X159409601Y-80964116D01*
X159360377Y-81024097D01*
X159300396Y-81073321D01*
X159231972Y-81109895D01*
X159218783Y-81113896D01*
X159182227Y-81124985D01*
X159159593Y-81134360D01*
X159139219Y-81147974D01*
X159121892Y-81165301D01*
X159108278Y-81185675D01*
X159098901Y-81208314D01*
X159094120Y-81232347D01*
X159094120Y-81256852D01*
X159098900Y-81280885D01*
X159108277Y-81303524D01*
X159121891Y-81323898D01*
X159139218Y-81341225D01*
X159159592Y-81354839D01*
X159182227Y-81364215D01*
X159218783Y-81375304D01*
X159231972Y-81379305D01*
X159300396Y-81415879D01*
X159360377Y-81465103D01*
X159409601Y-81525084D01*
X159446175Y-81593509D01*
X159446176Y-81593512D01*
X159468700Y-81667762D01*
X159476305Y-81744980D01*
X159468700Y-81822198D01*
X159446176Y-81896448D01*
X159446175Y-81896451D01*
X159409601Y-81964876D01*
X159360377Y-82024857D01*
X159300396Y-82074081D01*
X159231972Y-82110655D01*
X159218783Y-82114656D01*
X159182227Y-82125745D01*
X159159593Y-82135120D01*
X159139219Y-82148734D01*
X159121892Y-82166061D01*
X159108278Y-82186435D01*
X159098901Y-82209074D01*
X159094120Y-82233107D01*
X159094120Y-82257612D01*
X159098900Y-82281645D01*
X159108277Y-82304284D01*
X159121891Y-82324658D01*
X159139218Y-82341985D01*
X159159592Y-82355599D01*
X159182227Y-82364975D01*
X159218783Y-82376064D01*
X159231972Y-82380065D01*
X159300396Y-82416639D01*
X159360377Y-82465863D01*
X159409601Y-82525844D01*
X159446175Y-82594269D01*
X159446176Y-82594272D01*
X159468700Y-82668522D01*
X159476305Y-82745740D01*
X159468700Y-82822958D01*
X159446176Y-82897208D01*
X159446175Y-82897211D01*
X159409601Y-82965636D01*
X159360377Y-83025617D01*
X159300396Y-83074841D01*
X159231972Y-83111415D01*
X159218783Y-83115416D01*
X159182227Y-83126505D01*
X159159593Y-83135880D01*
X159139219Y-83149494D01*
X159121892Y-83166821D01*
X159108278Y-83187195D01*
X159098901Y-83209834D01*
X159094120Y-83233867D01*
X159094120Y-83258372D01*
X159098900Y-83282405D01*
X159108277Y-83305044D01*
X159121891Y-83325418D01*
X159139218Y-83342745D01*
X159159592Y-83356359D01*
X159182227Y-83365735D01*
X159218783Y-83376824D01*
X159231972Y-83380825D01*
X159300396Y-83417399D01*
X159360377Y-83466623D01*
X159409601Y-83526604D01*
X159446175Y-83595029D01*
X159446176Y-83595032D01*
X159468700Y-83669282D01*
X159476305Y-83746500D01*
X159468700Y-83823718D01*
X159464847Y-83836418D01*
X159446175Y-83897971D01*
X159409601Y-83966396D01*
X159360377Y-84026377D01*
X159300396Y-84075601D01*
X159231971Y-84112175D01*
X159231968Y-84112176D01*
X159157718Y-84134700D01*
X159119135Y-84138500D01*
X159099844Y-84140400D01*
X158680156Y-84140400D01*
X158660865Y-84138500D01*
X158622282Y-84134700D01*
X158548032Y-84112176D01*
X158548029Y-84112175D01*
X158479604Y-84075601D01*
X158419623Y-84026377D01*
X158370399Y-83966396D01*
X158333825Y-83897971D01*
X158315153Y-83836418D01*
X158311300Y-83823718D01*
X158303695Y-83746500D01*
X158311300Y-83669282D01*
X158333824Y-83595032D01*
X158333825Y-83595029D01*
X158370399Y-83526604D01*
X158419623Y-83466623D01*
X158479604Y-83417399D01*
X158548028Y-83380825D01*
X158561217Y-83376824D01*
X158597773Y-83365735D01*
X158620407Y-83356360D01*
X158640781Y-83342746D01*
X158658108Y-83325419D01*
X158671722Y-83305045D01*
X158681099Y-83282406D01*
X158685880Y-83258373D01*
X158685880Y-83233868D01*
X158681100Y-83209835D01*
X158671723Y-83187196D01*
X158658109Y-83166822D01*
X158640782Y-83149495D01*
X158620408Y-83135881D01*
X158597773Y-83126505D01*
X158561217Y-83115416D01*
X158548028Y-83111415D01*
X158479604Y-83074841D01*
X158419623Y-83025617D01*
X158370399Y-82965636D01*
X158333825Y-82897211D01*
X158333824Y-82897208D01*
X158311300Y-82822958D01*
X158303695Y-82745740D01*
X158311300Y-82668522D01*
X158333824Y-82594272D01*
X158333825Y-82594269D01*
X158370399Y-82525844D01*
X158419623Y-82465863D01*
X158479604Y-82416639D01*
X158548028Y-82380065D01*
X158561217Y-82376064D01*
X158597773Y-82364975D01*
X158620407Y-82355600D01*
X158640781Y-82341986D01*
X158658108Y-82324659D01*
X158671722Y-82304285D01*
X158681099Y-82281646D01*
X158685880Y-82257613D01*
X158685880Y-82233108D01*
X158681100Y-82209075D01*
X158671723Y-82186436D01*
X158658109Y-82166062D01*
X158640782Y-82148735D01*
X158620408Y-82135121D01*
X158597773Y-82125745D01*
X158561217Y-82114656D01*
X158548028Y-82110655D01*
X158479604Y-82074081D01*
X158419623Y-82024857D01*
X158370399Y-81964876D01*
X158333825Y-81896451D01*
X158333824Y-81896448D01*
X158311300Y-81822198D01*
X158303695Y-81744980D01*
X158311300Y-81667762D01*
X158333824Y-81593512D01*
X158333825Y-81593509D01*
X158370399Y-81525084D01*
X158419623Y-81465103D01*
X158479604Y-81415879D01*
X158548028Y-81379305D01*
X158561217Y-81375304D01*
X158597773Y-81364215D01*
X158620407Y-81354840D01*
X158640781Y-81341226D01*
X158658108Y-81323899D01*
X158671722Y-81303525D01*
X158681099Y-81280886D01*
X158685880Y-81256853D01*
X158685880Y-81232348D01*
X158681100Y-81208315D01*
X158671723Y-81185676D01*
X158658109Y-81165302D01*
X158640782Y-81147975D01*
X158620408Y-81134361D01*
X158597773Y-81124985D01*
X158561217Y-81113896D01*
X158548028Y-81109895D01*
X158479604Y-81073321D01*
X158419623Y-81024097D01*
X158370399Y-80964116D01*
X158333825Y-80895691D01*
X158333824Y-80895688D01*
X158311300Y-80821438D01*
X158303695Y-80744220D01*
X158311300Y-80667002D01*
X158333824Y-80592752D01*
X158333825Y-80592749D01*
X158370399Y-80524324D01*
X158419623Y-80464343D01*
X158479604Y-80415119D01*
X158548028Y-80378545D01*
X158561217Y-80374544D01*
X158597773Y-80363455D01*
X158620407Y-80354080D01*
X158640781Y-80340466D01*
X158658108Y-80323139D01*
X158671722Y-80302765D01*
X158681099Y-80280126D01*
X158685880Y-80256093D01*
X158685880Y-80231588D01*
X158681100Y-80207555D01*
X158671723Y-80184916D01*
X158658109Y-80164542D01*
X158640782Y-80147215D01*
X158620408Y-80133601D01*
X158597773Y-80124225D01*
X158561217Y-80113136D01*
X158548028Y-80109135D01*
X158479604Y-80072561D01*
X158419623Y-80023337D01*
X158370399Y-79963356D01*
X158333825Y-79894931D01*
X158333824Y-79894928D01*
X158311300Y-79820678D01*
X158303695Y-79743460D01*
X158311300Y-79666242D01*
X158333824Y-79591992D01*
X158333825Y-79591989D01*
X158370399Y-79523564D01*
X158419623Y-79463583D01*
X158479604Y-79414359D01*
X158548028Y-79377785D01*
X158561217Y-79373784D01*
X158597773Y-79362695D01*
X158620407Y-79353320D01*
X158640781Y-79339706D01*
X158658108Y-79322379D01*
X158671722Y-79302005D01*
X158681099Y-79279366D01*
X158685880Y-79255333D01*
X158685880Y-79230828D01*
X158681100Y-79206795D01*
X158671723Y-79184156D01*
X158658109Y-79163782D01*
X158640782Y-79146455D01*
X158620408Y-79132841D01*
X158597773Y-79123465D01*
X158561217Y-79112376D01*
X158548028Y-79108375D01*
X158479604Y-79071801D01*
X158419623Y-79022577D01*
X158370399Y-78962596D01*
X158333825Y-78894171D01*
X158333824Y-78894168D01*
X158311300Y-78819918D01*
X158303695Y-78742700D01*
X158311300Y-78665482D01*
X158333824Y-78591232D01*
X158333825Y-78591229D01*
X158370399Y-78522804D01*
X158419623Y-78462823D01*
X158479604Y-78413599D01*
X158548028Y-78377025D01*
X158561217Y-78373024D01*
X158597773Y-78361935D01*
X158620407Y-78352560D01*
X158640781Y-78338946D01*
X158658108Y-78321619D01*
X158671722Y-78301245D01*
X158681099Y-78278606D01*
X158685880Y-78254573D01*
X158685880Y-78230068D01*
X158681100Y-78206035D01*
X158671723Y-78183396D01*
X158658109Y-78163022D01*
X158640782Y-78145695D01*
X158620408Y-78132081D01*
X158597773Y-78122705D01*
X158561217Y-78111616D01*
X158548028Y-78107615D01*
X158479604Y-78071041D01*
X158419623Y-78021817D01*
X158370399Y-77961836D01*
X158333825Y-77893411D01*
X158333824Y-77893408D01*
X158311300Y-77819158D01*
X158303695Y-77741940D01*
X158311300Y-77664722D01*
X158333824Y-77590472D01*
X158333825Y-77590469D01*
X158370399Y-77522044D01*
X158419623Y-77462063D01*
X158479604Y-77412839D01*
X158548028Y-77376265D01*
X158561217Y-77372264D01*
X158597773Y-77361175D01*
X158620407Y-77351800D01*
X158640781Y-77338186D01*
X158658108Y-77320859D01*
X158671722Y-77300485D01*
X158681099Y-77277846D01*
X158685880Y-77253813D01*
X158685880Y-77229308D01*
X158681100Y-77205275D01*
X158671723Y-77182636D01*
X158658109Y-77162262D01*
X158640782Y-77144935D01*
X158620408Y-77131321D01*
X158597773Y-77121945D01*
X158561217Y-77110856D01*
X158548028Y-77106855D01*
X158479604Y-77070281D01*
X158419623Y-77021057D01*
X158370399Y-76961076D01*
X158333825Y-76892651D01*
X158333824Y-76892648D01*
X158311300Y-76818398D01*
X158303695Y-76741180D01*
X158311300Y-76663962D01*
X158333824Y-76589712D01*
X158333825Y-76589709D01*
X158370399Y-76521284D01*
X158419623Y-76461303D01*
X158479604Y-76412079D01*
X158548029Y-76375505D01*
X158548032Y-76375504D01*
X158622282Y-76352980D01*
X158660865Y-76349180D01*
X158680156Y-76347280D01*
X159099844Y-76347280D01*
X159119135Y-76349180D01*
X159119135Y-76349180D01*
G37*
G36*
X141339135Y-75861500D02*
G01*
X141377718Y-75865300D01*
X141451968Y-75887824D01*
X141451971Y-75887825D01*
X141520396Y-75924399D01*
X141580377Y-75973623D01*
X141629601Y-76033604D01*
X141666175Y-76102029D01*
X141666176Y-76102032D01*
X141688700Y-76176282D01*
X141696305Y-76253500D01*
X141688700Y-76330718D01*
X141670028Y-76392271D01*
X141666175Y-76404971D01*
X141629601Y-76473396D01*
X141580377Y-76533377D01*
X141520396Y-76582601D01*
X141451972Y-76619175D01*
X141438783Y-76623176D01*
X141402227Y-76634265D01*
X141379593Y-76643640D01*
X141359219Y-76657254D01*
X141341892Y-76674581D01*
X141328278Y-76694955D01*
X141318901Y-76717594D01*
X141314120Y-76741627D01*
X141314120Y-76766132D01*
X141318900Y-76790165D01*
X141328277Y-76812804D01*
X141341891Y-76833178D01*
X141359218Y-76850505D01*
X141379592Y-76864119D01*
X141402227Y-76873495D01*
X141438783Y-76884584D01*
X141451972Y-76888585D01*
X141520396Y-76925159D01*
X141580377Y-76974383D01*
X141629601Y-77034364D01*
X141666175Y-77102789D01*
X141666176Y-77102792D01*
X141688700Y-77177042D01*
X141696305Y-77254260D01*
X141688700Y-77331478D01*
X141670028Y-77393031D01*
X141666175Y-77405731D01*
X141629601Y-77474156D01*
X141580377Y-77534137D01*
X141520396Y-77583361D01*
X141451972Y-77619935D01*
X141438783Y-77623936D01*
X141402227Y-77635025D01*
X141379593Y-77644400D01*
X141359219Y-77658014D01*
X141341892Y-77675341D01*
X141328278Y-77695715D01*
X141318901Y-77718354D01*
X141314120Y-77742387D01*
X141314120Y-77766892D01*
X141318900Y-77790925D01*
X141328277Y-77813564D01*
X141341891Y-77833938D01*
X141359218Y-77851265D01*
X141379592Y-77864879D01*
X141402227Y-77874255D01*
X141438783Y-77885344D01*
X141451972Y-77889345D01*
X141520396Y-77925919D01*
X141580377Y-77975143D01*
X141629601Y-78035124D01*
X141666175Y-78103549D01*
X141666176Y-78103552D01*
X141688700Y-78177802D01*
X141696305Y-78255020D01*
X141688700Y-78332238D01*
X141670028Y-78393791D01*
X141666175Y-78406491D01*
X141629601Y-78474916D01*
X141580377Y-78534897D01*
X141520396Y-78584121D01*
X141451972Y-78620695D01*
X141438783Y-78624696D01*
X141402227Y-78635785D01*
X141379593Y-78645160D01*
X141359219Y-78658774D01*
X141341892Y-78676101D01*
X141328278Y-78696475D01*
X141318901Y-78719114D01*
X141314120Y-78743147D01*
X141314120Y-78767652D01*
X141318900Y-78791685D01*
X141328277Y-78814324D01*
X141341891Y-78834698D01*
X141359218Y-78852025D01*
X141379592Y-78865639D01*
X141402227Y-78875015D01*
X141438783Y-78886104D01*
X141451972Y-78890105D01*
X141520396Y-78926679D01*
X141580377Y-78975903D01*
X141629601Y-79035884D01*
X141666175Y-79104309D01*
X141666176Y-79104312D01*
X141688700Y-79178562D01*
X141696305Y-79255780D01*
X141688700Y-79332998D01*
X141670028Y-79394551D01*
X141666175Y-79407251D01*
X141629601Y-79475676D01*
X141580377Y-79535657D01*
X141520396Y-79584881D01*
X141451972Y-79621455D01*
X141438783Y-79625456D01*
X141402227Y-79636545D01*
X141379593Y-79645920D01*
X141359219Y-79659534D01*
X141341892Y-79676861D01*
X141328278Y-79697235D01*
X141318901Y-79719874D01*
X141314120Y-79743907D01*
X141314120Y-79768412D01*
X141318900Y-79792445D01*
X141328277Y-79815084D01*
X141341891Y-79835458D01*
X141359218Y-79852785D01*
X141379592Y-79866399D01*
X141402227Y-79875775D01*
X141438783Y-79886864D01*
X141451972Y-79890865D01*
X141520396Y-79927439D01*
X141580377Y-79976663D01*
X141629601Y-80036644D01*
X141666175Y-80105069D01*
X141666176Y-80105072D01*
X141688700Y-80179322D01*
X141696305Y-80256540D01*
X141688700Y-80333758D01*
X141670028Y-80395311D01*
X141666175Y-80408011D01*
X141629601Y-80476436D01*
X141580377Y-80536417D01*
X141520396Y-80585641D01*
X141451972Y-80622215D01*
X141438783Y-80626216D01*
X141402227Y-80637305D01*
X141379593Y-80646680D01*
X141359219Y-80660294D01*
X141341892Y-80677621D01*
X141328278Y-80697995D01*
X141318901Y-80720634D01*
X141314120Y-80744667D01*
X141314120Y-80769172D01*
X141318900Y-80793205D01*
X141328277Y-80815844D01*
X141341891Y-80836218D01*
X141359218Y-80853545D01*
X141379592Y-80867159D01*
X141402227Y-80876535D01*
X141438783Y-80887624D01*
X141451972Y-80891625D01*
X141520396Y-80928199D01*
X141580377Y-80977423D01*
X141629601Y-81037404D01*
X141666175Y-81105829D01*
X141666176Y-81105832D01*
X141688700Y-81180082D01*
X141696305Y-81257300D01*
X141688700Y-81334518D01*
X141670028Y-81396071D01*
X141666175Y-81408771D01*
X141629601Y-81477196D01*
X141580377Y-81537177D01*
X141520396Y-81586401D01*
X141451972Y-81622975D01*
X141438783Y-81626976D01*
X141402227Y-81638065D01*
X141379593Y-81647440D01*
X141359219Y-81661054D01*
X141341892Y-81678381D01*
X141328278Y-81698755D01*
X141318901Y-81721394D01*
X141314120Y-81745427D01*
X141314120Y-81769932D01*
X141318900Y-81793965D01*
X141328277Y-81816604D01*
X141341891Y-81836978D01*
X141359218Y-81854305D01*
X141379592Y-81867919D01*
X141402227Y-81877295D01*
X141438783Y-81888384D01*
X141451972Y-81892385D01*
X141520396Y-81928959D01*
X141580377Y-81978183D01*
X141629601Y-82038164D01*
X141666175Y-82106589D01*
X141666176Y-82106592D01*
X141688700Y-82180842D01*
X141696305Y-82258060D01*
X141688700Y-82335278D01*
X141670028Y-82396831D01*
X141666175Y-82409531D01*
X141629601Y-82477956D01*
X141580377Y-82537937D01*
X141520396Y-82587161D01*
X141451972Y-82623735D01*
X141438783Y-82627736D01*
X141402227Y-82638825D01*
X141379593Y-82648200D01*
X141359219Y-82661814D01*
X141341892Y-82679141D01*
X141328278Y-82699515D01*
X141318901Y-82722154D01*
X141314120Y-82746187D01*
X141314120Y-82770692D01*
X141318900Y-82794725D01*
X141328277Y-82817364D01*
X141341891Y-82837738D01*
X141359218Y-82855065D01*
X141379592Y-82868679D01*
X141402227Y-82878055D01*
X141438783Y-82889144D01*
X141451972Y-82893145D01*
X141520396Y-82929719D01*
X141580377Y-82978943D01*
X141629601Y-83038924D01*
X141666175Y-83107349D01*
X141666176Y-83107352D01*
X141688700Y-83181602D01*
X141696305Y-83258820D01*
X141688700Y-83336038D01*
X141670028Y-83397591D01*
X141666175Y-83410291D01*
X141629601Y-83478716D01*
X141580377Y-83538697D01*
X141520396Y-83587921D01*
X141451971Y-83624495D01*
X141451968Y-83624496D01*
X141377718Y-83647020D01*
X141339135Y-83650820D01*
X141319844Y-83652720D01*
X140900156Y-83652720D01*
X140880865Y-83650820D01*
X140842282Y-83647020D01*
X140768032Y-83624496D01*
X140768029Y-83624495D01*
X140699604Y-83587921D01*
X140639623Y-83538697D01*
X140590399Y-83478716D01*
X140553825Y-83410291D01*
X140549972Y-83397591D01*
X140531300Y-83336038D01*
X140523695Y-83258820D01*
X140531300Y-83181602D01*
X140553824Y-83107352D01*
X140553825Y-83107349D01*
X140590399Y-83038924D01*
X140639623Y-82978943D01*
X140699604Y-82929719D01*
X140768028Y-82893145D01*
X140781217Y-82889144D01*
X140817773Y-82878055D01*
X140840407Y-82868680D01*
X140860781Y-82855066D01*
X140878108Y-82837739D01*
X140891722Y-82817365D01*
X140901099Y-82794726D01*
X140905880Y-82770693D01*
X140905880Y-82746188D01*
X140901100Y-82722155D01*
X140891723Y-82699516D01*
X140878109Y-82679142D01*
X140860782Y-82661815D01*
X140840408Y-82648201D01*
X140817773Y-82638825D01*
X140781217Y-82627736D01*
X140768028Y-82623735D01*
X140699604Y-82587161D01*
X140639623Y-82537937D01*
X140590399Y-82477956D01*
X140553825Y-82409531D01*
X140549972Y-82396831D01*
X140531300Y-82335278D01*
X140523695Y-82258060D01*
X140531300Y-82180842D01*
X140553824Y-82106592D01*
X140553825Y-82106589D01*
X140590399Y-82038164D01*
X140639623Y-81978183D01*
X140699604Y-81928959D01*
X140768028Y-81892385D01*
X140781217Y-81888384D01*
X140817773Y-81877295D01*
X140840407Y-81867920D01*
X140860781Y-81854306D01*
X140878108Y-81836979D01*
X140891722Y-81816605D01*
X140901099Y-81793966D01*
X140905880Y-81769933D01*
X140905880Y-81745428D01*
X140901100Y-81721395D01*
X140891723Y-81698756D01*
X140878109Y-81678382D01*
X140860782Y-81661055D01*
X140840408Y-81647441D01*
X140817773Y-81638065D01*
X140781217Y-81626976D01*
X140768028Y-81622975D01*
X140699604Y-81586401D01*
X140639623Y-81537177D01*
X140590399Y-81477196D01*
X140553825Y-81408771D01*
X140549972Y-81396071D01*
X140531300Y-81334518D01*
X140523695Y-81257300D01*
X140531300Y-81180082D01*
X140553824Y-81105832D01*
X140553825Y-81105829D01*
X140590399Y-81037404D01*
X140639623Y-80977423D01*
X140699604Y-80928199D01*
X140768028Y-80891625D01*
X140781217Y-80887624D01*
X140817773Y-80876535D01*
X140840407Y-80867160D01*
X140860781Y-80853546D01*
X140878108Y-80836219D01*
X140891722Y-80815845D01*
X140901099Y-80793206D01*
X140905880Y-80769173D01*
X140905880Y-80744668D01*
X140901100Y-80720635D01*
X140891723Y-80697996D01*
X140878109Y-80677622D01*
X140860782Y-80660295D01*
X140840408Y-80646681D01*
X140817773Y-80637305D01*
X140781217Y-80626216D01*
X140768028Y-80622215D01*
X140699604Y-80585641D01*
X140639623Y-80536417D01*
X140590399Y-80476436D01*
X140553825Y-80408011D01*
X140549972Y-80395311D01*
X140531300Y-80333758D01*
X140523695Y-80256540D01*
X140531300Y-80179322D01*
X140553824Y-80105072D01*
X140553825Y-80105069D01*
X140590399Y-80036644D01*
X140639623Y-79976663D01*
X140699604Y-79927439D01*
X140768028Y-79890865D01*
X140781217Y-79886864D01*
X140817773Y-79875775D01*
X140840407Y-79866400D01*
X140860781Y-79852786D01*
X140878108Y-79835459D01*
X140891722Y-79815085D01*
X140901099Y-79792446D01*
X140905880Y-79768413D01*
X140905880Y-79743908D01*
X140901100Y-79719875D01*
X140891723Y-79697236D01*
X140878109Y-79676862D01*
X140860782Y-79659535D01*
X140840408Y-79645921D01*
X140817773Y-79636545D01*
X140781217Y-79625456D01*
X140768028Y-79621455D01*
X140699604Y-79584881D01*
X140639623Y-79535657D01*
X140590399Y-79475676D01*
X140553825Y-79407251D01*
X140549972Y-79394551D01*
X140531300Y-79332998D01*
X140523695Y-79255780D01*
X140531300Y-79178562D01*
X140553824Y-79104312D01*
X140553825Y-79104309D01*
X140590399Y-79035884D01*
X140639623Y-78975903D01*
X140699604Y-78926679D01*
X140768028Y-78890105D01*
X140781217Y-78886104D01*
X140817773Y-78875015D01*
X140840407Y-78865640D01*
X140860781Y-78852026D01*
X140878108Y-78834699D01*
X140891722Y-78814325D01*
X140901099Y-78791686D01*
X140905880Y-78767653D01*
X140905880Y-78743148D01*
X140901100Y-78719115D01*
X140891723Y-78696476D01*
X140878109Y-78676102D01*
X140860782Y-78658775D01*
X140840408Y-78645161D01*
X140817773Y-78635785D01*
X140781217Y-78624696D01*
X140768028Y-78620695D01*
X140699604Y-78584121D01*
X140639623Y-78534897D01*
X140590399Y-78474916D01*
X140553825Y-78406491D01*
X140549972Y-78393791D01*
X140531300Y-78332238D01*
X140523695Y-78255020D01*
X140531300Y-78177802D01*
X140553824Y-78103552D01*
X140553825Y-78103549D01*
X140590399Y-78035124D01*
X140639623Y-77975143D01*
X140699604Y-77925919D01*
X140768028Y-77889345D01*
X140781217Y-77885344D01*
X140817773Y-77874255D01*
X140840407Y-77864880D01*
X140860781Y-77851266D01*
X140878108Y-77833939D01*
X140891722Y-77813565D01*
X140901099Y-77790926D01*
X140905880Y-77766893D01*
X140905880Y-77742388D01*
X140901100Y-77718355D01*
X140891723Y-77695716D01*
X140878109Y-77675342D01*
X140860782Y-77658015D01*
X140840408Y-77644401D01*
X140817773Y-77635025D01*
X140781217Y-77623936D01*
X140768028Y-77619935D01*
X140699604Y-77583361D01*
X140639623Y-77534137D01*
X140590399Y-77474156D01*
X140553825Y-77405731D01*
X140549972Y-77393031D01*
X140531300Y-77331478D01*
X140523695Y-77254260D01*
X140531300Y-77177042D01*
X140553824Y-77102792D01*
X140553825Y-77102789D01*
X140590399Y-77034364D01*
X140639623Y-76974383D01*
X140699604Y-76925159D01*
X140768028Y-76888585D01*
X140781217Y-76884584D01*
X140817773Y-76873495D01*
X140840407Y-76864120D01*
X140860781Y-76850506D01*
X140878108Y-76833179D01*
X140891722Y-76812805D01*
X140901099Y-76790166D01*
X140905880Y-76766133D01*
X140905880Y-76741628D01*
X140901100Y-76717595D01*
X140891723Y-76694956D01*
X140878109Y-76674582D01*
X140860782Y-76657255D01*
X140840408Y-76643641D01*
X140817773Y-76634265D01*
X140781217Y-76623176D01*
X140768028Y-76619175D01*
X140699604Y-76582601D01*
X140639623Y-76533377D01*
X140590399Y-76473396D01*
X140553825Y-76404971D01*
X140549972Y-76392271D01*
X140531300Y-76330718D01*
X140523695Y-76253500D01*
X140531300Y-76176282D01*
X140553824Y-76102032D01*
X140553825Y-76102029D01*
X140590399Y-76033604D01*
X140639623Y-75973623D01*
X140699604Y-75924399D01*
X140768029Y-75887825D01*
X140768032Y-75887824D01*
X140842282Y-75865300D01*
X140880865Y-75861500D01*
X140900156Y-75859600D01*
X141319844Y-75859600D01*
X141339135Y-75861500D01*
X141339135Y-75861500D01*
G37*
G36*
X161659135Y-75848800D02*
G01*
X161697718Y-75852600D01*
X161771968Y-75875124D01*
X161771971Y-75875125D01*
X161840396Y-75911699D01*
X161900377Y-75960923D01*
X161949601Y-76020904D01*
X161986175Y-76089329D01*
X161986176Y-76089332D01*
X162008700Y-76163582D01*
X162016305Y-76240800D01*
X162008700Y-76318018D01*
X161986176Y-76392268D01*
X161986175Y-76392271D01*
X161949601Y-76460696D01*
X161900377Y-76520677D01*
X161840396Y-76569901D01*
X161771972Y-76606475D01*
X161758783Y-76610476D01*
X161722227Y-76621565D01*
X161699593Y-76630940D01*
X161679219Y-76644554D01*
X161661892Y-76661881D01*
X161648278Y-76682255D01*
X161638901Y-76704894D01*
X161634120Y-76728927D01*
X161634120Y-76753432D01*
X161638900Y-76777465D01*
X161648277Y-76800104D01*
X161661891Y-76820478D01*
X161679218Y-76837805D01*
X161699592Y-76851419D01*
X161722227Y-76860795D01*
X161758783Y-76871884D01*
X161771972Y-76875885D01*
X161840396Y-76912459D01*
X161900377Y-76961683D01*
X161949601Y-77021664D01*
X161986175Y-77090089D01*
X161986176Y-77090092D01*
X162008700Y-77164342D01*
X162016305Y-77241560D01*
X162008700Y-77318778D01*
X161986176Y-77393028D01*
X161986175Y-77393031D01*
X161949601Y-77461456D01*
X161900377Y-77521437D01*
X161840396Y-77570661D01*
X161771972Y-77607235D01*
X161758783Y-77611236D01*
X161722227Y-77622325D01*
X161699593Y-77631700D01*
X161679219Y-77645314D01*
X161661892Y-77662641D01*
X161648278Y-77683015D01*
X161638901Y-77705654D01*
X161634120Y-77729687D01*
X161634120Y-77754192D01*
X161638900Y-77778225D01*
X161648277Y-77800864D01*
X161661891Y-77821238D01*
X161679218Y-77838565D01*
X161699592Y-77852179D01*
X161722227Y-77861555D01*
X161758783Y-77872644D01*
X161771972Y-77876645D01*
X161840396Y-77913219D01*
X161900377Y-77962443D01*
X161949601Y-78022424D01*
X161986175Y-78090849D01*
X161986176Y-78090852D01*
X162008700Y-78165102D01*
X162016305Y-78242320D01*
X162008700Y-78319538D01*
X161986176Y-78393788D01*
X161986175Y-78393791D01*
X161949601Y-78462216D01*
X161900377Y-78522197D01*
X161840396Y-78571421D01*
X161771972Y-78607995D01*
X161758783Y-78611996D01*
X161722227Y-78623085D01*
X161699593Y-78632460D01*
X161679219Y-78646074D01*
X161661892Y-78663401D01*
X161648278Y-78683775D01*
X161638901Y-78706414D01*
X161634120Y-78730447D01*
X161634120Y-78754952D01*
X161638900Y-78778985D01*
X161648277Y-78801624D01*
X161661891Y-78821998D01*
X161679218Y-78839325D01*
X161699592Y-78852939D01*
X161722227Y-78862315D01*
X161758783Y-78873404D01*
X161771972Y-78877405D01*
X161840396Y-78913979D01*
X161900377Y-78963203D01*
X161949601Y-79023184D01*
X161986175Y-79091609D01*
X161986176Y-79091612D01*
X162008700Y-79165862D01*
X162016305Y-79243080D01*
X162008700Y-79320298D01*
X161986176Y-79394548D01*
X161986175Y-79394551D01*
X161949601Y-79462976D01*
X161900377Y-79522957D01*
X161840396Y-79572181D01*
X161771972Y-79608755D01*
X161758783Y-79612756D01*
X161722227Y-79623845D01*
X161699593Y-79633220D01*
X161679219Y-79646834D01*
X161661892Y-79664161D01*
X161648278Y-79684535D01*
X161638901Y-79707174D01*
X161634120Y-79731207D01*
X161634120Y-79755712D01*
X161638900Y-79779745D01*
X161648277Y-79802384D01*
X161661891Y-79822758D01*
X161679218Y-79840085D01*
X161699592Y-79853699D01*
X161722227Y-79863075D01*
X161758783Y-79874164D01*
X161771972Y-79878165D01*
X161840396Y-79914739D01*
X161900377Y-79963963D01*
X161949601Y-80023944D01*
X161986175Y-80092369D01*
X161986176Y-80092372D01*
X162008700Y-80166622D01*
X162016305Y-80243840D01*
X162008700Y-80321058D01*
X161986176Y-80395308D01*
X161986175Y-80395311D01*
X161949601Y-80463736D01*
X161900377Y-80523717D01*
X161840396Y-80572941D01*
X161771972Y-80609515D01*
X161758783Y-80613516D01*
X161722227Y-80624605D01*
X161699593Y-80633980D01*
X161679219Y-80647594D01*
X161661892Y-80664921D01*
X161648278Y-80685295D01*
X161638901Y-80707934D01*
X161634120Y-80731967D01*
X161634120Y-80756472D01*
X161638900Y-80780505D01*
X161648277Y-80803144D01*
X161661891Y-80823518D01*
X161679218Y-80840845D01*
X161699592Y-80854459D01*
X161722227Y-80863835D01*
X161758783Y-80874924D01*
X161771972Y-80878925D01*
X161840396Y-80915499D01*
X161900377Y-80964723D01*
X161949601Y-81024704D01*
X161986175Y-81093129D01*
X161986176Y-81093132D01*
X162008700Y-81167382D01*
X162016305Y-81244600D01*
X162008700Y-81321818D01*
X161986176Y-81396068D01*
X161986175Y-81396071D01*
X161949601Y-81464496D01*
X161900377Y-81524477D01*
X161840396Y-81573701D01*
X161771972Y-81610275D01*
X161758783Y-81614276D01*
X161722227Y-81625365D01*
X161699593Y-81634740D01*
X161679219Y-81648354D01*
X161661892Y-81665681D01*
X161648278Y-81686055D01*
X161638901Y-81708694D01*
X161634120Y-81732727D01*
X161634120Y-81757232D01*
X161638900Y-81781265D01*
X161648277Y-81803904D01*
X161661891Y-81824278D01*
X161679218Y-81841605D01*
X161699592Y-81855219D01*
X161722227Y-81864595D01*
X161758783Y-81875684D01*
X161771972Y-81879685D01*
X161840396Y-81916259D01*
X161900377Y-81965483D01*
X161949601Y-82025464D01*
X161986175Y-82093889D01*
X161986176Y-82093892D01*
X162008700Y-82168142D01*
X162016305Y-82245360D01*
X162008700Y-82322578D01*
X161986176Y-82396828D01*
X161986175Y-82396831D01*
X161949601Y-82465256D01*
X161900377Y-82525237D01*
X161840396Y-82574461D01*
X161771972Y-82611035D01*
X161758783Y-82615036D01*
X161722227Y-82626125D01*
X161699593Y-82635500D01*
X161679219Y-82649114D01*
X161661892Y-82666441D01*
X161648278Y-82686815D01*
X161638901Y-82709454D01*
X161634120Y-82733487D01*
X161634120Y-82757992D01*
X161638900Y-82782025D01*
X161648277Y-82804664D01*
X161661891Y-82825038D01*
X161679218Y-82842365D01*
X161699592Y-82855979D01*
X161722227Y-82865355D01*
X161758783Y-82876444D01*
X161771972Y-82880445D01*
X161840396Y-82917019D01*
X161900377Y-82966243D01*
X161949601Y-83026224D01*
X161986175Y-83094649D01*
X161986176Y-83094652D01*
X162008700Y-83168902D01*
X162016305Y-83246120D01*
X162008700Y-83323338D01*
X161986176Y-83397588D01*
X161986175Y-83397591D01*
X161949601Y-83466016D01*
X161900377Y-83525997D01*
X161840396Y-83575221D01*
X161771971Y-83611795D01*
X161771968Y-83611796D01*
X161697718Y-83634320D01*
X161659135Y-83638120D01*
X161639844Y-83640020D01*
X161220156Y-83640020D01*
X161200865Y-83638120D01*
X161162282Y-83634320D01*
X161088032Y-83611796D01*
X161088029Y-83611795D01*
X161019604Y-83575221D01*
X160959623Y-83525997D01*
X160910399Y-83466016D01*
X160873825Y-83397591D01*
X160873824Y-83397588D01*
X160851300Y-83323338D01*
X160843695Y-83246120D01*
X160851300Y-83168902D01*
X160873824Y-83094652D01*
X160873825Y-83094649D01*
X160910399Y-83026224D01*
X160959623Y-82966243D01*
X161019604Y-82917019D01*
X161088028Y-82880445D01*
X161101217Y-82876444D01*
X161137773Y-82865355D01*
X161160407Y-82855980D01*
X161180781Y-82842366D01*
X161198108Y-82825039D01*
X161211722Y-82804665D01*
X161221099Y-82782026D01*
X161225880Y-82757993D01*
X161225880Y-82733488D01*
X161221100Y-82709455D01*
X161211723Y-82686816D01*
X161198109Y-82666442D01*
X161180782Y-82649115D01*
X161160408Y-82635501D01*
X161137773Y-82626125D01*
X161101217Y-82615036D01*
X161088028Y-82611035D01*
X161019604Y-82574461D01*
X160959623Y-82525237D01*
X160910399Y-82465256D01*
X160873825Y-82396831D01*
X160873824Y-82396828D01*
X160851300Y-82322578D01*
X160843695Y-82245360D01*
X160851300Y-82168142D01*
X160873824Y-82093892D01*
X160873825Y-82093889D01*
X160910399Y-82025464D01*
X160959623Y-81965483D01*
X161019604Y-81916259D01*
X161088028Y-81879685D01*
X161101217Y-81875684D01*
X161137773Y-81864595D01*
X161160407Y-81855220D01*
X161180781Y-81841606D01*
X161198108Y-81824279D01*
X161211722Y-81803905D01*
X161221099Y-81781266D01*
X161225880Y-81757233D01*
X161225880Y-81732728D01*
X161221100Y-81708695D01*
X161211723Y-81686056D01*
X161198109Y-81665682D01*
X161180782Y-81648355D01*
X161160408Y-81634741D01*
X161137773Y-81625365D01*
X161101217Y-81614276D01*
X161088028Y-81610275D01*
X161019604Y-81573701D01*
X160959623Y-81524477D01*
X160910399Y-81464496D01*
X160873825Y-81396071D01*
X160873824Y-81396068D01*
X160851300Y-81321818D01*
X160843695Y-81244600D01*
X160851300Y-81167382D01*
X160873824Y-81093132D01*
X160873825Y-81093129D01*
X160910399Y-81024704D01*
X160959623Y-80964723D01*
X161019604Y-80915499D01*
X161088028Y-80878925D01*
X161101217Y-80874924D01*
X161137773Y-80863835D01*
X161160407Y-80854460D01*
X161180781Y-80840846D01*
X161198108Y-80823519D01*
X161211722Y-80803145D01*
X161221099Y-80780506D01*
X161225880Y-80756473D01*
X161225880Y-80731968D01*
X161221100Y-80707935D01*
X161211723Y-80685296D01*
X161198109Y-80664922D01*
X161180782Y-80647595D01*
X161160408Y-80633981D01*
X161137773Y-80624605D01*
X161101217Y-80613516D01*
X161088028Y-80609515D01*
X161019604Y-80572941D01*
X160959623Y-80523717D01*
X160910399Y-80463736D01*
X160873825Y-80395311D01*
X160873824Y-80395308D01*
X160851300Y-80321058D01*
X160843695Y-80243840D01*
X160851300Y-80166622D01*
X160873824Y-80092372D01*
X160873825Y-80092369D01*
X160910399Y-80023944D01*
X160959623Y-79963963D01*
X161019604Y-79914739D01*
X161088028Y-79878165D01*
X161101217Y-79874164D01*
X161137773Y-79863075D01*
X161160407Y-79853700D01*
X161180781Y-79840086D01*
X161198108Y-79822759D01*
X161211722Y-79802385D01*
X161221099Y-79779746D01*
X161225880Y-79755713D01*
X161225880Y-79731208D01*
X161221100Y-79707175D01*
X161211723Y-79684536D01*
X161198109Y-79664162D01*
X161180782Y-79646835D01*
X161160408Y-79633221D01*
X161137773Y-79623845D01*
X161101217Y-79612756D01*
X161088028Y-79608755D01*
X161019604Y-79572181D01*
X160959623Y-79522957D01*
X160910399Y-79462976D01*
X160873825Y-79394551D01*
X160873824Y-79394548D01*
X160851300Y-79320298D01*
X160843695Y-79243080D01*
X160851300Y-79165862D01*
X160873824Y-79091612D01*
X160873825Y-79091609D01*
X160910399Y-79023184D01*
X160959623Y-78963203D01*
X161019604Y-78913979D01*
X161088028Y-78877405D01*
X161101217Y-78873404D01*
X161137773Y-78862315D01*
X161160407Y-78852940D01*
X161180781Y-78839326D01*
X161198108Y-78821999D01*
X161211722Y-78801625D01*
X161221099Y-78778986D01*
X161225880Y-78754953D01*
X161225880Y-78730448D01*
X161221100Y-78706415D01*
X161211723Y-78683776D01*
X161198109Y-78663402D01*
X161180782Y-78646075D01*
X161160408Y-78632461D01*
X161137773Y-78623085D01*
X161101217Y-78611996D01*
X161088028Y-78607995D01*
X161019604Y-78571421D01*
X160959623Y-78522197D01*
X160910399Y-78462216D01*
X160873825Y-78393791D01*
X160873824Y-78393788D01*
X160851300Y-78319538D01*
X160843695Y-78242320D01*
X160851300Y-78165102D01*
X160873824Y-78090852D01*
X160873825Y-78090849D01*
X160910399Y-78022424D01*
X160959623Y-77962443D01*
X161019604Y-77913219D01*
X161088028Y-77876645D01*
X161101217Y-77872644D01*
X161137773Y-77861555D01*
X161160407Y-77852180D01*
X161180781Y-77838566D01*
X161198108Y-77821239D01*
X161211722Y-77800865D01*
X161221099Y-77778226D01*
X161225880Y-77754193D01*
X161225880Y-77729688D01*
X161221100Y-77705655D01*
X161211723Y-77683016D01*
X161198109Y-77662642D01*
X161180782Y-77645315D01*
X161160408Y-77631701D01*
X161137773Y-77622325D01*
X161101217Y-77611236D01*
X161088028Y-77607235D01*
X161019604Y-77570661D01*
X160959623Y-77521437D01*
X160910399Y-77461456D01*
X160873825Y-77393031D01*
X160873824Y-77393028D01*
X160851300Y-77318778D01*
X160843695Y-77241560D01*
X160851300Y-77164342D01*
X160873824Y-77090092D01*
X160873825Y-77090089D01*
X160910399Y-77021664D01*
X160959623Y-76961683D01*
X161019604Y-76912459D01*
X161088028Y-76875885D01*
X161101217Y-76871884D01*
X161137773Y-76860795D01*
X161160407Y-76851420D01*
X161180781Y-76837806D01*
X161198108Y-76820479D01*
X161211722Y-76800105D01*
X161221099Y-76777466D01*
X161225880Y-76753433D01*
X161225880Y-76728928D01*
X161221100Y-76704895D01*
X161211723Y-76682256D01*
X161198109Y-76661882D01*
X161180782Y-76644555D01*
X161160408Y-76630941D01*
X161137773Y-76621565D01*
X161101217Y-76610476D01*
X161088028Y-76606475D01*
X161019604Y-76569901D01*
X160959623Y-76520677D01*
X160910399Y-76460696D01*
X160873825Y-76392271D01*
X160873824Y-76392268D01*
X160851300Y-76318018D01*
X160843695Y-76240800D01*
X160851300Y-76163582D01*
X160873824Y-76089332D01*
X160873825Y-76089329D01*
X160910399Y-76020904D01*
X160959623Y-75960923D01*
X161019604Y-75911699D01*
X161088029Y-75875125D01*
X161088032Y-75875124D01*
X161162282Y-75852600D01*
X161200865Y-75848800D01*
X161220156Y-75846900D01*
X161639844Y-75846900D01*
X161659135Y-75848800D01*
X161659135Y-75848800D01*
G37*
G36*
X153823717Y-70683700D02*
G01*
X153897967Y-70706224D01*
X153952354Y-70735294D01*
X153966400Y-70742802D01*
X154026377Y-70792023D01*
X154075601Y-70852004D01*
X154112175Y-70920429D01*
X154112176Y-70920432D01*
X154134700Y-70994682D01*
X154140400Y-71052557D01*
X154140400Y-71472243D01*
X154134700Y-71530118D01*
X154116454Y-71590266D01*
X154112175Y-71604372D01*
X154075601Y-71672796D01*
X154026377Y-71732777D01*
X153966396Y-71782001D01*
X153897971Y-71818575D01*
X153897968Y-71818576D01*
X153823718Y-71841100D01*
X153746500Y-71848705D01*
X153669283Y-71841100D01*
X153595033Y-71818576D01*
X153595030Y-71818575D01*
X153526605Y-71782001D01*
X153466624Y-71732777D01*
X153417400Y-71672796D01*
X153380826Y-71604371D01*
X153380825Y-71604368D01*
X153365734Y-71554622D01*
X153356359Y-71531991D01*
X153342745Y-71511616D01*
X153325418Y-71494289D01*
X153305044Y-71480676D01*
X153282405Y-71471298D01*
X153258372Y-71466518D01*
X153233868Y-71466518D01*
X153209835Y-71471298D01*
X153187196Y-71480676D01*
X153166821Y-71494290D01*
X153149494Y-71511617D01*
X153135881Y-71531991D01*
X153126506Y-71554623D01*
X153111416Y-71604368D01*
X153111415Y-71604371D01*
X153074841Y-71672796D01*
X153025617Y-71732777D01*
X152965636Y-71782001D01*
X152897211Y-71818575D01*
X152897208Y-71818576D01*
X152822958Y-71841100D01*
X152745740Y-71848705D01*
X152668523Y-71841100D01*
X152594273Y-71818576D01*
X152594270Y-71818575D01*
X152525845Y-71782001D01*
X152465864Y-71732777D01*
X152416640Y-71672796D01*
X152380066Y-71604371D01*
X152380065Y-71604368D01*
X152364974Y-71554622D01*
X152355599Y-71531991D01*
X152341985Y-71511616D01*
X152324658Y-71494289D01*
X152304284Y-71480676D01*
X152281645Y-71471298D01*
X152257612Y-71466518D01*
X152233108Y-71466518D01*
X152209075Y-71471298D01*
X152186436Y-71480676D01*
X152166061Y-71494290D01*
X152148734Y-71511617D01*
X152135121Y-71531991D01*
X152125746Y-71554623D01*
X152110656Y-71604368D01*
X152110655Y-71604371D01*
X152074081Y-71672796D01*
X152024857Y-71732777D01*
X151964876Y-71782001D01*
X151896451Y-71818575D01*
X151896448Y-71818576D01*
X151822198Y-71841100D01*
X151744980Y-71848705D01*
X151667763Y-71841100D01*
X151593513Y-71818576D01*
X151593510Y-71818575D01*
X151525085Y-71782001D01*
X151465104Y-71732777D01*
X151415880Y-71672796D01*
X151379306Y-71604371D01*
X151379305Y-71604368D01*
X151364214Y-71554622D01*
X151354839Y-71531991D01*
X151341225Y-71511616D01*
X151323898Y-71494289D01*
X151303524Y-71480676D01*
X151280885Y-71471298D01*
X151256852Y-71466518D01*
X151232348Y-71466518D01*
X151208315Y-71471298D01*
X151185676Y-71480676D01*
X151165301Y-71494290D01*
X151147974Y-71511617D01*
X151134361Y-71531991D01*
X151124986Y-71554623D01*
X151109896Y-71604368D01*
X151109895Y-71604371D01*
X151073321Y-71672796D01*
X151024097Y-71732777D01*
X150964116Y-71782001D01*
X150895691Y-71818575D01*
X150895688Y-71818576D01*
X150821438Y-71841100D01*
X150744220Y-71848705D01*
X150667003Y-71841100D01*
X150592753Y-71818576D01*
X150592750Y-71818575D01*
X150524325Y-71782001D01*
X150464344Y-71732777D01*
X150415120Y-71672796D01*
X150378546Y-71604371D01*
X150378545Y-71604368D01*
X150363454Y-71554622D01*
X150354079Y-71531991D01*
X150340465Y-71511616D01*
X150323138Y-71494289D01*
X150302764Y-71480676D01*
X150280125Y-71471298D01*
X150256092Y-71466518D01*
X150231588Y-71466518D01*
X150207555Y-71471298D01*
X150184916Y-71480676D01*
X150164541Y-71494290D01*
X150147214Y-71511617D01*
X150133601Y-71531991D01*
X150124226Y-71554623D01*
X150109136Y-71604368D01*
X150109135Y-71604371D01*
X150072561Y-71672796D01*
X150023337Y-71732777D01*
X149963356Y-71782001D01*
X149894931Y-71818575D01*
X149894928Y-71818576D01*
X149820678Y-71841100D01*
X149743460Y-71848705D01*
X149666243Y-71841100D01*
X149591993Y-71818576D01*
X149591990Y-71818575D01*
X149523565Y-71782001D01*
X149463584Y-71732777D01*
X149414360Y-71672796D01*
X149377786Y-71604371D01*
X149377785Y-71604368D01*
X149362694Y-71554622D01*
X149353319Y-71531991D01*
X149339705Y-71511616D01*
X149322378Y-71494289D01*
X149302004Y-71480676D01*
X149279365Y-71471298D01*
X149255332Y-71466518D01*
X149230828Y-71466518D01*
X149206795Y-71471298D01*
X149184156Y-71480676D01*
X149163781Y-71494290D01*
X149146454Y-71511617D01*
X149132841Y-71531991D01*
X149123466Y-71554623D01*
X149108376Y-71604368D01*
X149108375Y-71604371D01*
X149071801Y-71672796D01*
X149022577Y-71732777D01*
X148962596Y-71782001D01*
X148894171Y-71818575D01*
X148894168Y-71818576D01*
X148819918Y-71841100D01*
X148742700Y-71848705D01*
X148665483Y-71841100D01*
X148591233Y-71818576D01*
X148591230Y-71818575D01*
X148522805Y-71782001D01*
X148462824Y-71732777D01*
X148413600Y-71672796D01*
X148377026Y-71604371D01*
X148377025Y-71604368D01*
X148361934Y-71554622D01*
X148352559Y-71531991D01*
X148338945Y-71511616D01*
X148321618Y-71494289D01*
X148301244Y-71480676D01*
X148278605Y-71471298D01*
X148254572Y-71466518D01*
X148230068Y-71466518D01*
X148206035Y-71471298D01*
X148183396Y-71480676D01*
X148163021Y-71494290D01*
X148145694Y-71511617D01*
X148132081Y-71531991D01*
X148122706Y-71554623D01*
X148107616Y-71604368D01*
X148107615Y-71604371D01*
X148071041Y-71672796D01*
X148021817Y-71732777D01*
X147961836Y-71782001D01*
X147893411Y-71818575D01*
X147893408Y-71818576D01*
X147819158Y-71841100D01*
X147741940Y-71848705D01*
X147664723Y-71841100D01*
X147590473Y-71818576D01*
X147590470Y-71818575D01*
X147522045Y-71782001D01*
X147462064Y-71732777D01*
X147412840Y-71672796D01*
X147376266Y-71604371D01*
X147376265Y-71604368D01*
X147361174Y-71554622D01*
X147351799Y-71531991D01*
X147338185Y-71511616D01*
X147320858Y-71494289D01*
X147300484Y-71480676D01*
X147277845Y-71471298D01*
X147253812Y-71466518D01*
X147229308Y-71466518D01*
X147205275Y-71471298D01*
X147182636Y-71480676D01*
X147162261Y-71494290D01*
X147144934Y-71511617D01*
X147131321Y-71531991D01*
X147121946Y-71554623D01*
X147106856Y-71604368D01*
X147106855Y-71604371D01*
X147070281Y-71672796D01*
X147021057Y-71732777D01*
X146961076Y-71782001D01*
X146892651Y-71818575D01*
X146892648Y-71818576D01*
X146818398Y-71841100D01*
X146741180Y-71848705D01*
X146663963Y-71841100D01*
X146589713Y-71818576D01*
X146589710Y-71818575D01*
X146521285Y-71782001D01*
X146461304Y-71732777D01*
X146412080Y-71672796D01*
X146375506Y-71604371D01*
X146375505Y-71604368D01*
X146352980Y-71530118D01*
X146347280Y-71472243D01*
X146347280Y-71052558D01*
X146352980Y-70994683D01*
X146375504Y-70920433D01*
X146412080Y-70852004D01*
X146412082Y-70852000D01*
X146461303Y-70792023D01*
X146521284Y-70742799D01*
X146589709Y-70706225D01*
X146589712Y-70706224D01*
X146663962Y-70683700D01*
X146741180Y-70676095D01*
X146818397Y-70683700D01*
X146892647Y-70706224D01*
X146947034Y-70735294D01*
X146961080Y-70742802D01*
X147021057Y-70792023D01*
X147070281Y-70852004D01*
X147106855Y-70920428D01*
X147106857Y-70920434D01*
X147121945Y-70970173D01*
X147131320Y-70992807D01*
X147144934Y-71013181D01*
X147162261Y-71030508D01*
X147182635Y-71044122D01*
X147205274Y-71053499D01*
X147229307Y-71058280D01*
X147253812Y-71058280D01*
X147277845Y-71053500D01*
X147300484Y-71044123D01*
X147320858Y-71030509D01*
X147338185Y-71013182D01*
X147351799Y-70992808D01*
X147361177Y-70970168D01*
X147376264Y-70920434D01*
X147376264Y-70920433D01*
X147412840Y-70852004D01*
X147412842Y-70852000D01*
X147462063Y-70792023D01*
X147522044Y-70742799D01*
X147590469Y-70706225D01*
X147590472Y-70706224D01*
X147664722Y-70683700D01*
X147741940Y-70676095D01*
X147819157Y-70683700D01*
X147893407Y-70706224D01*
X147947794Y-70735294D01*
X147961840Y-70742802D01*
X148021817Y-70792023D01*
X148071041Y-70852004D01*
X148107615Y-70920428D01*
X148107617Y-70920434D01*
X148122705Y-70970173D01*
X148132080Y-70992807D01*
X148145694Y-71013181D01*
X148163021Y-71030508D01*
X148183395Y-71044122D01*
X148206034Y-71053499D01*
X148230067Y-71058280D01*
X148254572Y-71058280D01*
X148278605Y-71053500D01*
X148301244Y-71044123D01*
X148321618Y-71030509D01*
X148338945Y-71013182D01*
X148352559Y-70992808D01*
X148361937Y-70970168D01*
X148377024Y-70920434D01*
X148377024Y-70920433D01*
X148413600Y-70852004D01*
X148413602Y-70852000D01*
X148462823Y-70792023D01*
X148522804Y-70742799D01*
X148591229Y-70706225D01*
X148591232Y-70706224D01*
X148665482Y-70683700D01*
X148742700Y-70676095D01*
X148819917Y-70683700D01*
X148894167Y-70706224D01*
X148948554Y-70735294D01*
X148962600Y-70742802D01*
X149022577Y-70792023D01*
X149071801Y-70852004D01*
X149108375Y-70920428D01*
X149108377Y-70920434D01*
X149123465Y-70970173D01*
X149132840Y-70992807D01*
X149146454Y-71013181D01*
X149163781Y-71030508D01*
X149184155Y-71044122D01*
X149206794Y-71053499D01*
X149230827Y-71058280D01*
X149255332Y-71058280D01*
X149279365Y-71053500D01*
X149302004Y-71044123D01*
X149322378Y-71030509D01*
X149339705Y-71013182D01*
X149353319Y-70992808D01*
X149362697Y-70970168D01*
X149377784Y-70920434D01*
X149377784Y-70920433D01*
X149414360Y-70852004D01*
X149414362Y-70852000D01*
X149463583Y-70792023D01*
X149523564Y-70742799D01*
X149591989Y-70706225D01*
X149591992Y-70706224D01*
X149666242Y-70683700D01*
X149743460Y-70676095D01*
X149820677Y-70683700D01*
X149894927Y-70706224D01*
X149949314Y-70735294D01*
X149963360Y-70742802D01*
X150023337Y-70792023D01*
X150072561Y-70852004D01*
X150109135Y-70920428D01*
X150109137Y-70920434D01*
X150124225Y-70970173D01*
X150133600Y-70992807D01*
X150147214Y-71013181D01*
X150164541Y-71030508D01*
X150184915Y-71044122D01*
X150207554Y-71053499D01*
X150231587Y-71058280D01*
X150256092Y-71058280D01*
X150280125Y-71053500D01*
X150302764Y-71044123D01*
X150323138Y-71030509D01*
X150340465Y-71013182D01*
X150354079Y-70992808D01*
X150363457Y-70970168D01*
X150378544Y-70920434D01*
X150378544Y-70920433D01*
X150415120Y-70852004D01*
X150415122Y-70852000D01*
X150464343Y-70792023D01*
X150524324Y-70742799D01*
X150592749Y-70706225D01*
X150592752Y-70706224D01*
X150667002Y-70683700D01*
X150744220Y-70676095D01*
X150821437Y-70683700D01*
X150895687Y-70706224D01*
X150950074Y-70735294D01*
X150964120Y-70742802D01*
X151024097Y-70792023D01*
X151073321Y-70852004D01*
X151109895Y-70920428D01*
X151109897Y-70920434D01*
X151124985Y-70970173D01*
X151134360Y-70992807D01*
X151147974Y-71013181D01*
X151165301Y-71030508D01*
X151185675Y-71044122D01*
X151208314Y-71053499D01*
X151232347Y-71058280D01*
X151256852Y-71058280D01*
X151280885Y-71053500D01*
X151303524Y-71044123D01*
X151323898Y-71030509D01*
X151341225Y-71013182D01*
X151354839Y-70992808D01*
X151364217Y-70970168D01*
X151379304Y-70920434D01*
X151379304Y-70920433D01*
X151415880Y-70852004D01*
X151415882Y-70852000D01*
X151465103Y-70792023D01*
X151525084Y-70742799D01*
X151593509Y-70706225D01*
X151593512Y-70706224D01*
X151667762Y-70683700D01*
X151744980Y-70676095D01*
X151822197Y-70683700D01*
X151896447Y-70706224D01*
X151950834Y-70735294D01*
X151964880Y-70742802D01*
X152024857Y-70792023D01*
X152074081Y-70852004D01*
X152110655Y-70920428D01*
X152110657Y-70920434D01*
X152125745Y-70970173D01*
X152135120Y-70992807D01*
X152148734Y-71013181D01*
X152166061Y-71030508D01*
X152186435Y-71044122D01*
X152209074Y-71053499D01*
X152233107Y-71058280D01*
X152257612Y-71058280D01*
X152281645Y-71053500D01*
X152304284Y-71044123D01*
X152324658Y-71030509D01*
X152341985Y-71013182D01*
X152355599Y-70992808D01*
X152364977Y-70970168D01*
X152380064Y-70920434D01*
X152380064Y-70920433D01*
X152416640Y-70852004D01*
X152416642Y-70852000D01*
X152465863Y-70792023D01*
X152525844Y-70742799D01*
X152594269Y-70706225D01*
X152594272Y-70706224D01*
X152668522Y-70683700D01*
X152745740Y-70676095D01*
X152822957Y-70683700D01*
X152897207Y-70706224D01*
X152951594Y-70735294D01*
X152965640Y-70742802D01*
X153025617Y-70792023D01*
X153074841Y-70852004D01*
X153111415Y-70920428D01*
X153111417Y-70920434D01*
X153126505Y-70970173D01*
X153135880Y-70992807D01*
X153149494Y-71013181D01*
X153166821Y-71030508D01*
X153187195Y-71044122D01*
X153209834Y-71053499D01*
X153233867Y-71058280D01*
X153258372Y-71058280D01*
X153282405Y-71053500D01*
X153305044Y-71044123D01*
X153325418Y-71030509D01*
X153342745Y-71013182D01*
X153356359Y-70992808D01*
X153365737Y-70970168D01*
X153380824Y-70920434D01*
X153380824Y-70920433D01*
X153417400Y-70852004D01*
X153417402Y-70852000D01*
X153466623Y-70792023D01*
X153526604Y-70742799D01*
X153595029Y-70706225D01*
X153595032Y-70706224D01*
X153669282Y-70683700D01*
X153746500Y-70676095D01*
X153823717Y-70683700D01*
X153823717Y-70683700D01*
G37*
G36*
X153323337Y-68143700D02*
G01*
X153397587Y-68166224D01*
X153451974Y-68195294D01*
X153466020Y-68202802D01*
X153525997Y-68252023D01*
X153575221Y-68312004D01*
X153611795Y-68380429D01*
X153611796Y-68380432D01*
X153634320Y-68454682D01*
X153640020Y-68512557D01*
X153640020Y-68932243D01*
X153634320Y-68990118D01*
X153616074Y-69050266D01*
X153611795Y-69064372D01*
X153575221Y-69132796D01*
X153525997Y-69192777D01*
X153466016Y-69242001D01*
X153397591Y-69278575D01*
X153397588Y-69278576D01*
X153323338Y-69301100D01*
X153246120Y-69308705D01*
X153168903Y-69301100D01*
X153094653Y-69278576D01*
X153094650Y-69278575D01*
X153026225Y-69242001D01*
X152966244Y-69192777D01*
X152917020Y-69132796D01*
X152880446Y-69064371D01*
X152880445Y-69064368D01*
X152865354Y-69014622D01*
X152855979Y-68991991D01*
X152842365Y-68971616D01*
X152825038Y-68954289D01*
X152804664Y-68940676D01*
X152782025Y-68931298D01*
X152757992Y-68926518D01*
X152733488Y-68926518D01*
X152709455Y-68931298D01*
X152686816Y-68940676D01*
X152666441Y-68954290D01*
X152649114Y-68971617D01*
X152635501Y-68991991D01*
X152626126Y-69014623D01*
X152611036Y-69064368D01*
X152611035Y-69064371D01*
X152574461Y-69132796D01*
X152525237Y-69192777D01*
X152465256Y-69242001D01*
X152396831Y-69278575D01*
X152396828Y-69278576D01*
X152322578Y-69301100D01*
X152245360Y-69308705D01*
X152168143Y-69301100D01*
X152093893Y-69278576D01*
X152093890Y-69278575D01*
X152025465Y-69242001D01*
X151965484Y-69192777D01*
X151916260Y-69132796D01*
X151879686Y-69064371D01*
X151879685Y-69064368D01*
X151864594Y-69014622D01*
X151855219Y-68991991D01*
X151841605Y-68971616D01*
X151824278Y-68954289D01*
X151803904Y-68940676D01*
X151781265Y-68931298D01*
X151757232Y-68926518D01*
X151732728Y-68926518D01*
X151708695Y-68931298D01*
X151686056Y-68940676D01*
X151665681Y-68954290D01*
X151648354Y-68971617D01*
X151634741Y-68991991D01*
X151625366Y-69014623D01*
X151610276Y-69064368D01*
X151610275Y-69064371D01*
X151573701Y-69132796D01*
X151524477Y-69192777D01*
X151464496Y-69242001D01*
X151396071Y-69278575D01*
X151396068Y-69278576D01*
X151321818Y-69301100D01*
X151244600Y-69308705D01*
X151167383Y-69301100D01*
X151093133Y-69278576D01*
X151093130Y-69278575D01*
X151024705Y-69242001D01*
X150964724Y-69192777D01*
X150915500Y-69132796D01*
X150878926Y-69064371D01*
X150878925Y-69064368D01*
X150863834Y-69014622D01*
X150854459Y-68991991D01*
X150840845Y-68971616D01*
X150823518Y-68954289D01*
X150803144Y-68940676D01*
X150780505Y-68931298D01*
X150756472Y-68926518D01*
X150731968Y-68926518D01*
X150707935Y-68931298D01*
X150685296Y-68940676D01*
X150664921Y-68954290D01*
X150647594Y-68971617D01*
X150633981Y-68991991D01*
X150624606Y-69014623D01*
X150609516Y-69064368D01*
X150609515Y-69064371D01*
X150572941Y-69132796D01*
X150523717Y-69192777D01*
X150463736Y-69242001D01*
X150395311Y-69278575D01*
X150395308Y-69278576D01*
X150321058Y-69301100D01*
X150243840Y-69308705D01*
X150166623Y-69301100D01*
X150092373Y-69278576D01*
X150092370Y-69278575D01*
X150023945Y-69242001D01*
X149963964Y-69192777D01*
X149914740Y-69132796D01*
X149878166Y-69064371D01*
X149878165Y-69064368D01*
X149863074Y-69014622D01*
X149853699Y-68991991D01*
X149840085Y-68971616D01*
X149822758Y-68954289D01*
X149802384Y-68940676D01*
X149779745Y-68931298D01*
X149755712Y-68926518D01*
X149731208Y-68926518D01*
X149707175Y-68931298D01*
X149684536Y-68940676D01*
X149664161Y-68954290D01*
X149646834Y-68971617D01*
X149633221Y-68991991D01*
X149623846Y-69014623D01*
X149608756Y-69064368D01*
X149608755Y-69064371D01*
X149572181Y-69132796D01*
X149522957Y-69192777D01*
X149462976Y-69242001D01*
X149394551Y-69278575D01*
X149394548Y-69278576D01*
X149320298Y-69301100D01*
X149243080Y-69308705D01*
X149165863Y-69301100D01*
X149091613Y-69278576D01*
X149091610Y-69278575D01*
X149023185Y-69242001D01*
X148963204Y-69192777D01*
X148913980Y-69132796D01*
X148877406Y-69064371D01*
X148877405Y-69064368D01*
X148862314Y-69014622D01*
X148852939Y-68991991D01*
X148839325Y-68971616D01*
X148821998Y-68954289D01*
X148801624Y-68940676D01*
X148778985Y-68931298D01*
X148754952Y-68926518D01*
X148730448Y-68926518D01*
X148706415Y-68931298D01*
X148683776Y-68940676D01*
X148663401Y-68954290D01*
X148646074Y-68971617D01*
X148632461Y-68991991D01*
X148623086Y-69014623D01*
X148607996Y-69064368D01*
X148607995Y-69064371D01*
X148571421Y-69132796D01*
X148522197Y-69192777D01*
X148462216Y-69242001D01*
X148393791Y-69278575D01*
X148393788Y-69278576D01*
X148319538Y-69301100D01*
X148242320Y-69308705D01*
X148165103Y-69301100D01*
X148090853Y-69278576D01*
X148090850Y-69278575D01*
X148022425Y-69242001D01*
X147962444Y-69192777D01*
X147913220Y-69132796D01*
X147876646Y-69064371D01*
X147876645Y-69064368D01*
X147861554Y-69014622D01*
X147852179Y-68991991D01*
X147838565Y-68971616D01*
X147821238Y-68954289D01*
X147800864Y-68940676D01*
X147778225Y-68931298D01*
X147754192Y-68926518D01*
X147729688Y-68926518D01*
X147705655Y-68931298D01*
X147683016Y-68940676D01*
X147662641Y-68954290D01*
X147645314Y-68971617D01*
X147631701Y-68991991D01*
X147622326Y-69014623D01*
X147607236Y-69064368D01*
X147607235Y-69064371D01*
X147570661Y-69132796D01*
X147521437Y-69192777D01*
X147461456Y-69242001D01*
X147393031Y-69278575D01*
X147393028Y-69278576D01*
X147318778Y-69301100D01*
X147241560Y-69308705D01*
X147164343Y-69301100D01*
X147090093Y-69278576D01*
X147090090Y-69278575D01*
X147021665Y-69242001D01*
X146961684Y-69192777D01*
X146912460Y-69132796D01*
X146875886Y-69064371D01*
X146875885Y-69064368D01*
X146860794Y-69014622D01*
X146851419Y-68991991D01*
X146837805Y-68971616D01*
X146820478Y-68954289D01*
X146800104Y-68940676D01*
X146777465Y-68931298D01*
X146753432Y-68926518D01*
X146728928Y-68926518D01*
X146704895Y-68931298D01*
X146682256Y-68940676D01*
X146661881Y-68954290D01*
X146644554Y-68971617D01*
X146630941Y-68991991D01*
X146621566Y-69014623D01*
X146606476Y-69064368D01*
X146606475Y-69064371D01*
X146569901Y-69132796D01*
X146520677Y-69192777D01*
X146460696Y-69242001D01*
X146392271Y-69278575D01*
X146392268Y-69278576D01*
X146318018Y-69301100D01*
X146240800Y-69308705D01*
X146163583Y-69301100D01*
X146089333Y-69278576D01*
X146089330Y-69278575D01*
X146020905Y-69242001D01*
X145960924Y-69192777D01*
X145911700Y-69132796D01*
X145875126Y-69064371D01*
X145875125Y-69064368D01*
X145852600Y-68990118D01*
X145846900Y-68932243D01*
X145846900Y-68512558D01*
X145852600Y-68454683D01*
X145875124Y-68380433D01*
X145911700Y-68312004D01*
X145911702Y-68312000D01*
X145960923Y-68252023D01*
X146020904Y-68202799D01*
X146089329Y-68166225D01*
X146089332Y-68166224D01*
X146163582Y-68143700D01*
X146240800Y-68136095D01*
X146318017Y-68143700D01*
X146392267Y-68166224D01*
X146446654Y-68195294D01*
X146460700Y-68202802D01*
X146520677Y-68252023D01*
X146569901Y-68312004D01*
X146606475Y-68380428D01*
X146606477Y-68380434D01*
X146621565Y-68430173D01*
X146630940Y-68452807D01*
X146644554Y-68473181D01*
X146661881Y-68490508D01*
X146682255Y-68504122D01*
X146704894Y-68513499D01*
X146728927Y-68518280D01*
X146753432Y-68518280D01*
X146777465Y-68513500D01*
X146800104Y-68504123D01*
X146820478Y-68490509D01*
X146837805Y-68473182D01*
X146851419Y-68452808D01*
X146860797Y-68430168D01*
X146875884Y-68380434D01*
X146875884Y-68380433D01*
X146912460Y-68312004D01*
X146912462Y-68312000D01*
X146961683Y-68252023D01*
X147021664Y-68202799D01*
X147090089Y-68166225D01*
X147090092Y-68166224D01*
X147164342Y-68143700D01*
X147241560Y-68136095D01*
X147318777Y-68143700D01*
X147393027Y-68166224D01*
X147447414Y-68195294D01*
X147461460Y-68202802D01*
X147521437Y-68252023D01*
X147570661Y-68312004D01*
X147607235Y-68380428D01*
X147607237Y-68380434D01*
X147622325Y-68430173D01*
X147631700Y-68452807D01*
X147645314Y-68473181D01*
X147662641Y-68490508D01*
X147683015Y-68504122D01*
X147705654Y-68513499D01*
X147729687Y-68518280D01*
X147754192Y-68518280D01*
X147778225Y-68513500D01*
X147800864Y-68504123D01*
X147821238Y-68490509D01*
X147838565Y-68473182D01*
X147852179Y-68452808D01*
X147861557Y-68430168D01*
X147876644Y-68380434D01*
X147876644Y-68380433D01*
X147913220Y-68312004D01*
X147913222Y-68312000D01*
X147962443Y-68252023D01*
X148022424Y-68202799D01*
X148090849Y-68166225D01*
X148090852Y-68166224D01*
X148165102Y-68143700D01*
X148242320Y-68136095D01*
X148319537Y-68143700D01*
X148393787Y-68166224D01*
X148448174Y-68195294D01*
X148462220Y-68202802D01*
X148522197Y-68252023D01*
X148571421Y-68312004D01*
X148607995Y-68380428D01*
X148607997Y-68380434D01*
X148623085Y-68430173D01*
X148632460Y-68452807D01*
X148646074Y-68473181D01*
X148663401Y-68490508D01*
X148683775Y-68504122D01*
X148706414Y-68513499D01*
X148730447Y-68518280D01*
X148754952Y-68518280D01*
X148778985Y-68513500D01*
X148801624Y-68504123D01*
X148821998Y-68490509D01*
X148839325Y-68473182D01*
X148852939Y-68452808D01*
X148862317Y-68430168D01*
X148877404Y-68380434D01*
X148877404Y-68380433D01*
X148913980Y-68312004D01*
X148913982Y-68312000D01*
X148963203Y-68252023D01*
X149023184Y-68202799D01*
X149091609Y-68166225D01*
X149091612Y-68166224D01*
X149165862Y-68143700D01*
X149243080Y-68136095D01*
X149320297Y-68143700D01*
X149394547Y-68166224D01*
X149448934Y-68195294D01*
X149462980Y-68202802D01*
X149522957Y-68252023D01*
X149572181Y-68312004D01*
X149608755Y-68380428D01*
X149608757Y-68380434D01*
X149623845Y-68430173D01*
X149633220Y-68452807D01*
X149646834Y-68473181D01*
X149664161Y-68490508D01*
X149684535Y-68504122D01*
X149707174Y-68513499D01*
X149731207Y-68518280D01*
X149755712Y-68518280D01*
X149779745Y-68513500D01*
X149802384Y-68504123D01*
X149822758Y-68490509D01*
X149840085Y-68473182D01*
X149853699Y-68452808D01*
X149863077Y-68430168D01*
X149878164Y-68380434D01*
X149878164Y-68380433D01*
X149914740Y-68312004D01*
X149914742Y-68312000D01*
X149963963Y-68252023D01*
X150023944Y-68202799D01*
X150092369Y-68166225D01*
X150092372Y-68166224D01*
X150166622Y-68143700D01*
X150243840Y-68136095D01*
X150321057Y-68143700D01*
X150395307Y-68166224D01*
X150449694Y-68195294D01*
X150463740Y-68202802D01*
X150523717Y-68252023D01*
X150572941Y-68312004D01*
X150609515Y-68380428D01*
X150609517Y-68380434D01*
X150624605Y-68430173D01*
X150633980Y-68452807D01*
X150647594Y-68473181D01*
X150664921Y-68490508D01*
X150685295Y-68504122D01*
X150707934Y-68513499D01*
X150731967Y-68518280D01*
X150756472Y-68518280D01*
X150780505Y-68513500D01*
X150803144Y-68504123D01*
X150823518Y-68490509D01*
X150840845Y-68473182D01*
X150854459Y-68452808D01*
X150863837Y-68430168D01*
X150878924Y-68380434D01*
X150878924Y-68380433D01*
X150915500Y-68312004D01*
X150915502Y-68312000D01*
X150964723Y-68252023D01*
X151024704Y-68202799D01*
X151093129Y-68166225D01*
X151093132Y-68166224D01*
X151167382Y-68143700D01*
X151244600Y-68136095D01*
X151321817Y-68143700D01*
X151396067Y-68166224D01*
X151450454Y-68195294D01*
X151464500Y-68202802D01*
X151524477Y-68252023D01*
X151573701Y-68312004D01*
X151610275Y-68380428D01*
X151610277Y-68380434D01*
X151625365Y-68430173D01*
X151634740Y-68452807D01*
X151648354Y-68473181D01*
X151665681Y-68490508D01*
X151686055Y-68504122D01*
X151708694Y-68513499D01*
X151732727Y-68518280D01*
X151757232Y-68518280D01*
X151781265Y-68513500D01*
X151803904Y-68504123D01*
X151824278Y-68490509D01*
X151841605Y-68473182D01*
X151855219Y-68452808D01*
X151864597Y-68430168D01*
X151879684Y-68380434D01*
X151879684Y-68380433D01*
X151916260Y-68312004D01*
X151916262Y-68312000D01*
X151965483Y-68252023D01*
X152025464Y-68202799D01*
X152093889Y-68166225D01*
X152093892Y-68166224D01*
X152168142Y-68143700D01*
X152245360Y-68136095D01*
X152322577Y-68143700D01*
X152396827Y-68166224D01*
X152451214Y-68195294D01*
X152465260Y-68202802D01*
X152525237Y-68252023D01*
X152574461Y-68312004D01*
X152611035Y-68380428D01*
X152611037Y-68380434D01*
X152626125Y-68430173D01*
X152635500Y-68452807D01*
X152649114Y-68473181D01*
X152666441Y-68490508D01*
X152686815Y-68504122D01*
X152709454Y-68513499D01*
X152733487Y-68518280D01*
X152757992Y-68518280D01*
X152782025Y-68513500D01*
X152804664Y-68504123D01*
X152825038Y-68490509D01*
X152842365Y-68473182D01*
X152855979Y-68452808D01*
X152865357Y-68430168D01*
X152880444Y-68380434D01*
X152880444Y-68380433D01*
X152917020Y-68312004D01*
X152917022Y-68312000D01*
X152966243Y-68252023D01*
X153026224Y-68202799D01*
X153094649Y-68166225D01*
X153094652Y-68166224D01*
X153168902Y-68143700D01*
X153246120Y-68136095D01*
X153323337Y-68143700D01*
X153323337Y-68143700D01*
G37*
G36*
X139114612Y-58392651D02*
G01*
X139454402Y-58533397D01*
X139454403Y-58533398D01*
X139760207Y-58737729D01*
X140020271Y-58997793D01*
X140156801Y-59202125D01*
X140224603Y-59303598D01*
X140365349Y-59643388D01*
X140437100Y-60004105D01*
X140437100Y-60371895D01*
X140365349Y-60732612D01*
X140224603Y-61072402D01*
X140224602Y-61072403D01*
X140020271Y-61378207D01*
X139760207Y-61638271D01*
X139555875Y-61774801D01*
X139454402Y-61842603D01*
X139114612Y-61983349D01*
X138753895Y-62055100D01*
X138386105Y-62055100D01*
X138025388Y-61983349D01*
X137685598Y-61842603D01*
X137584125Y-61774801D01*
X137379793Y-61638271D01*
X137119729Y-61378207D01*
X136915398Y-61072403D01*
X136915397Y-61072402D01*
X136774651Y-60732612D01*
X136702900Y-60371895D01*
X136702900Y-60004105D01*
X136774651Y-59643388D01*
X136915397Y-59303598D01*
X136983199Y-59202125D01*
X137119729Y-58997793D01*
X137379793Y-58737729D01*
X137685597Y-58533398D01*
X137685598Y-58533397D01*
X138025388Y-58392651D01*
X138386105Y-58320900D01*
X138753895Y-58320900D01*
X139114612Y-58392651D01*
X139114612Y-58392651D01*
G37*
G36*
X161974612Y-58392651D02*
G01*
X162314402Y-58533397D01*
X162314403Y-58533398D01*
X162620207Y-58737729D01*
X162880271Y-58997793D01*
X163016801Y-59202125D01*
X163084603Y-59303598D01*
X163225349Y-59643388D01*
X163297100Y-60004105D01*
X163297100Y-60371895D01*
X163225349Y-60732612D01*
X163084603Y-61072402D01*
X163084602Y-61072403D01*
X162880271Y-61378207D01*
X162620207Y-61638271D01*
X162415875Y-61774801D01*
X162314402Y-61842603D01*
X161974612Y-61983349D01*
X161613895Y-62055100D01*
X161246105Y-62055100D01*
X160885388Y-61983349D01*
X160545598Y-61842603D01*
X160444125Y-61774801D01*
X160239793Y-61638271D01*
X159979729Y-61378207D01*
X159775398Y-61072403D01*
X159775397Y-61072402D01*
X159634651Y-60732612D01*
X159562900Y-60371895D01*
X159562900Y-60004105D01*
X159634651Y-59643388D01*
X159775397Y-59303598D01*
X159843199Y-59202125D01*
X159979729Y-58997793D01*
X160239793Y-58737729D01*
X160545597Y-58533398D01*
X160545598Y-58533397D01*
X160885388Y-58392651D01*
X161246105Y-58320900D01*
X161613895Y-58320900D01*
X161974612Y-58392651D01*
X161974612Y-58392651D01*
G37*
G36*
X180634239Y-46811467D02*
G01*
X180948282Y-46873934D01*
X181539926Y-47119001D01*
X182072392Y-47474784D01*
X182525216Y-47927608D01*
X182880999Y-48460074D01*
X183126066Y-49051718D01*
X183126066Y-49051719D01*
X183251000Y-49679803D01*
X183251000Y-50320197D01*
X183188533Y-50634239D01*
X183126066Y-50948282D01*
X182880999Y-51539926D01*
X182525216Y-52072392D01*
X182072392Y-52525216D01*
X181539926Y-52880999D01*
X180948282Y-53126066D01*
X180634239Y-53188533D01*
X180320197Y-53251000D01*
X179679803Y-53251000D01*
X179365761Y-53188533D01*
X179051718Y-53126066D01*
X178460074Y-52880999D01*
X177927608Y-52525216D01*
X177474784Y-52072392D01*
X177119001Y-51539926D01*
X176873934Y-50948282D01*
X176811467Y-50634239D01*
X176749000Y-50320197D01*
X176749000Y-49679803D01*
X176873934Y-49051719D01*
X176873934Y-49051718D01*
X177119001Y-48460074D01*
X177474784Y-47927608D01*
X177927608Y-47474784D01*
X178460074Y-47119001D01*
X179051718Y-46873934D01*
X179365761Y-46811467D01*
X179679803Y-46749000D01*
X180320197Y-46749000D01*
X180634239Y-46811467D01*
X180634239Y-46811467D01*
G37*
G36*
X120634239Y-46811467D02*
G01*
X120948282Y-46873934D01*
X121539926Y-47119001D01*
X122072392Y-47474784D01*
X122525216Y-47927608D01*
X122880999Y-48460074D01*
X123126066Y-49051718D01*
X123126066Y-49051719D01*
X123251000Y-49679803D01*
X123251000Y-50320197D01*
X123188533Y-50634239D01*
X123126066Y-50948282D01*
X122880999Y-51539926D01*
X122525216Y-52072392D01*
X122072392Y-52525216D01*
X121539926Y-52880999D01*
X120948282Y-53126066D01*
X120634239Y-53188533D01*
X120320197Y-53251000D01*
X119679803Y-53251000D01*
X119365761Y-53188533D01*
X119051718Y-53126066D01*
X118460074Y-52880999D01*
X117927608Y-52525216D01*
X117474784Y-52072392D01*
X117119001Y-51539926D01*
X116873934Y-50948282D01*
X116811467Y-50634239D01*
X116749000Y-50320197D01*
X116749000Y-49679803D01*
X116873934Y-49051719D01*
X116873934Y-49051718D01*
X117119001Y-48460074D01*
X117474784Y-47927608D01*
X117927608Y-47474784D01*
X118460074Y-47119001D01*
X119051718Y-46873934D01*
X119365761Y-46811467D01*
X119679803Y-46749000D01*
X120320197Y-46749000D01*
X120634239Y-46811467D01*
X120634239Y-46811467D01*
G37*
G36*
X50634239Y33188533D02*
G01*
X50948282Y33126066D01*
X51539926Y32880999D01*
X52072392Y32525216D01*
X52525216Y32072392D01*
X52880999Y31539926D01*
X53126066Y30948282D01*
X53126066Y30948281D01*
X53251000Y30320197D01*
X53251000Y29679803D01*
X53188533Y29365761D01*
X53126066Y29051718D01*
X52880999Y28460074D01*
X52525216Y27927608D01*
X52072392Y27474784D01*
X51539926Y27119001D01*
X50948282Y26873934D01*
X50634239Y26811467D01*
X50320197Y26749000D01*
X49679803Y26749000D01*
X49365761Y26811467D01*
X49051718Y26873934D01*
X48460074Y27119001D01*
X47927608Y27474784D01*
X47474784Y27927608D01*
X47119001Y28460074D01*
X46873934Y29051718D01*
X46811467Y29365761D01*
X46749000Y29679803D01*
X46749000Y30320197D01*
X46873934Y30948281D01*
X46873934Y30948282D01*
X47119001Y31539926D01*
X47474784Y32072392D01*
X47927608Y32525216D01*
X48460074Y32880999D01*
X49051718Y33126066D01*
X49365761Y33188533D01*
X49679803Y33251000D01*
X50320197Y33251000D01*
X50634239Y33188533D01*
X50634239Y33188533D01*
G37*
G36*
X250634239Y33188533D02*
G01*
X250948282Y33126066D01*
X251539926Y32880999D01*
X252072392Y32525216D01*
X252525216Y32072392D01*
X252880999Y31539926D01*
X253126066Y30948282D01*
X253126066Y30948281D01*
X253251000Y30320197D01*
X253251000Y29679803D01*
X253188533Y29365761D01*
X253126066Y29051718D01*
X252880999Y28460074D01*
X252525216Y27927608D01*
X252072392Y27474784D01*
X251539926Y27119001D01*
X250948282Y26873934D01*
X250634239Y26811467D01*
X250320197Y26749000D01*
X249679803Y26749000D01*
X249365761Y26811467D01*
X249051718Y26873934D01*
X248460074Y27119001D01*
X247927608Y27474784D01*
X247474784Y27927608D01*
X247119001Y28460074D01*
X246873934Y29051718D01*
X246811467Y29365761D01*
X246749000Y29679803D01*
X246749000Y30320197D01*
X246873934Y30948281D01*
X246873934Y30948282D01*
X247119001Y31539926D01*
X247474784Y32072392D01*
X247927608Y32525216D01*
X248460074Y32880999D01*
X249051718Y33126066D01*
X249365761Y33188533D01*
X249679803Y33251000D01*
X250320197Y33251000D01*
X250634239Y33188533D01*
X250634239Y33188533D01*
G37*
M02*
